<?xml version="1.0" encoding="UTF-8" standalone="no"?>
<!-- Created with Inkscape (http://www.inkscape.org/) -->

<svg
   xmlns:dc="http://purl.org/dc/elements/1.1/"
   xmlns:cc="http://creativecommons.org/ns#"
   xmlns:rdf="http://www.w3.org/1999/02/22-rdf-syntax-ns#"
   xmlns:svg="http://www.w3.org/2000/svg"
   xmlns="http://www.w3.org/2000/svg"
   xmlns:sodipodi="http://sodipodi.sourceforge.net/DTD/sodipodi-0.dtd"
   xmlns:inkscape="http://www.inkscape.org/namespaces/inkscape"
   width="744.09448819"
   height="1052.3622047"
   id="svg2"
   version="1.1"
   inkscape:version="0.48.2 r9819"
   sodipodi:docname="0.1_DoNotBeOnFire.svg"
   inkscape:export-filename="C:\Users\User\Google Drive\PotteriesHackspace\01 Space Info\01 Artwork\Signs\DoNotBeOnFire.png"
   inkscape:export-xdpi="190.49829"
   inkscape:export-ydpi="190.49829">
  <defs
     id="defs4">
    <inkscape:perspective
       inkscape:persp3d-origin="300 : 400 : 1"
       inkscape:vp_z="700 : 600 : 1"
       inkscape:vp_y="0 : 1000 : 0"
       inkscape:vp_x="-50 : 600 : 1"
       id="perspective2713"
       sodipodi:type="inkscape:persp3d" />
    <inkscape:perspective
       inkscape:persp3d-origin="300 : 400 : 1"
       inkscape:vp_z="700 : 600 : 1"
       inkscape:vp_y="0 : 1000 : 0"
       inkscape:vp_x="-50 : 600 : 1"
       id="perspective2607"
       sodipodi:type="inkscape:persp3d" />
  </defs>
  <sodipodi:namedview
     id="base"
     pagecolor="#ffffff"
     bordercolor="#666666"
     borderopacity="1.0"
     inkscape:pageopacity="0.0"
     inkscape:pageshadow="2"
     inkscape:zoom="1.5334746"
     inkscape:cx="767.14286"
     inkscape:cy="960"
     inkscape:document-units="px"
     inkscape:current-layer="g2552"
     showgrid="false"
     inkscape:window-width="1366"
     inkscape:window-height="706"
     inkscape:window-x="-8"
     inkscape:window-y="-8"
     inkscape:window-maximized="1" />
  <metadata
     id="metadata7">
    <rdf:RDF>
      <cc:Work
         rdf:about="">
        <dc:format>image/svg+xml</dc:format>
        <dc:type
           rdf:resource="http://purl.org/dc/dcmitype/StillImage" />
        <dc:title />
      </cc:Work>
    </rdf:RDF>
  </metadata>
  <g
     inkscape:label="Layer 1"
     inkscape:groupmode="layer"
     id="layer1">
    <g
       inkscape:export-ydpi="190.49829"
       inkscape:export-xdpi="190.49829"
       transform="matrix(8.7812004,0,0,8.7812004,-212.02174,-102.51666)"
       id="g2552">
      <rect
         style="fill:#ff0000;fill-opacity:1;stroke:none"
         id="rect2992"
         width="84.744835"
         height="120.16426"
         x="24.14496"
         y="11.678297" />
      <g
         id="g2554"
         transform="matrix(0.41001833,0,0,0.41001833,32.175179,18.834993)"
         inkscape:export-filename="C:\Users\User\Desktop\path2566.png"
         inkscape:export-xdpi="190.49829"
         inkscape:export-ydpi="190.49829">
        <path
           inkscape:connector-curvature="0"
           style="fill:#000000;stroke:none"
           id="path2556"
           d="M 84.4626,153.222 C 123.584,152.075 154.369,119.431 153.222,80.3103 152.076,41.1892 119.431,10.404 80.3103,11.5505 41.1892,12.697 10.404,45.3415 11.5505,84.4626 c 1.147,39.1204 33.791,69.9064 72.9121,68.7594 z" />
        <path
           inkscape:connector-curvature="0"
           style="fill:#ff0000;stroke:#ffffff;stroke-width:3"
           id="path2558"
           d="M 84.2893,148.923 C 121.063,147.846 150.001,117.16 148.923,80.3859 147.846,43.612 117.16,14.674 80.3859,15.7517 43.612,16.8293 14.674,47.5153 15.7517,84.2893 16.8298,121.063 47.5153,150.001 84.2893,148.923 z" />
      </g>
      <path
         inkscape:connector-curvature="0"
         style="fill:#ffffff;stroke:none"
         id="path2560"
         d="M 66.456298,74.854139 C 78.749421,74.494074 88.423622,64.235913 88.06312,51.942617 87.703054,39.649103 77.444893,29.975339 65.151464,30.335448 52.858168,30.695819 43.184142,40.953937 43.544513,53.247233 43.904884,65.540442 54.163002,75.214642 66.456298,74.854139 z"
         inkscape:export-filename="C:\Users\User\Desktop\path2566.png"
         inkscape:export-xdpi="190.49829"
         inkscape:export-ydpi="190.49829" />
      <path
         style="fill:#000000"
         d="m 58.919444,71.528123 0.485596,-0.02766 0.02172,-3.706456 c 0.01864,-3.180829 0.03817,-3.716629 0.13783,-3.778184 0.294974,-0.182209 3.597192,-1.410861 3.670371,-1.365632 0.04544,0.02812 0.536519,0.95826 1.091212,2.067018 0.90383,1.806632 1.031147,2.020814 1.226325,2.063054 0.787419,0.170403 9.271718,1.748282 9.291923,1.728075 0.06169,-0.06169 0.470615,-3.210921 0.422979,-3.257431 -0.02937,-0.02868 -1.686543,-0.35495 -3.682599,-0.725048 -3.186776,-0.590875 -3.646939,-0.693932 -3.774764,-0.8454 -0.214213,-0.253832 -0.986112,-1.822279 -0.986112,-2.003716 0,-0.102483 0.103975,-0.208853 0.303803,-0.310796 0.408722,-0.208516 0.833264,-0.721238 0.991391,-1.197314 0.195493,-0.588574 0.119149,-1.617238 -0.186599,-2.514204 -0.226212,-0.663634 -0.250348,-0.854924 -0.437063,-3.463966 -0.132594,-1.852754 -0.172655,-2.808209 -0.121738,-2.903351 0.05109,-0.09551 0.451543,-0.258421 1.226422,-0.498949 0.632797,-0.196427 1.20322,-0.386278 1.26761,-0.421893 0.115547,-0.06391 2.272784,-8.188126 2.23936,-8.433496 -0.0105,-0.0771 -0.430047,-0.21606 -1.340289,-0.443934 -0.728749,-0.182439 -1.333907,-0.322798 -1.344798,-0.311908 -0.0109,0.01088 -0.436229,1.432501 -0.945198,3.159137 -0.50897,1.726634 -0.957386,3.169024 -0.996481,3.205311 -0.06679,0.06199 -9.788707,2.737594 -9.947173,2.737594 -0.0405,0 -1.62202,-0.687947 -3.514498,-1.52877 -1.89249,-0.840826 -3.451732,-1.516908 -3.46498,-1.502408 -0.01329,0.0145 -0.3441,0.666871 -0.735199,1.449713 l -0.711096,1.423353 0.253557,0.109171 c 0.139455,0.06004 2.009083,0.90621 4.154729,1.880371 2.145638,0.974159 3.954379,1.774742 4.019427,1.77907 0.06503,0.0043 0.516841,-0.125458 1.003992,-0.288415 0.747962,-0.250201 0.902172,-0.279709 0.99139,-0.189707 0.167252,0.168726 2.147784,5.315185 2.124358,5.520208 -0.01891,0.165597 -0.302539,0.296862 -2.772236,1.283054 l -2.751158,1.098585 0,5.136323 0,5.136324 1.151191,-0.01504 c 0.63316,-0.0083 1.369716,-0.02748 1.636789,-0.04269 z m 2.056447,-23.926459 c 0.812555,-0.23038 1.4873,-0.814398 1.855381,-1.605909 0.169541,-0.364569 0.20398,-0.550633 0.20398,-1.102026 0,-0.802977 -0.214946,-1.342121 -0.77286,-1.938577 -0.535373,-0.572359 -1.149026,-0.827124 -1.994437,-0.828017 -0.561807,-6.24e-4 -0.735111,0.03251 -1.131681,0.216103 -0.608485,0.281714 -1.142317,0.812384 -1.418594,1.410192 -0.188388,0.407641 -0.219969,0.573238 -0.217446,1.140299 0.0027,0.558836 0.0379,0.740092 0.224745,1.14997 0.547744,1.201698 2.019603,1.907072 3.250912,1.557965 z"
         id="path2998-1"
         inkscape:connector-curvature="0"
         sodipodi:nodetypes="scssssscssssssssssssscsssscscsscsssscccsssssscsssss" />
      <path
         style="fill:#ff0000"
         d="m 76.353779,67.442976 c 0.477162,-0.566393 0.862926,-1.158253 1.615116,-2.477997 1.342112,-2.354787 1.940905,-2.900042 3.34735,-3.048068 0.371257,-0.03907 0.692575,-0.07321 0.714037,-0.07587 0.02147,-0.0026 -0.329749,-0.155694 -0.780471,-0.340087 -1.321028,-0.540436 -2.263368,-1.042614 -2.263368,-1.206159 0,-0.09616 0.340972,-0.364797 1.057916,-0.833501 0.581854,-0.380388 1.180902,-0.827747 1.33122,-0.99413 l 0.273304,-0.302515 -0.199535,-0.340483 c -0.241916,-0.412798 -0.249302,-0.614063 -0.03737,-1.018121 0.08919,-0.170049 0.21118,-0.468266 0.271081,-0.662704 0.116598,-0.378481 0.773431,-1.20111 1.34232,-1.681138 0.182434,-0.153941 0.3317,-0.312276 0.3317,-0.351856 0,-0.122571 -0.65695,-0.07914 -0.860665,0.05689 -0.603562,0.403055 -1.067207,0.986889 -2.171191,2.73402 -0.914316,1.446967 -1.363159,1.984432 -1.804797,2.161141 -0.390563,0.156272 -0.56276,0.09448 -0.985246,-0.353529 -0.644067,-0.682981 -0.886181,-1.246367 -0.779654,-1.814204 0.08406,-0.448066 0.641197,-0.997258 1.403465,-1.38345 l 0.63233,-0.320361 -0.663401,0.04176 c -1.281642,0.08067 -1.896929,0.421026 -3.457076,1.912333 -0.847381,0.809991 -1.186404,1.0791 -1.644968,1.305734 -1.519067,0.750764 -1.790893,-0.03148 -0.592487,-1.70504 l 0.318104,-0.444224 0.420114,0.04937 c 0.362632,0.04262 0.466874,0.02197 0.761859,-0.150897 0.48245,-0.282737 1.251823,-1.127064 1.899385,-2.084436 0.58766,-0.868809 1.163214,-1.859331 1.110826,-1.91172 -0.0173,-0.01731 -0.188178,0.199658 -0.379696,0.482164 -0.511953,0.755176 -1.987195,2.143571 -2.596238,2.443403 -0.413055,0.203346 -0.528118,0.229929 -0.704674,0.162803 -0.239123,-0.09092 -0.364307,-0.353339 -0.364307,-0.763704 l 0,-0.280283 -0.3317,0.496704 c -1.033845,1.548128 -2.057832,2.058021 -3.078636,1.532998 -0.457399,-0.23525 -0.603845,-0.215365 -0.712656,0.09677 -0.06014,0.172538 -0.01956,0.396801 0.200157,1.105915 0.222457,0.717965 0.277342,1.024936 0.284623,1.591911 0.01076,0.838586 -0.111202,1.24285 -0.626141,2.075297 -0.348391,0.527529 -0.416388,0.469326 -0.137188,0.988053 1.866611,1.566241 5.549481,1.027796 7.944258,1.813972 0.05654,0.05654 -0.0091,0.623685 -0.214893,1.855623 -0.162977,0.975807 -0.313473,1.835656 -0.334436,1.910777 -0.06955,0.24921 0.112096,0.141724 0.461625,-0.273165 z M 72.397721,48.312233 c 1.144094,-0.918105 1.79601,-1.573331 1.873814,-1.883329 0.06907,-0.275191 -0.01109,-0.31923 -0.683779,-0.375625 -0.918193,-0.07698 -0.968837,-0.238856 -0.302294,-0.96627 0.608257,-0.663804 1.276783,-1.194814 1.803467,-1.432492 0.402447,-0.181612 0.490102,-0.190452 1.693272,-0.170731 1.135915,0.01862 1.30063,0.0046 1.572119,-0.133916 0.617759,-0.315158 1.178453,-1.622428 1.178453,-2.747587 l 0,-0.647865 -0.292677,0.498729 c -0.812036,1.383724 -1.625928,1.69765 -2.86644,1.105613 -0.900703,-0.429864 -0.91834,-0.524217 -0.176536,-0.944491 0.643468,-0.364563 1.450486,-1.171014 1.796348,-1.795084 0.536262,-0.96763 0.768843,-2.437184 0.567187,-3.583765 -0.07077,-0.402381 -0.129528,-0.329365 -0.272862,0.339078 -0.200469,0.934896 -0.578153,1.524171 -1.132879,1.767558 -0.173122,0.07596 -0.613296,0.161192 -0.978167,0.18941 -0.964266,0.07457 -1.414161,0.222068 -1.910492,0.626335 -0.430109,0.350328 -0.665064,0.437604 -0.665064,0.247042 0,-0.05618 -0.04491,-0.163571 -0.0998,-0.238634 -0.09144,-0.125056 -0.137542,-0.103445 -0.550871,0.258248 -0.24809,0.217101 -0.497414,0.394728 -0.554048,0.394728 -0.346074,0 -0.353665,-0.777939 -0.01327,-1.358799 0.347747,-0.593385 1.243466,-1.297869 2.22363,-1.74889 l 0.438218,-0.201645 -0.251183,-0.07295 C 73.90999,35.18019 71.5059,36.820853 70.171994,38.59108 c -0.402873,0.534654 -0.701253,1.118704 -0.61539,1.204568 0.01619,0.01618 0.87138,0.251226 1.900422,0.522303 1.674331,0.441064 1.873519,0.51058 1.895089,0.66137 0.01792,0.125271 -1.783527,7.126208 -2.059937,8.005508 -0.02361,0.07512 -0.01141,0.136581 0.02712,0.136581 0.03852,0 0.523813,-0.364128 1.078406,-0.809175 z M 49.154495,47.09204 c 0.483787,-0.815515 0.926171,-1.482755 0.983083,-1.482755 0.05687,0 1.223989,0.530383 2.593499,1.178628 3.412839,1.615441 3.105804,1.507165 2.595041,0.915144 -0.637612,-0.739059 -0.882823,-1.075936 -1.107494,-1.52148 -0.289902,-0.574937 -0.325938,-0.924698 -0.165424,-1.605603 0.140566,-0.596234 0.125661,-0.843861 -0.06661,-1.106768 -0.10078,-0.137793 -0.126569,-0.09898 -0.319864,0.481447 -0.260857,0.783274 -0.487735,1.034369 -0.934239,1.033965 -0.617046,-5.48e-4 -1.062501,-0.455914 -1.062501,-1.086095 0,-0.295368 0.02536,-0.32989 0.434769,-0.591792 0.562816,-0.360025 0.774582,-0.788287 0.714956,-1.445865 -0.02213,-0.243908 -0.09346,-0.545093 -0.158535,-0.669301 l -0.118332,-0.225832 -0.05222,0.312061 c -0.188319,1.125458 -0.466193,1.325681 -1.300685,0.937205 -0.786594,-0.36618 -1.027337,-0.260224 -1.165511,0.512981 -0.07987,0.446951 -0.08007,0.633423 -6.84e-4,0.957233 0.186544,0.763915 0.162413,0.912257 -0.188793,1.160281 -0.339783,0.239954 -0.769947,0.344148 -1.089607,0.263916 -0.251015,-0.06301 -0.488708,-0.442389 -0.555275,-0.886299 -0.06065,-0.404229 -0.169269,-0.397252 -0.383109,0.02461 -0.135308,0.266929 -0.155677,0.45865 -0.152929,1.439622 0.0021,0.757659 0.04647,1.330529 0.134185,1.733331 0.142928,0.656299 0.326156,1.154494 0.42451,1.154271 0.0344,-7.8e-5 0.458339,-0.667382 0.94212,-1.482895 z m 15.256537,-2.730144 c 0.82032,-1.026895 1.459759,-2.132379 1.783992,-3.084226 0.239955,-0.70443 0.265266,-1.838299 0.04842,-2.169241 -0.07611,-0.116159 -0.171235,-0.211198 -0.211389,-0.211198 -0.04129,0 -0.06594,0.318967 -0.05675,0.734218 0.0152,0.685902 0.0033,0.748196 -0.178846,0.946625 -0.264443,0.287874 -0.61947,0.426431 -1.09266,0.426431 -0.483837,0 -0.89066,-0.160164 -1.023987,-0.40314 -0.05497,-0.100218 -0.101698,-0.445622 -0.103803,-0.767568 -0.0048,-0.74357 0.180164,-1.154344 0.996523,-2.212426 0.837703,-1.085741 0.950761,-1.342384 0.950761,-2.158214 0,-0.556169 -0.03325,-0.732786 -0.205737,-1.092661 -0.113158,-0.236093 -0.261304,-0.499502 -0.329219,-0.585353 -0.115317,-0.145778 -0.123645,-0.114078 -0.125962,0.479574 -0.0046,1.18241 -0.410738,2.008991 -1.247932,2.539923 -0.381301,0.241814 -1.675737,0.687743 -1.996369,0.687743 -0.232347,0 -0.339762,-0.222429 -0.404863,-0.838355 -0.05454,-0.516306 0.128468,-1.027681 0.471868,-1.318321 l 0.248051,-0.209938 -0.234143,0.0577 c -0.361987,0.0892 -0.707402,0.394842 -0.909066,0.804384 -0.161852,0.328693 -0.186188,0.502244 -0.20546,1.465508 -0.012,0.600962 -0.03934,1.172925 -0.06072,1.271025 -0.09105,0.418045 -0.981617,0.375736 -1.405566,-0.06678 -0.278478,-0.290666 -0.346135,-0.938457 -0.163189,-1.562529 0.06717,-0.22908 0.105612,-0.432991 0.08546,-0.453138 -0.09677,-0.09677 -0.882055,0.866459 -1.138745,1.39677 -0.520479,1.075303 -0.946245,2.726208 -1.046656,4.058451 l -0.04997,0.6634 0.203905,-0.28971 c 0.636318,-0.904058 2.261112,-1.599242 3.567678,-1.526465 0.756886,0.04215 1.550442,0.401383 2.199912,0.995846 0.814474,0.745494 1.123443,1.3369 1.212682,2.321252 l 0.0512,0.564356 z"
         id="path2998-7"
         inkscape:connector-curvature="0"
         sodipodi:nodetypes="ssscsssscssssssssssscsssscsssssssscssssscccssssssssssscssssssssssssssscsscssssscssssssscsssscsssssssssssccsssssssssssssssssscsssssscsscsssscs" />
      <path
         inkscape:connector-curvature="0"
         style="fill:#ff0000;stroke:none"
         id="path2566"
         d="M 84.677207,68.417688 50.46011,34.358492 l -3.233077,3.218315 34.21718,34.059115 3.232994,-3.218234 z"
         inkscape:export-xdpi="190.49829"
         inkscape:export-ydpi="190.49829" />
      <text
         xml:space="preserve"
         style="font-size:4.55518579px;font-style:normal;font-variant:normal;font-weight:normal;font-stretch:normal;line-height:125%;letter-spacing:0px;word-spacing:0px;fill:#000000;fill-opacity:1;stroke:none;font-family:Verdana;-inkscape-font-specification:Verdana"
         x="66.554008"
         y="101.90849"
         id="text2994"
         sodipodi:linespacing="125%"><tspan
           sodipodi:role="line"
           id="tspan2996"
           x="66.554008"
           y="101.90849"
           style="font-size:14.23495579px;font-style:normal;font-variant:normal;font-weight:bold;font-stretch:normal;text-align:center;text-anchor:middle;fill:#ffffff;font-family:Arial;-inkscape-font-specification:Arial Bold">DO NOT BE</tspan><tspan
           sodipodi:role="line"
           x="66.554008"
           y="119.70218"
           id="tspan2998"
           style="font-size:14.23495579px;font-style:normal;font-variant:normal;font-weight:bold;font-stretch:normal;text-align:center;text-anchor:middle;fill:#ffffff;font-family:Arial;-inkscape-font-specification:Arial Bold">ON FIRE</tspan></text>
    </g>
  </g>
</svg>
