<?xml version="1.0" encoding="UTF-8" standalone="no"?>
<!-- Created with Inkscape (http://www.inkscape.org/) -->

<svg
   xmlns:dc="http://purl.org/dc/elements/1.1/"
   xmlns:cc="http://creativecommons.org/ns#"
   xmlns:rdf="http://www.w3.org/1999/02/22-rdf-syntax-ns#"
   xmlns:svg="http://www.w3.org/2000/svg"
   xmlns="http://www.w3.org/2000/svg"
   xmlns:sodipodi="http://sodipodi.sourceforge.net/DTD/sodipodi-0.dtd"
   xmlns:inkscape="http://www.inkscape.org/namespaces/inkscape"
   width="744.09448819"
   height="1052.3622047"
   id="svg2"
   version="1.1"
   inkscape:version="0.48.2 r9819"
   sodipodi:docname="1.1 TeamBlack.svg">
  <defs
     id="defs4">
    <inkscape:perspective
       sodipodi:type="inkscape:persp3d"
       inkscape:vp_x="0 : 526.18109 : 1"
       inkscape:vp_y="0 : 1000 : 0"
       inkscape:vp_z="744.09448 : 526.18109 : 1"
       inkscape:persp3d-origin="372.04724 : 350.78739 : 1"
       id="perspective2447" />
    <inkscape:perspective
       id="perspective10"
       inkscape:persp3d-origin="372.04724 : 350.78739 : 1"
       inkscape:vp_z="744.09448 : 526.18109 : 1"
       inkscape:vp_y="0 : 1000 : 0"
       inkscape:vp_x="0 : 526.18109 : 1"
       sodipodi:type="inkscape:persp3d" />
  </defs>
  <sodipodi:namedview
     id="base"
     pagecolor="#ffffff"
     bordercolor="#666666"
     borderopacity="1.0"
     inkscape:pageopacity="0.0"
     inkscape:pageshadow="2"
     inkscape:zoom="1.3832538"
     inkscape:cx="466.82955"
     inkscape:cy="995.31162"
     inkscape:document-units="px"
     inkscape:current-layer="layer1"
     showgrid="false"
     inkscape:window-width="1366"
     inkscape:window-height="706"
     inkscape:window-x="-8"
     inkscape:window-y="-8"
     inkscape:window-maximized="1" />
  <metadata
     id="metadata7">
    <rdf:RDF>
      <cc:Work
         rdf:about="">
        <dc:format>image/svg+xml</dc:format>
        <dc:type
           rdf:resource="http://purl.org/dc/dcmitype/StillImage" />
        <dc:title />
      </cc:Work>
    </rdf:RDF>
  </metadata>
  <g
     inkscape:label="Layer 1"
     inkscape:groupmode="layer"
     id="layer1">
    <rect
       style="fill:#333333;fill-opacity:1;stroke:none"
       id="rect2998"
       width="744.30298"
       height="1055.7316"
       x="0"
       y="-0.51225507" />
    <g
       transform="translate(78.431439,115.65432)"
       id="layer1-0"
       inkscape:label="Layer 1"
       style="fill:#ffffff">
      <path
         id="path2689"
         d="m 319.25803,389.44671 c -0.33006,-0.12656 -1.27973,-1.14209 -2.11034,-2.25673 -1.21276,-1.62739 -1.82748,-2.21253 -3.12064,-2.97054 -1.9801,-1.16061 -2.79312,-1.99281 -3.31182,-3.38995 -0.58968,-1.58829 -0.52966,-4.53299 0.13186,-6.4711 0.3667,-1.07434 0.44575,-1.58166 0.25627,-1.64482 -0.47899,-0.15966 -1.2314,-1.08653 -1.82569,-2.24897 -0.5622,-1.09967 -0.57955,-1.31346 -0.7301,-9.00184 -0.17887,-9.13304 0.26328,-17.72788 1.25108,-24.31881 1.76557,-11.78042 2.01648,-14.00618 2.01603,-17.88367 -5.5e-4,-4.90414 -0.53973,-20.29155 -0.82851,-23.64485 -0.0512,-0.59412 -0.16616,-2.05242 -0.25552,-3.24067 -0.0894,-1.18824 -0.19994,-2.58182 -0.24572,-3.09682 -0.0871,-0.97988 -0.51488,-6.347 -0.71943,-9.02566 -0.0655,-0.85818 -0.22269,-2.4245 -0.34924,-3.48072 -0.12656,-1.05621 -0.3999,-3.48671 -0.60743,-5.4011 -0.2075,-1.91439 -0.42465,-3.85879 -0.48252,-4.32088 -0.0579,-0.4621 -0.2738,-2.46051 -0.47984,-4.44091 -0.206,-1.98042 -0.42299,-3.97882 -0.48213,-4.44091 -0.11482,-0.89707 -0.60896,-5.70196 -1.29603,-12.60259 -0.30104,-3.02342 -1.29105,-9.25735 -1.94425,-12.24251 -0.84421,-3.85807 -1.95439,-7.63284 -2.38662,-8.11474 -0.0952,-0.10622 -0.24475,2.81038 -0.33221,6.48133 -0.33501,14.06148 -0.94157,32.45782 -1.52601,46.28256 -0.37998,8.98848 -0.50365,30.62755 -0.19348,33.8545 0.15845,1.64854 0.56609,6.55952 0.73661,8.87426 0.0778,1.05622 0.35578,2.9466 0.6177,4.20087 0.26192,1.25425 1.22161,5.84692 2.13262,10.20593 2.62998,12.58374 2.70103,13.76764 1.6634,27.72184 -0.47571,6.3976 -0.50893,6.61768 -1.07646,7.13025 l -0.58559,0.52893 0.60655,0.89382 c 0.82951,1.22233 0.91422,1.69587 0.78179,4.36993 -0.18803,3.79695 -1.234,5.60445 -3.43412,5.9344 -1.5909,0.23856 -1.80317,0.50108 -2.13504,2.64025 -0.34265,2.20872 -0.51508,2.67463 -1.10711,2.99149 -0.23714,0.12692 -1.9798,0.57531 -3.87257,0.9964 -3.25845,0.72495 -3.76034,0.77073 -9.4426,0.86108 l -6.00122,0.0954 -1.00478,-0.86394 c -1.17699,-1.012 -1.75579,-2.61438 -1.75579,-4.86078 0,-1.2645 0.13061,-1.63999 1.23975,-3.56379 2.35705,-4.08828 4.51749,-8.58724 4.26803,-8.88783 -0.12907,-0.15553 -1.07004,-0.33369 -2.09106,-0.39595 -3.66973,-0.22374 -6.33318,-1.65221 -6.6209,-3.55096 -0.0698,-0.4609 -0.29744,-4.13266 -0.50579,-8.15949 -0.20833,-4.02682 -0.6987,-13.26271 -1.08972,-20.5242 -0.39102,-7.26149 -0.92794,-17.36157 -1.19316,-22.44461 -0.54784,-10.49889 -0.64145,-11.83836 -1.94573,-27.8457 -0.52174,-6.40332 -1.06123,-12.29052 -1.19882,-13.08268 -0.49931,-2.87428 -3.25754,-14.57944 -4.29902,-18.24375 -1.1646,-4.09742 -3.01283,-13.06465 -5.54142,-26.88551 -0.63807,-3.48756 -0.61181,-3.42444 -1.49723,-3.59905 -1.2308,-0.24274 -2.04429,-0.6177 -2.19559,-1.01198 -0.15368,-0.40048 0.16317,-3.34875 0.70404,-6.55126 0.18954,-1.12223 0.56767,-3.49871 0.84032,-5.28108 0.27264,-1.78236 0.54152,-3.52562 0.59753,-3.87389 0.0679,-0.42211 -0.0568,-0.77676 -0.37388,-1.06374 -0.79031,-0.71521 -2.5589,-3.55267 -5.06499,-8.12607 -2.81319,-5.13376 -2.77033,-4.94973 -3.55338,-15.2621 -1.24175,-16.35326 -1.70511,-21.88214 -1.93424,-23.07915 -0.45494,-2.37676 -0.96072,-11.30341 -1.11345,-19.65149 -0.1693,-9.25513 -0.28386,-7.93462 2.06167,-23.76299 0.26412,-1.78236 0.70193,-4.75298 0.97289,-6.60136 1.85679,-12.665929 2.61891,-16.155559 4.22602,-19.349749 1.25294,-2.49029 2.69619,-3.46434 8.14461,-5.49681 6.84843,-2.55472 18.36857,-7.37404 19.82554,-8.29379 0.56445,-0.35631 1.29927,-1.23965 2.02331,-2.43224 0.62532,-1.03 2.1058,-2.93819 3.28996,-4.24043 1.18417,-1.30224 2.29041,-2.70706 2.4583,-3.12182 0.16789,-0.41475 0.37148,-2.29294 0.45242,-4.17373 l 0.14717,-3.41962 -0.95698,-1.48063 c -0.52633,-0.81435 -1.06262,-1.87301 -1.19177,-2.35259 -0.16628,-0.61757 -0.541,-1.08778 -1.28436,-1.61177 -1.28592,-0.90639 -2.24477,-2.12656 -2.42185,-3.08185 -0.18299,-0.98731 -0.57984,-4.23482 -0.74766,-6.11832 -0.3992,-4.48075 -0.57141,-5.72484 -0.91379,-6.60136 -0.72834,-1.86461 -0.41041,-10.63366 0.49168,-13.56278 0.35398,-1.14933 0.74406,-1.65454 3.01296,-3.90217 1.43345,-1.42005 3.40579,-3.12139 4.38296,-3.78077 1.48963,-1.00519 1.9542,-1.19888 2.8757,-1.19888 0.69467,0 1.53211,-0.21945 2.27609,-0.59646 3.60869,-1.82866 6.4797,-2.48021 8.59216,-1.94994 0.7574,0.19014 1.97123,0.41501 2.69739,0.49974 2.50637,0.29242 5.36766,0.87887 6.07653,1.24543 0.93619,0.48413 6.98701,6.40212 7.67212,7.50372 0.58288,0.93721 0.57746,0.84852 0.71371,11.67948 l 0.0606,4.81919 0.70378,1.01787 0.70377,1.01786 -0.29298,3.73635 c -0.45635,5.82018 -0.63714,6.42147 -2.80075,9.31462 -0.69115,0.92418 -1.32608,2.0044 -1.41099,2.40048 -0.0849,0.39609 0.0138,1.69235 0.21924,2.88059 0.30623,1.77078 0.5778,2.50368 1.50574,4.06341 1.27391,2.14126 3.27861,4.41276 5.15373,5.83967 1.51877,1.15572 9.39404,4.6454 12.36469,5.47903 1.15364,0.32372 3.06971,0.85901 4.25795,1.18951 13.0498,3.62975 13.3766,3.74355 14.78007,5.14703 1.02722,1.02721 1.16846,1.31369 1.64182,3.32985 1.28496,5.47321 2.09625,13.986889 3.37761,35.443899 0.95492,15.99082 1.00835,17.88812 0.90604,32.1666 -0.10648,14.86074 -0.15353,15.65278 -1.39759,23.52481 -1.65574,10.47726 -3.3477,15.70772 -6.65938,20.5866 -0.64885,0.95589 -1.80185,2.70692 -2.56225,3.89119 l -1.38257,2.15321 0.63097,6.24852 c 0.34701,3.43667 0.63013,7.46376 0.62915,8.94906 l -0.002,2.70056 -0.70834,0 c -0.38958,0 -1.23276,0.11245 -1.87371,0.24993 l -1.16539,0.24992 0.044,4.61108 c 0.081,8.48528 -0.28418,16.20577 -0.9789,20.69435 -0.34737,2.24447 -0.73491,5.59315 -0.8612,7.44153 -0.30124,4.40927 -0.55956,7.37808 -1.40979,16.20332 -0.98105,10.18298 -1.17554,15.67478 -1.37284,38.76794 -0.22555,26.3982 -0.22505,27.49198 0.0196,43.10478 0.16097,10.27439 0.14261,13.4627 -0.08,13.87861 -0.35168,0.65709 -1.69784,1.25489 -4.63509,2.05831 -3.63446,0.99411 -3.66329,1.41578 -0.40794,5.9688 2.71515,3.7974 4.01905,6.28265 4.22979,8.06195 0.17905,1.51176 -0.10245,1.97524 -2.12715,3.50259 -2.08197,1.57054 -3.22542,2.00928 -6.29001,2.41347 -2.94828,0.38886 -10.72429,0.442 -11.66903,0.0797 z m -5.19389,-282.87003 c 0.34475,-1.58432 0.78759,-3.85279 0.9841,-5.04103 0.90734,-5.486989 3.04894,-20.804889 2.92594,-20.927889 -0.0306,-0.0306 -1.07754,1.46534 -2.32651,3.3243 -1.24896,1.85896 -2.52292,3.57829 -2.83105,3.82073 -0.54926,0.4322 -0.5797,0.42855 -1.56031,-0.18666 -0.55006,-0.3451 -1.8751,-1.41953 -2.9445,-2.38762 l -1.94437,-1.76016 -1.87155,2.05592 -1.87151,2.05592 1.47197,2.12413 c 0.80962,1.16827 1.6785,2.64516 1.93089,3.28197 0.25241,0.63681 1.12712,2.56213 1.94382,4.27847 2.17795,4.577009 4.20953,9.389119 4.69263,11.115069 0.23292,0.83221 0.50228,1.42632 0.59856,1.32027 0.0963,-0.10606 0.45713,-1.48909 0.80189,-3.07342 z m -19.77122,-2.41859 c 0,-1.42118 1.00381,-6.402919 2.07337,-10.289799 0.47445,-1.72417 1.00002,-3.83525 1.16791,-4.69128 0.30388,-1.54918 0.30201,-1.56119 -0.40124,-2.58334 -0.38859,-0.5648 -0.81907,-1.34972 -0.95659,-1.74425 -0.13756,-0.39454 -0.32842,-0.71734 -0.42417,-0.71734 -0.0957,0 -1.39651,1.35529 -2.89061,3.01177 -1.6633,1.84406 -2.86342,2.98347 -3.0954,2.9388 -0.20837,-0.04013 -0.66585,-0.64734 -1.01664,-1.34936 -0.76885,-1.53873 -1.17801,-2.01571 -1.17801,-1.37329 0,1.12922 4.09701,13.347649 5.663,16.888589 0.65555,1.48234 1.05838,1.44789 1.05838,-0.0905 z m 1.63123,-21.586329 c 1.21918,-1.45229 2.28373,-2.89513 2.36561,-3.2063 0.12936,-0.49149 -0.58601,-1.30118 -5.44933,-6.16783 -3.07907,-3.08114 -5.67681,-5.55353 -5.77278,-5.49422 -0.096,0.05931 -0.2479,0.54234 -0.33761,1.07338 -0.11243,0.66546 -0.52969,1.39246 -1.34264,2.33922 -1.35777,1.58131 -1.35964,1.02877 0.0212,6.2947 0.50201,1.91439 1.03814,4.12884 1.19142,4.92101 0.15327,0.79216 0.89147,2.71976 1.64039,4.28354 l 1.36173,2.84327 2.05263,-2.12312 c 1.12895,-1.16771 3.05017,-3.31135 4.26936,-4.76365 z m 18.93008,1.56032 c 3.19434,-4.60135 3.33796,-4.95185 3.78733,-9.24189 0.54282,-5.1823 0.55516,-5.06658 -0.70519,-6.60305 -0.59489,-0.72522 -1.18829,-1.31857 -1.31869,-1.31857 -0.13039,0 -2.69527,2.33071 -5.69978,5.17936 -3.00448,2.84865 -5.89191,5.56525 -6.41646,6.0369 -0.92544,0.83208 -0.94328,0.87721 -0.60012,1.51896 0.39394,0.73677 5.27356,5.60263 6.95499,6.93539 0.59412,0.47091 1.23051,0.82861 1.41423,0.79489 0.18368,-0.03373 1.34636,-1.51962 2.58369,-3.30199 z M 426.31997,373.47871 c -2.61358,-0.32697 -7.64158,-1.36799 -8.1241,-1.68205 -0.30942,-0.2014 -0.78162,-0.86137 -1.04935,-1.46663 -0.44045,-0.99565 -0.45831,-1.22781 -0.18752,-2.43775 0.28879,-1.29051 0.46009,-1.50127 4.89316,-6.02077 4.55059,-4.63936 6.82532,-7.47362 7.96823,-9.92829 0.49839,-1.07038 0.57605,-1.59534 0.57807,-3.90766 0.002,-1.85244 -0.0896,-2.74408 -0.29771,-2.90906 -0.16503,-0.13083 -1.11023,-0.25823 -2.10043,-0.28305 -0.9902,-0.0248 -1.87255,-0.12007 -1.96077,-0.21157 -0.27143,-0.28163 -1.15219,-9.21958 -1.4988,-15.21 -0.1808,-3.1249 -0.38619,-5.77459 -0.4564,-5.88818 -0.11844,-0.19163 -0.56883,-5.44547 -1.4776,-17.23608 -0.20477,-2.65663 -0.78851,-7.32061 -1.30695,-10.44214 -0.51529,-3.10263 -1.05754,-6.72138 -1.205,-8.04165 -0.52964,-4.74217 -0.81749,-5.88874 -3.76637,-15.00307 -3.24386,-10.02604 -8.2346,-24.72586 -8.50155,-25.04071 -0.0913,-0.1076 -0.23893,1.94483 -0.32818,4.56094 -0.0893,2.61609 -0.26571,5.78275 -0.3921,7.03701 -0.12638,1.25426 -0.33616,3.52273 -0.46617,5.04104 -0.13003,1.5183 -0.51656,5.67716 -0.85899,9.24188 -0.34243,3.56474 -0.71266,9.28991 -0.82275,12.72262 -0.46757,14.57879 -0.73313,23.37836 -0.97899,32.43672 -0.14377,5.29762 -0.35511,10.0506 -0.46961,10.56216 -0.11452,0.51157 -0.38905,1.03815 -0.61006,1.17017 -1.26804,0.75748 -1.35107,0.94201 -2.16608,4.81347 -0.44325,2.10557 -0.80897,4.16264 -0.81267,4.57125 -0.008,0.92017 -0.47623,1.35509 -2.16716,2.01433 -0.72615,0.28311 -1.91439,0.80477 -2.64054,1.1592 -1.27466,0.62221 -1.46125,0.64446 -5.40111,0.64446 -2.81837,0 -4.38826,-0.10202 -5.07461,-0.32976 -0.92626,-0.30736 -1.08121,-0.28937 -2.28047,0.26464 -0.70767,0.32691 -2.25889,1.32343 -3.44714,2.21447 -3.74625,2.80925 -4.18426,2.95011 -11.9832,3.85395 -5.55658,0.64395 -6.87012,0.57544 -9.92323,-0.51753 -1.37233,-0.49126 -2.19786,-1.86578 -2.27979,-3.79583 -0.057,-1.34327 -0.0303,-1.40901 0.90145,-2.22439 0.92134,-0.8062 8.00061,-4.39218 12.90457,-6.53678 1.28834,-0.56341 2.61203,-1.23644 2.94154,-1.49565 0.32951,-0.2592 1.31936,-1.51631 2.19967,-2.7936 0.88031,-1.27727 1.98604,-2.80425 2.45721,-3.39328 0.47117,-0.58901 0.82721,-1.24487 0.7912,-1.45744 -0.036,-0.21257 0.16095,-1.35098 0.43773,-2.52978 2.3485,-10.00252 3.12055,-13.54605 3.44807,-15.82611 0.48778,-3.39571 1.99044,-15.57497 2.19165,-17.76364 0.17211,-1.87241 -0.42885,-11.64633 -0.94462,-15.36315 -0.1832,-1.32027 -0.83453,-5.96522 -1.44735,-10.32211 -0.61282,-4.3569 -1.54695,-11.05427 -2.07585,-14.88305 -1.42491,-10.31557 -3.60989,-23.12262 -5.24208,-30.7263 l -1.44281,-6.72138 -0.51128,-7.92163 c -0.52053,-8.06507 -0.73004,-17.96509 -0.40472,-19.12482 0.16484,-0.58763 0.0436,-0.74011 -1.4553,-1.83032 -2.55209,-1.85622 -5.3416,-5.87793 -6.44444,-9.29105 l -0.62048,-1.9204 -0.23006,-14.643 c -0.33738,-21.47271 0.14199,-32.47176 1.98777,-45.60935 1.9054,-13.561679 2.29875,-15.161739 4.14602,-16.864499 1.32286,-1.21936 2.92607,-2.27941 8.64445,-5.71578 5.27648,-3.17079 6.97342,-4.56692 9.84248,-8.09771 1.8793,-2.31274 2.29525,-3.27776 2.30764,-5.35358 0.008,-1.40574 -0.39481,-2.41325 -1.6234,-4.05664 -1.05596,-1.41248 -2.30868,-3.87687 -2.60706,-5.1287 -0.0829,-0.34787 -0.23342,-0.74051 -0.33443,-0.87253 -0.53147,-0.69462 -1.24596,-4.22081 -1.89697,-9.36192 -0.40122,-3.16865 -0.90076,-6.8414 -1.11008,-8.16167 -0.55127,-3.47717 -0.50891,-6.58929 0.11659,-8.56317 0.83943,-2.6489 3.51742,-5.74715 6.54314,-7.56998 2.17955,-1.31303 3.57971,-1.56912 9.23746,-1.68952 l 5.07871,-0.10807 2.00274,0.87566 c 4.75563,2.07935 5.26893,2.37844 6.69144,3.89898 3.12246,3.33766 3.76834,4.8959 4.09288,9.87456 0.16667,2.55658 0.31968,3.53528 0.59596,3.81156 0.30442,0.30443 0.35517,0.87662 0.28035,3.1615 -0.11091,3.38719 -0.63446,5.38219 -2.32479,8.85887 l -1.21186,2.49254 0,2.49276 0,2.49276 2.58053,2.7173 c 1.41929,1.49451 3.28416,3.57509 4.14414,4.62351 l 1.5636,1.90623 6.42104,1.96524 c 10.15669,3.1086 11.44434,3.55615 14.40448,5.00667 2.40457,1.17827 2.92226,1.53869 3.74057,2.60417 0.52234,0.68015 1.12302,1.61472 1.33484,2.07681 0.55475,1.21039 2.9454,13.603309 3.49615,18.123719 1.39451,11.44642 2.45985,21.74153 2.5461,24.60504 0.0537,1.78236 0.21316,4.02595 0.35441,4.98576 0.27025,1.83654 0.34735,5.75435 0.12737,6.47354 -0.0712,0.23272 -0.35254,2.13678 -0.62523,4.23124 -0.2727,2.09444 -0.6688,4.1426 -0.88022,4.55146 -0.88909,1.71928 -9.2085,14.04327 -10.88565,16.12545 l -0.77339,0.9602 0.14303,2.4005 c 0.0787,1.32027 0.74931,6.55934 1.49032,11.64238 1.17463,8.05749 1.37526,9.98023 1.56548,15.00307 0.12,3.16865 0.46835,7.80316 0.7741,10.2989 l 0.55596,4.5377 -0.91634,0.35995 c -1.06592,0.4187 -1.2124,0.80914 -1.62775,4.3389 -0.49858,4.23689 -0.16933,8.21948 0.95564,11.55942 0.24614,0.73081 0.60732,2.29713 0.80258,3.48071 1.13037,6.85178 3.64846,21.50875 4.34945,25.3167 0.44961,2.4425 1.1977,6.76339 1.66241,9.60197 0.46471,2.83858 1.16522,6.24128 1.5567,7.56155 1.73908,5.86534 1.70852,5.61684 1.70242,13.84282 -0.003,4.13686 -0.10648,12.43657 -0.22987,18.4438 -0.12336,6.00723 -0.23865,16.5934 -0.25618,23.52482 l -0.0319,12.60258 0.74256,2.28047 c 0.57706,1.77219 0.80449,3.05629 1.02033,5.76118 0.1528,1.9144 0.20122,3.98492 0.1076,4.60114 -0.21859,1.439 -1.22826,2.82649 -2.84012,3.90294 -0.69708,0.46553 -1.50569,1.02101 -1.79689,1.2344 -0.2912,0.21341 -0.96846,0.41059 -1.50501,0.43817 -0.91349,0.047 -1.07274,0.17308 -2.50448,1.98374 -1.84598,2.3345 -3.76496,4.23084 -5.063,5.00327 -1.06375,0.63304 -4.32028,1.73983 -7.78216,2.64492 -2.25415,0.58934 -5.14656,0.88237 -6.74082,0.68294 z m -208.8428,-10.31627 c -0.33007,-0.0589 -2.16645,-0.32228 -4.08084,-0.58525 -3.10365,-0.42633 -3.69904,-0.58681 -5.49615,-1.48133 -1.10849,-0.55175 -3.10691,-1.80226 -4.44091,-2.7789 -3.05724,-2.23824 -3.025,-2.22245 -6.65416,-3.26045 -3.65917,-1.04654 -5.39918,-1.81443 -6.34351,-2.79942 -0.67334,-0.70231 -0.71437,-0.86334 -0.79209,-3.10895 -0.0877,-2.53247 0.30041,-4.47095 1.18341,-5.91126 0.25239,-0.41169 0.45888,-0.81548 0.45888,-0.89736 0,-0.0819 -0.43934,-0.21911 -0.9763,-0.30498 -1.46644,-0.23451 -1.62828,-0.50463 -1.37215,-2.29019 0.27707,-1.93156 0.055,-4.41823 -0.58421,-6.54273 -0.47983,-1.59475 -0.49346,-1.99217 -0.3381,-9.84203 0.11675,-5.89963 0.0582,-10.55589 -0.20995,-16.7019 -0.3614,-8.28172 -0.55682,-40.29581 -0.24906,-40.79382 0.0734,-0.11875 0.0172,-4.78854 -0.12496,-10.37732 -0.19843,-7.80244 -0.3952,-11.39247 -0.84757,-15.46423 -0.32402,-2.91656 -0.64514,-5.87398 -0.71352,-6.5721 -0.0684,-0.69808 -0.60615,-3.22683 -1.19497,-5.61943 -0.58881,-2.39257 -1.07062,-4.5328 -1.07069,-4.75607 -5e-5,-0.22324 -0.0978,-0.46632 -0.21732,-0.54016 -0.12211,-0.0755 -0.16647,0.2599 -0.10132,0.766 0.0637,0.49512 -0.11289,2.14249 -0.39246,3.66079 -1.03963,5.64578 -1.21532,6.6372 -1.44639,8.16168 -0.13008,0.85817 -0.33647,2.15445 -0.45868,2.88059 -0.30146,1.79115 -2.54781,10.48463 -4.74513,18.36377 -0.99411,3.56472 -1.9644,7.07544 -2.15614,7.80159 -0.19175,0.72615 -1.52259,5.64116 -2.95739,10.92225 -3.5552,13.08558 -3.86025,14.24259 -4.08244,15.48317 -1.30805,7.30385 -1.98147,11.7444 -2.30301,15.18618 -0.21261,2.27576 -0.52595,5.48805 -0.69631,7.13839 -0.17036,1.65034 -0.32251,5.91722 -0.33809,9.48195 -0.0155,3.56472 -0.099,9.50595 -0.18536,13.2027 -0.14396,6.16132 -0.19401,6.74752 -0.6007,7.03506 -0.39417,0.27867 -0.44369,0.67559 -0.44369,3.55649 0,1.98794 -0.1072,3.44574 -0.27706,3.76717 -0.15241,0.28839 -0.72269,0.95643 -1.26729,1.48454 -0.54463,0.52811 -1.77701,1.84484 -2.73867,2.92612 l -1.74848,1.9659 -1.26748,-0.0455 c -1.23445,-0.0444 -1.3068,-0.009 -2.77415,1.34865 -2.35085,2.17542 -4.66226,3.69543 -6.0827,4.00006 -1.38927,0.29795 -4.46204,0.16282 -8.20916,-0.36101 -1.32027,-0.18458 -3.0165,-0.38975 -3.7694,-0.45597 -2.21301,-0.19466 -2.90224,-0.59932 -3.53801,-2.0772 -0.43151,-1.00311 -0.52271,-1.55425 -0.42068,-2.54276 0.15469,-1.49878 0.56075,-2.28432 2.32463,-4.49716 0.72745,-0.91259 1.80872,-2.27543 2.40285,-3.02851 0.59412,-0.75308 1.98132,-2.43691 3.08266,-3.74184 1.94471,-2.30421 3.55177,-4.93128 3.28282,-5.36644 -0.0728,-0.11782 -0.72958,-0.34788 -1.45952,-0.51121 -0.72992,-0.16335 -1.36245,-0.35974 -1.40561,-0.43639 -0.0432,-0.0767 0.0645,-1.48967 0.2393,-3.14001 0.40909,-3.86222 0.50471,-22.71725 0.1467,-28.92593 -0.14465,-2.50852 -0.33278,-8.44973 -0.4181,-13.20271 -0.16285,-9.07576 -0.19347,-8.48432 1.09378,-21.12433 1.03282,-10.14143 1.31752,-14.77334 1.54926,-25.20516 0.13361,-6.01475 0.49042,-14.47313 0.74146,-17.57785 l 0.12087,-1.49452 -0.7917,-0.33081 c -0.43543,-0.18193 -1.69164,-1.01997 -2.79157,-1.8623 -2.36416,-1.81053 -3.23312,-3.24535 -3.65371,-6.03299 -0.29062,-1.92627 -0.33494,-7.72608 -0.085,-11.13459 l 0.16023,-2.18563 -0.98283,-0.15716 c -0.54055,-0.0864 -1.36237,-0.33816 -1.82629,-0.55939 l -0.84349,-0.40222 -3.6e-4,-12.73816 c -1.9e-4,-7.00599 -0.0694,-19.11146 -0.15382,-26.90106 -0.14857,-13.71134 0.0876,-26.68334 0.63375,-34.80714 0.12427,-1.84838 0.28635,-4.71096 0.36017,-6.3613 0.28018,-6.26307 0.64725,-10.83347 1.22423,-15.24312 0.32821,-2.50852 0.8088,-6.28929 1.06795,-8.40173 0.73184,-5.965629 1.16122,-8.741489 1.42973,-9.243229 0.47537,-0.88824 3.83102,-2.86389 13.44204,-7.91406 7.34183,-3.8578 9.44735,-5.04907 13.92286,-7.87728 6.30066,-3.98159 6.88398,-4.36723 7.26215,-4.80118 0.20071,-0.23028 0.49604,-1.44259 0.67286,-2.76194 0.26069,-1.94533 0.2604,-2.50507 -0.002,-3.24066 -0.44601,-1.25151 -1.16999,-2.20945 -1.66982,-2.20945 -0.23722,0 -0.94083,-0.66338 -1.59129,-1.5003 -0.94993,-1.22224 -1.29265,-1.94522 -1.8492,-3.9008 -0.89802,-3.1555 -1.14936,-6.54905 -0.55247,-7.46 0.48924,-0.74669 0.51812,-1.01587 0.82193,-7.6631 0.29694,-6.49696 0.68625,-7.88827 3.00311,-10.73245 1.23926,-1.52132 3.73139,-3.48896 4.67323,-3.68971 0.34845,-0.07427 1.65977,-0.51843 2.91403,-0.98703 l 2.28046,-0.85199 3.96082,0.13851 c 7.14177,0.24975 9.45539,1.1411 13.46335,5.18691 3.31926,3.35061 3.92125,4.50858 3.93234,7.56404 0.004,1.19432 -0.13676,3.63431 -0.31355,5.42222 -0.31802,3.21629 -0.31574,3.26038 0.21487,4.15968 0.51178,0.86744 0.52866,1.06426 0.36924,4.3108 -0.26232,5.34229 -1.13044,8.32288 -2.42409,8.32288 -0.64347,0 -0.88727,0.58976 -1.29005,3.12064 -0.46884,2.94586 -0.585,5.64481 -0.28241,6.56165 0.30877,0.93557 2.03976,2.63325 4.93411,4.83911 1.53855,1.17257 2.43998,1.56465 10.68219,4.64634 4.95101,1.85114 11.10621,4.32474 13.6782,5.49688 3.93875,1.79501 4.74645,2.25118 5.12078,2.8921 0.57533,0.98511 3.67336,11.769009 3.87593,13.491689 0.1531,1.30206 0.62579,4.76153 1.09878,8.04165 0.13325,0.92419 0.29401,2.11244 0.35722,2.64054 0.0632,0.52811 0.27824,2.09443 0.47786,3.48072 0.1996,1.38628 0.46908,3.27667 0.59888,4.20086 0.64201,4.57215 1.34903,18.76509 1.79962,36.12741 0.20046,7.72358 0.47235,17.82364 0.60421,22.4446 0.13185,4.62094 0.30997,12.42157 0.39578,17.33475 l 0.15604,8.93303 -0.69891,0.26979 c -0.38438,0.14839 -1.32672,0.22599 -2.09408,0.17244 -1.09403,-0.0763 -1.43673,-0.0161 -1.58765,0.27912 -0.10583,0.20706 -0.26335,1.59635 -0.35006,3.08731 -0.10634,1.82916 -0.31545,3.11738 -0.64295,3.96081 -0.26693,0.68749 -0.68824,2.3302 -0.93626,3.65047 -0.8269,4.40226 -0.89994,4.57975 -2.90551,7.06131 -2.53021,3.13068 -3.253,3.77818 -6.58535,5.89932 -1.58432,1.0085 -2.96446,1.91587 -3.06696,2.0164 -0.10252,0.1005 -0.0561,3.22976 0.1031,6.95388 0.35547,8.31416 -0.0564,30.68412 -0.64962,35.28194 -0.19864,1.53969 -0.52626,4.09571 -0.72803,5.68004 -0.56254,4.41714 -1.00993,7.42712 -1.53419,10.32212 -0.26302,1.45229 -0.64343,3.66675 -0.84536,4.921 -0.20196,1.25426 -0.52679,3.14464 -0.72188,4.20086 -0.19511,1.05622 -0.4589,2.8926 -0.58625,4.08084 -0.25289,2.3599 -0.79331,6.84306 -1.34554,11.16229 -0.41152,3.21862 -0.78167,10.05453 -1.01906,18.81914 l -0.16837,6.21656 -1.14023,0.33203 c -1.25779,0.36629 -1.25836,0.36706 -0.86135,1.11347 1.23964,2.33061 5.9216,6.45429 12.19176,10.73803 3.32556,2.27194 5.42916,3.94316 6.09157,4.83943 0.29185,0.39488 0.52374,1.17103 0.59055,1.97666 0.10298,1.24185 0.0619,1.37141 -0.64444,2.03123 -0.9185,0.85801 -4.08938,2.10352 -6.24247,2.452 -1.76918,0.28638 -5.82172,0.4694 -6.74472,0.30462 z M 545.6244,352.97267 c -2.0565,-0.65387 -2.5228,-0.71616 -4.7484,-0.63438 -1.5494,0.0569 -2.5932,-0.006 -2.8043,-0.17031 -0.1848,-0.14355 -0.4039,-0.85513 -0.4867,-1.58128 -0.2972,-2.60583 -0.5931,-4.16769 -0.8357,-4.41023 -0.1422,-0.14218 -0.2467,-1.49767 -0.2467,-3.19933 l 0,-2.95261 -0.8347,0 c -1.3322,0 -1.5951,-0.64524 -1.7345,-4.25719 -0.097,-2.51394 -0.2471,-3.47388 -0.8356,-5.34477 -0.8504,-2.70409 -0.8997,-3.82375 -0.2329,-5.29129 0.2725,-0.59972 0.5631,-1.51791 0.6458,-2.04042 0.1467,-0.9264 0.1048,-0.99772 -1.6905,-2.87039 l -1.841,-1.92039 0.1461,-3.96081 c 0.0804,-2.17845 0.2414,-4.61963 0.3578,-5.42483 0.1416,-0.98002 0.1165,-2.02378 -0.0761,-3.15722 -0.2383,-1.40335 -0.4398,-1.8617 -1.1768,-2.6775 -0.4891,-0.54139 -0.897,-1.01105 -0.9064,-1.04367 -0.0192,-0.0666 -0.1938,-1.6349 -0.9083,-8.16009 -0.2711,-2.475 -0.5527,-4.85149 -0.6258,-5.28108 -0.0733,-0.42957 -0.2355,-2.11693 -0.3605,-3.74964 -0.2173,-2.83791 -0.2687,-3.03869 -1.1676,-4.56094 -1.2905,-2.18526 -1.1418,-1.4785 -1.8253,-8.67379 -0.1958,-2.0614 -0.8339,-6.07599 -1.4308,-9.00184 -1.197,-5.86661 -1.4952,-7.75261 -2.6571,-16.80345 -0.6232,-4.85387 -1.043,-7.14842 -1.8887,-10.32212 -1.2002,-4.50401 -3.7597,-15.20447 -3.7655,-15.74216 -0.007,-0.64494 -0.4113,-1.05403 -0.7582,-0.7671 -0.3953,0.32702 -0.1407,10.28107 0.4162,16.26922 1.0187,10.95308 1.2912,14.36243 1.5256,19.0839 0.4377,8.81802 0.7566,13.52455 0.9841,14.52299 0.1203,0.52811 0.7519,2.90459 1.4036,5.28108 0.8785,3.20362 1.2825,5.23179 1.5624,7.84373 0.2076,1.93758 0.7698,6.09643 1.2492,9.24188 0.8361,5.48434 0.8666,5.90625 0.7432,10.27999 l -0.1287,4.56094 0.9692,3.00061 0.9691,3.00062 -0.1002,3.72076 c -0.0863,3.20768 -0.1707,3.85656 -0.612,4.70552 -0.2815,0.54162 -0.4689,1.18975 -0.4165,1.4403 0.0525,0.25056 0.2697,1.19308 0.4829,2.09454 0.3397,1.43742 0.3563,2.33798 0.135,7.32151 -0.1387,3.12537 -0.1823,5.94446 -0.0969,6.26463 0.1254,0.46978 -0.0109,0.7246 -0.7059,1.32027 l -0.8613,0.73813 -0.3603,4.60636 c -0.2782,3.55733 -0.4729,4.86116 -0.8552,5.72534 l -0.495,1.11898 -3.1264,-0.0842 c -2.7685,-0.0745 -3.1411,-0.0378 -3.2549,0.32112 -0.0707,0.2229 -0.5052,0.73601 -0.9656,1.14022 l -0.8371,0.73495 -6.31496,0 c -3.47325,0 -7.80249,-0.0714 -9.62055,-0.15854 l -3.30557,-0.15852 -0.45955,-0.74166 c -0.38305,-0.6182 -0.43334,-1.00142 -0.3021,-2.30198 0.24216,-2.40003 1.14311,-3.95109 3.38397,-5.82577 2.08981,-1.74836 5.37665,-5.06644 5.78538,-5.84043 0.16568,-0.31374 0.21234,-1.14503 0.12367,-2.20278 -0.12475,-1.48805 -0.20767,-1.71527 -0.66806,-1.83083 -1.57348,-0.39491 -1.9451,-5.22792 -0.93715,-12.18814 l 0.37112,-2.5628 -0.95228,-1.63807 c -0.52374,-0.90095 -1.47073,-3.09639 -2.10444,-4.87876 l -1.15216,-3.24066 0.0558,-3.97221 0.0558,-3.9722 -1.24172,-4.30951 c -1.18234,-4.10337 -1.2431,-4.45298 -1.27034,-7.31009 -0.0215,-2.2538 0.0753,-3.32512 0.38885,-4.30445 0.69718,-2.17741 0.5729,-3.14555 -0.64189,-5.00034 l -1.05936,-1.61745 -0.62701,-4.56093 c -0.34485,-2.50852 -0.8412,-6.07325 -1.10298,-7.92163 -0.26179,-1.84838 -0.68865,-5.30508 -0.94858,-7.68157 -0.2599,-2.37649 -0.74796,-5.77443 -1.08457,-7.55099 -0.87332,-4.60926 -2.97545,-13.18255 -3.47526,-14.17347 -0.23308,-0.46209 -0.93545,-3.27067 -1.56082,-6.24128 -1.08048,-5.13244 -2.25815,-10.3386 -2.78289,-12.30252 -0.19562,-0.73208 -0.35117,-0.90018 -0.833,-0.90018 -0.32584,0 -0.79672,0.24305 -1.0464,0.54011 -0.24964,0.29706 -0.70802,0.84157 -1.0186,1.21004 -0.45129,0.53538 -0.79567,0.68294 -1.71491,0.73476 -0.87683,0.0494 -1.30472,0.2192 -1.80037,0.71425 -2.11351,2.11099 -2.66363,2.42478 -4.42561,2.52434 -1.11146,0.0628 -2.19626,-0.0455 -3.21364,-0.32091 -1.40462,-0.38021 -1.68238,-0.57232 -3.25176,-2.24902 -2.71118,-2.89658 -2.59982,-2.56281 -2.60088,-7.79605 -8.4e-4,-4.22568 -0.0323,-4.54861 -0.48003,-4.92101 -0.472,-0.39263 -0.47997,-0.74306 -0.53662,-23.5633 -0.0653,-26.30391 -0.0104,-27.59297 2.0033,-47.04965 0.26646,-2.57452 0.6869,-7.27348 0.93432,-10.44213 0.24742,-3.16866 0.61124,-7.32751 0.80846,-9.2419 0.19725,-1.91439 0.42016,-4.29088 0.49539,-5.28108 0.89027,-11.71717 1.11649,-13.108299 2.42404,-14.906439 0.98495,-1.35449 6.09908,-5.91128 8.21108,-7.31623 1.08809,-0.72384 3.7373,-2.37482 5.88711,-3.66887 5.84954,-3.52102 7.32853,-4.54561 9.22785,-6.39276 l 1.73018,-1.68266 -0.20373,-2.61774 -0.20374,-2.61772 -1.20036,-1.10304 c -1.46703,-1.34805 -2.14393,-2.46816 -2.34149,-3.87468 -0.17698,-1.26009 -0.40117,-1.90932 -1.47603,-4.27437 -1.56625,-3.44632 -2.01618,-5.64609 -2.2333,-10.91941 -0.28477,-6.91567 0.17639,-9.12281 2.50546,-11.99126 0.5581,-0.68734 1.08401,-1.51976 1.16876,-1.84983 0.28602,-1.11439 1.06027,-2.07346 3.28205,-4.06552 2.62414,-2.35283 3.85802,-2.95247 7.15339,-3.47638 2.22636,-0.35395 2.75231,-0.3559 5.86903,-0.02166 4.63039,0.49656 5.6131,0.81048 6.96187,2.22387 0.59772,0.62636 1.37051,1.33375 1.71731,1.572 0.3468,0.23824 1.6212,1.75055 2.8322,3.36068 1.2109,1.61015 2.2905,2.98821 2.399,3.06239 0.5142,0.35118 1.3956,1.81911 1.3956,2.32419 0,0.31097 0.1795,0.91111 0.3989,1.33364 0.2194,0.42254 0.6551,2.05458 0.9682,3.62677 0.5522,2.77228 0.5578,2.9153 0.1856,4.74039 -0.4598,2.25422 -1.8177,6.37253 -2.3883,7.24339 -0.2875,0.43886 -0.4493,1.35369 -0.5444,3.07909 -0.1329,2.41302 -0.1502,2.47128 -1.0161,3.42895 -1.3842,1.53081 -1.6848,2.09072 -1.6848,3.13811 0,0.83596 0.1472,1.11767 1.0202,1.95354 2.9937,2.86607 4.8924,3.78901 14.3231,6.96248 8.8565,2.98027 18.2976,6.47355 19.2874,7.13653 1.3905,0.93143 2.2385,2.51383 2.6761,4.99424 0.925,5.24228 1.5294,7.38615 4.8353,17.150689 5.2752,15.58166 6.7515,20.29109 7.046,22.47745 0.1463,1.08596 0.4824,4.94508 0.7471,8.57583 0.2646,3.63074 0.5388,6.98028 0.6094,7.44342 0.2108,1.38297 -0.3469,12.543 -0.8396,16.80154 -0.252,2.17845 -0.6335,5.63516 -0.8478,7.68158 -0.9704,9.26887 -3.2494,26.00697 -3.5871,26.34464 -0.0728,0.0728 -0.3773,0.26005 -0.6767,0.41622 -0.2994,0.15616 -0.5223,0.39511 -0.4955,0.531 0.0977,0.49332 -0.4211,4.77483 -0.6707,5.53585 -0.1735,0.5289 -0.5906,0.97715 -1.292,1.38816 -1.0754,0.63024 -3.2472,2.78438 -3.2472,3.22083 0,0.1373 -0.3747,0.66441 -0.8327,1.17134 -0.5826,0.64484 -1.4839,1.20063 -3.0006,1.85024 l -2.1679,0.92853 6e-4,4.21169 c 0.002,13.18933 1.4809,32.66448 3.3654,44.30926 1.1521,7.11883 1.2245,7.42708 2.1328,9.08092 0.8714,1.58687 2.3985,6.16521 3.6054,10.80951 0.9516,3.66188 1.2723,9.31093 1.3231,23.30909 0.0397,10.95536 0.1124,13.40497 0.4693,15.81898 0.2323,1.57098 0.6086,5.39436 0.8363,8.49641 l 0.4139,5.64007 -1.0324,0.45667 c -0.9652,0.42695 -1.0324,0.51836 -1.0324,1.40508 0,0.87608 0.1693,1.11776 2.2205,3.16941 1.8024,1.80287 2.4816,2.69999 3.6074,4.76519 1.3583,2.49165 2.0385,4.77716 1.7202,5.77999 -0.2023,0.63749 -1.6853,1.37898 -4.0468,2.02335 -1.8993,0.51824 -2.8168,0.60869 -7.102,0.70015 l -4.921,0.10502 -2.2805,-0.72507 z M 82.08941,352.51526 c 0,-0.17157 -0.23256,-0.51364 -0.51682,-0.76017 -0.37376,-0.32416 -0.41821,-0.44824 -0.1606,-0.44824 0.40077,0 1.0858,1.11193 0.83783,1.35993 -0.08822,0.0882 -0.16041,0.02 -0.16041,-0.15152 z m 37.34309,-0.55862 c 0.0901,-0.23674 0.22437,-0.36997 0.29828,-0.29608 0.0739,0.0739 1.5e-4,0.26761 -0.1639,0.43046 -0.23707,0.2353 -0.26465,0.20773 -0.13438,-0.13438 z m -59.66766,-0.15553 c 0,-0.1398 0.10802,-0.25421 0.24005,-0.25421 0.13203,0 0.24005,0.0476 0.24005,0.10586 0,0.0582 -0.10802,0.17262 -0.24005,0.25421 -0.13203,0.0816 -0.24005,0.034 -0.24005,-0.10586 z m 41.9286,0.0658 c -0.088,-0.088 -0.16004,-2.0864 -0.16004,-4.44091 0,-3.86568 0.0437,-4.32453 0.45009,-4.73096 0.24757,-0.24754 0.59864,-0.50093 0.78016,-0.56305 0.22721,-0.0778 0.0122,-0.43252 -0.69014,-1.13846 -0.98118,-0.98627 -1.02021,-1.0827 -1.02021,-2.51989 0,-0.82193 -0.0706,-2.80762 -0.15692,-4.41269 l -0.15689,-2.91828 -0.89073,0 -0.89071,0 -1.83003,-4.8803 c -1.77553,-4.73497 -2.66488,-8.07647 -2.90352,-10.9091 -1.28894,-15.30004 -1.86182,-42.26595 -1.13836,-53.58482 0.73566,-11.51004 0.73134,-11.00471 0.10773,-12.60258 -3.87192,-9.92078 -5.28972,-13.37038 -8.87959,-21.60443 -4.16524,-9.55379 -5.02485,-11.27199 -6.18426,-12.3612 -1.12732,-1.05907 -1.18611,-0.6292 -0.84373,6.16892 0.41709,8.2814 0.19373,38.67593 -0.33926,46.16048 -0.32783,4.60387 -0.32897,5.88667 -0.01046,11.88243 0.19638,3.69676 0.4076,7.13287 0.46941,7.63579 0.06182,0.50293 0.28137,2.93343 0.48793,5.40111 0.38232,4.56746 0.49707,5.18139 1.91523,10.24787 2.01034,7.18203 4.19217,16.23606 4.34014,18.01041 0.17214,2.0639 -0.07891,4.54963 -0.90394,8.9506 l -0.50914,2.71604 -1.4546,1.41898 -1.45463,1.419 -0.09909,3.18079 c -0.06637,2.13001 -0.20704,3.34557 -0.42584,3.6795 -0.22769,0.3475 -0.26463,0.71531 -0.12183,1.21323 0.1127,0.39299 0.22588,1.84548 0.25153,3.22774 0.03792,2.04689 0.12737,2.60229 0.48196,2.99331 0.23945,0.26405 0.55953,0.72096 0.7113,1.01539 0.26376,0.51173 0.24134,0.52856 -0.51014,0.38232 -0.4323,-0.0841 -0.86537,-0.27096 -0.96237,-0.41523 -0.10771,-0.16021 -0.17778,-0.0968 -0.18005,0.16301 -0.0032,0.37635 -0.17658,0.40933 -1.50397,0.28628 -0.82517,-0.0765 -3.01262,-0.13053 -4.861,-0.12009 -1.84837,0.0104 -3.57673,0.0201 -3.84079,0.0214 -5.01073,0.0247 -6.34109,-0.0259 -6.47724,-0.24624 -0.24379,-0.39445 -0.60233,-0.0422 -0.42876,0.42119 0.13362,0.35667 0.10109,0.36898 -0.24069,0.0911 -0.25988,-0.2113 -0.65539,-0.26412 -1.15519,-0.15436 -0.45969,0.10097 -0.70447,0.0771 -0.61947,-0.0605 0.08135,-0.13164 -0.89171,-0.3396 -2.31045,-0.49376 -2.03113,-0.22073 -2.52296,-0.35522 -2.87108,-0.78506 -0.23105,-0.28529 -0.42009,-0.71561 -0.42009,-0.95625 0,-0.24068 -0.34608,-0.99429 -0.76905,-1.67474 -0.68658,-1.10448 -0.77027,-1.43443 -0.78015,-3.07656 l -0.01112,-1.83942 1.42995,-1.80037 c 0.78647,-0.99021 2.05427,-2.46464 2.81733,-3.27653 1.60188,-1.70435 1.72649,-1.97419 2.22334,-4.8146 0.4848,-2.7716 0.46728,-3.9266 -0.118,-7.77714 -0.73765,-4.85277 -1.04458,-5.75093 -2.53661,-7.42306 -0.70264,-0.78749 -1.4045,-1.66897 -1.55964,-1.95888 -0.42619,-0.79631 -0.71994,-7.89425 -0.64389,-15.55816 0.0647,-6.52209 -0.22317,-10.90227 -1.12878,-17.17528 -0.05812,-0.40254 -0.32815,-3.04908 -0.60006,-5.88121 -0.2719,-2.8321 -0.54817,-5.47336 -0.61395,-5.86944 -0.06574,-0.39608 -0.21894,-2.34048 -0.34043,-4.32089 -0.1434,-2.33726 -0.42784,-4.44305 -0.81065,-6.00123 -0.78985,-3.21512 -2.80812,-10.74188 -2.93575,-10.94838 -0.05605,-0.0907 -1.52391,-5.44201 -3.26191,-11.89179 l -3.16001,-11.72692 -0.03828,-4.56093 -0.03829,-4.56093 -3.26405,-0.15351 c -1.7952,-0.0845 -3.36716,-0.21727 -3.49321,-0.29519 -0.12606,-0.0779 -1.24229,-0.29668 -2.48048,-0.48617 -2.42416,-0.37097 -4.23678,-1.05413 -5.03542,-1.89778 -0.27493,-0.29042 -1.35124,-1.79758 -2.39181,-3.34925 -1.55577,-2.31995 -2.02661,-3.25468 -2.64989,-5.26093 -0.67922,-2.18624 -0.7454,-2.66004 -0.63707,-4.5603 l 0.12091,-2.12058 -1.03538,0 -1.03535,0 -0.13232,-1.02022 c -0.07276,-0.56111 -0.29929,-2.96461 -0.50341,-5.34109 -0.20411,-2.37648 -0.41518,-4.64495 -0.46908,-5.04104 -0.05387,-0.39607 -0.273,-2.34047 -0.48696,-4.32088 -0.21395,-1.98041 -0.42182,-3.87079 -0.46192,-4.20086 -0.31541,-2.5958 -0.40946,-3.81294 -0.6215,-8.04165 -0.13238,-2.64054 -0.30699,-5.79186 -0.38799,-7.00293 -0.20416,-3.05173 -0.24074,-13.21869 -0.05125,-14.24142 0.0856,-0.46209 0.33506,-2.4065 0.55435,-4.32089 0.21931,-1.91439 0.44503,-3.80478 0.50161,-4.20086 0.54056,-3.78361 1.06181,-18.01335 1.06684,-29.1249 0.0021,-4.63839 0.35691,-7.75435 1.90434,-16.724489 0.69444,-4.02544 0.71549,-4.09084 1.551,-4.81755 1.19598,-1.04024 4.72026,-2.94202 8.78916,-4.74283 9.84992,-4.35935 20.96051,-9.92211 22.03578,-11.03268 0.76487,-0.78999 0.79293,-0.88904 0.83717,-2.9548 0.04254,-1.98714 -0.0089,-2.24242 -0.7315,-3.63104 -0.93756,-1.80174 -2.21736,-5.24053 -2.21736,-5.95802 0,-1.1535 -0.48459,-1.97118 -1.26011,-2.12628 -0.41361,-0.08273 -1.08505,-0.51398 -1.49208,-0.95835 -0.96958,-1.05856 -1.81813,-4.46185 -1.81261,-7.26995 0.0035,-1.76962 0.0592,-2.0065 0.56549,-2.40474 0.52508,-0.41305 0.57258,-0.66363 0.73054,-3.85477 0.35575,-7.18736 0.82222,-9.28423 2.69059,-12.09467 1.92414,-2.89431 2.3545,-3.26809 5.4891,-4.76727 4.6349,-2.21674 4.78297,-2.25593 7.88114,-2.08589 6.48667,0.35599 11.37019,2.08238 14.4419,5.10542 1.40201,1.37979 2.10577,2.694 3.23138,6.0345 0.73496,2.18116 0.74526,2.27745 0.70785,6.62175 -0.03787,4.40081 -0.03684,4.41001 0.59775,5.34392 0.71571,1.05324 0.77714,1.84263 0.39923,5.12979 -0.21288,1.85174 -0.33098,2.16743 -1.37846,3.68477 -1.74696,2.53059 -2.00062,3.12065 -2.21078,5.14292 -0.10687,1.02832 -0.38226,2.5065 -0.61199,3.28487 -0.63584,2.15453 -0.41948,3.43629 0.90802,5.37915 2.00568,2.93541 2.84957,3.41796 8.09061,4.62634 1.65034,0.38049 7.96964,2.0364 14.04289,3.67979 10.34599,2.79958 11.08012,3.03363 11.64238,3.71176 0.76302,0.92021 2.74218,5.449 4.21003,9.63358 1.07374,3.06096 1.15435,3.46696 1.45367,7.321499 0.29756,3.83218 0.57578,5.70181 1.76815,11.88244 0.53488,2.77247 2.08971,11.96394 2.88309,17.0435 0.27839,1.78236 0.77971,4.66413 1.11404,6.40392 0.59969,3.12061 0.60663,3.29216 0.51407,12.72261 l -0.0938,9.55934 -2.32389,13.64974 c -1.27812,7.50734 -2.32387,13.68622 -2.32387,13.73082 0,0.0446 -0.60805,0.11352 -1.35122,0.15311 l -1.35121,0.072 0.002,1.32027 c 0.001,0.72615 0.0797,2.77857 0.17468,4.56093 0.16974,3.18566 -0.15219,7.01565 -0.84737,10.08207 -0.25363,1.11867 0.19984,4.09473 3.10898,20.40418 0.52985,2.97061 1.1312,6.37331 1.3363,7.56155 0.2051,1.18825 0.53464,3.02462 0.73231,4.08084 0.35663,1.90546 0.63791,4.31294 1.55661,13.32273 0.26251,2.57453 0.59825,5.59915 0.74607,6.72138 0.40184,3.05047 0.59482,56.92584 0.21556,60.1746 -0.19679,1.6856 -0.57609,3.24416 -1.22374,5.02831 -0.68863,1.89706 -0.93857,2.95846 -0.93857,3.98587 0,0.77017 -0.28648,2.54364 -0.63663,3.941 -0.60289,2.40598 -0.67802,2.55802 -1.41653,2.86658 -0.73806,0.3084 -0.76951,0.37186 -0.58643,1.18371 0.10642,0.47182 0.48138,1.44627 0.83324,2.16544 0.6037,1.23392 1.19778,1.85109 4.99727,5.19154 1.18057,1.0379 2.09016,3.44468 2.09016,5.5305 0,1.43746 -0.0227,1.48839 -1.10608,2.48306 -0.73807,0.67761 -1.40898,1.06393 -2.01645,1.16107 -1.86622,0.29841 -3.44797,1.09073 -4.15451,2.08106 -0.37164,0.52091 -0.86315,0.94709 -1.09223,0.94709 -0.2291,0 -0.54615,0.12963 -0.70459,0.28806 -0.22404,0.22404 -0.28806,0.19737 -0.28806,-0.12003 0,-0.47794 -0.26662,-0.52553 -0.67213,-0.12002 -0.21729,0.21731 -0.28807,0.21876 -0.28807,0.006 0,-0.2057 -0.17158,-0.21688 -0.63341,-0.0413 -0.34836,0.13246 -0.69043,0.1838 -0.76014,0.1141 -0.0697,-0.0697 0.0173,-0.12675 0.19331,-0.12675 0.17605,0 0.26305,-0.057 0.19333,-0.12674 -0.0697,-0.0697 -0.41178,-0.0184 -0.76016,0.11409 -0.47068,0.17895 -0.63435,0.16525 -0.63709,-0.0533 -0.002,-0.18884 -0.0883,-0.16525 -0.24005,0.066 -0.14826,0.22582 -0.30349,0.27058 -0.41641,0.12003 -0.24557,-0.32744 -2.78126,-0.37784 -2.97819,-0.0592 -0.10993,0.17785 -0.3821,0.16307 -0.89304,-0.0486 -0.54133,-0.22423 -0.92517,-0.23808 -1.45717,-0.0526 -0.47299,0.16489 -0.77286,0.16986 -0.86893,0.0144 -0.0962,-0.15567 -0.24751,-0.1537 -0.43958,0.006 -0.31734,0.26335 -2.25799,0.22597 -2.70808,-0.0522 -0.15217,-0.094 -0.5345,-0.073 -0.84959,0.0468 -0.34872,0.13258 -0.73107,0.12927 -0.97717,-0.008 -0.257,-0.14384 -0.56879,-0.13817 -0.85597,0.0155 -0.24844,0.13297 -0.5347,0.16456 -0.63613,0.0702 -0.10142,-0.0944 -0.1306,0.12547 -0.0649,0.48855 0.12764,0.70469 0.11561,0.74963 -0.13392,0.50009 z m 9.63562,-2.60688 c -0.0739,-0.0739 -0.20814,0.0593 -0.29828,0.29608 -0.13027,0.34211 -0.1027,0.36967 0.13438,0.13438 0.16405,-0.16285 0.23781,-0.35655 0.1639,-0.43046 z"
         style="fill:#ffffff"
         inkscape:connector-curvature="0" />
    </g>
    <text
       xml:space="preserve"
       style="font-size:40px;font-style:normal;font-variant:normal;font-weight:normal;font-stretch:normal;line-height:125%;letter-spacing:0px;word-spacing:0px;fill:#000000;fill-opacity:1;stroke:none;font-family:Verdana;-inkscape-font-specification:Verdana"
       x="102.85716"
       y="658.07648"
       id="text3000"
       sodipodi:linespacing="125%"><tspan
         sodipodi:role="line"
         x="102.85716"
         y="658.07648"
         style="font-size:72px;font-style:normal;font-variant:normal;font-weight:bold;font-stretch:normal;fill:#ffffff;font-family:Arial;-inkscape-font-specification:Arial Bold"
         id="tspan3008">WE'RE IN THIS</tspan><tspan
         sodipodi:role="line"
         x="102.85716"
         y="748.07648"
         style="font-size:72px;font-style:normal;font-variant:normal;font-weight:bold;font-stretch:normal;fill:#ffffff;font-family:Arial;-inkscape-font-specification:Arial Bold"
         id="tspan3001">TOGETHER</tspan></text>
  </g>
</svg>
