<?xml version="1.0" encoding="UTF-8" standalone="no"?>
<!-- Created with Inkscape (http://www.inkscape.org/) -->

<svg
   xmlns:dc="http://purl.org/dc/elements/1.1/"
   xmlns:cc="http://creativecommons.org/ns#"
   xmlns:rdf="http://www.w3.org/1999/02/22-rdf-syntax-ns#"
   xmlns:svg="http://www.w3.org/2000/svg"
   xmlns="http://www.w3.org/2000/svg"
   xmlns:xlink="http://www.w3.org/1999/xlink"
   xmlns:sodipodi="http://sodipodi.sourceforge.net/DTD/sodipodi-0.dtd"
   xmlns:inkscape="http://www.inkscape.org/namespaces/inkscape"
   width="744.09448819"
   height="1052.3622047"
   id="svg2"
   version="1.1"
   inkscape:version="0.48.2 r9819"
   sodipodi:docname="1.2 TeamBobsled.svg">
  <defs
     id="defs4" />
  <sodipodi:namedview
     id="base"
     pagecolor="#ffffff"
     bordercolor="#666666"
     borderopacity="1.0"
     inkscape:pageopacity="0.0"
     inkscape:pageshadow="2"
     inkscape:zoom="5.7444444"
     inkscape:cx="737.85714"
     inkscape:cy="1067.1429"
     inkscape:document-units="px"
     inkscape:current-layer="layer1"
     showgrid="false"
     inkscape:window-width="1366"
     inkscape:window-height="706"
     inkscape:window-x="-8"
     inkscape:window-y="-8"
     inkscape:window-maximized="1" />
  <metadata
     id="metadata7">
    <rdf:RDF>
      <cc:Work
         rdf:about="">
        <dc:format>image/svg+xml</dc:format>
        <dc:type
           rdf:resource="http://purl.org/dc/dcmitype/StillImage" />
        <dc:title />
      </cc:Work>
    </rdf:RDF>
  </metadata>
  <g
     inkscape:label="Layer 1"
     inkscape:groupmode="layer"
     id="layer1">
    <rect
       style="fill:#ffff00;fill-opacity:1;stroke:none"
       id="rect3067"
       width="747.16083"
       height="1052.1249"
       x="-2.8571429"
       y="0.23728627" />
    <g
       id="g2986"
       transform="matrix(2.3537885,0,0,2.3537885,-6.0611715,387.59517)">
      <defs
         id="defs2988">
        <rect
           height="300"
           width="300"
           id="SVGID_1_"
           x="0"
           y="0" />
      </defs>
      <clipPath
         id="SVGID_2_">
        <use
           id="use2992"
           overflow="visible"
           xlink:href="#SVGID_1_"
           style="overflow:visible"
           x="0"
           y="0"
           width="1"
           height="1" />
      </clipPath>
      <g
         clip-path="url(#SVGID_2_)"
         id="surface0">
        <path
           id="path2995"
           d="m 27.692,64.949 c 5.85,-0.779 11.92,1.203 16.495,4.855 4.838,3.94 7.373,10.092 7.961,16.193 -0.304,6.43 -3.021,12.967 -8.114,17.067 -5.543,4.419 -13.327,6.143 -20.106,3.812 C 13.956,104.005 7.213,93.007 9.095,82.822 10.661,73.656 18.436,66.096 27.692,64.949 z"
           stroke-miterlimit="10"
           inkscape:connector-curvature="0"
           style="fill:none;stroke:#000000;stroke-width:0.1;stroke-miterlimit:10" />
        <path
           id="path2997"
           d="m 27.692,64.949 c 5.85,-0.779 11.92,1.203 16.495,4.855 4.838,3.94 7.373,10.092 7.961,16.193 -0.304,6.43 -3.021,12.967 -8.114,17.067 -5.543,4.419 -13.327,6.143 -20.106,3.812 C 13.956,104.005 7.213,93.007 9.095,82.822 10.661,73.656 18.436,66.096 27.692,64.949 z"
           inkscape:connector-curvature="0" />
        <path
           id="path2999"
           d="m 73.646,74.952 c 5.609,-0.764 11.414,1.039 15.93,4.37 5.23,3.914 7.989,10.363 8.577,16.739 -0.338,6.417 -3.044,12.939 -8.142,17.02 -5.536,4.408 -13.306,6.12 -20.073,3.799 -9.96,-2.864 -16.699,-13.828 -14.855,-24.004 1.549,-9.173 9.305,-16.753 18.563,-17.924 z"
           stroke-miterlimit="10"
           inkscape:connector-curvature="0"
           style="fill:none;stroke:#000000;stroke-width:0.1;stroke-miterlimit:10" />
        <path
           id="path3001"
           d="m 73.646,74.952 c 5.609,-0.764 11.414,1.039 15.93,4.37 5.23,3.914 7.989,10.363 8.577,16.739 -0.338,6.417 -3.044,12.939 -8.142,17.02 -5.536,4.408 -13.306,6.12 -20.073,3.799 -9.96,-2.864 -16.699,-13.828 -14.855,-24.004 1.549,-9.173 9.305,-16.753 18.563,-17.924 z"
           inkscape:connector-curvature="0" />
        <path
           id="path3003"
           d="m 119.729,84.939 c 8.185,-0.991 16.964,3.091 21.072,10.33 3.052,5.259 4.379,11.798 2.065,17.598 -3.005,10.717 -15.328,17.424 -25.972,14.305 -11.01,-2.61 -18.551,-15.091 -15.393,-26.015 2.061,-8.483 9.576,-15.116 18.228,-16.218 z"
           stroke-miterlimit="10"
           inkscape:connector-curvature="0"
           style="fill:none;stroke:#000000;stroke-width:0.1;stroke-miterlimit:10" />
        <path
           id="path3005"
           d="m 119.729,84.939 c 8.185,-0.991 16.964,3.091 21.072,10.33 3.052,5.259 4.379,11.798 2.065,17.598 -3.005,10.717 -15.328,17.424 -25.972,14.305 -11.01,-2.61 -18.551,-15.091 -15.393,-26.015 2.061,-8.483 9.576,-15.116 18.228,-16.218 z"
           inkscape:connector-curvature="0" />
        <path
           id="path3007"
           d="m 165.682,93.946 c 5.842,-0.771 11.905,1.193 16.48,4.838 4.852,3.937 7.394,10.096 7.985,16.203 -0.29,8.112 -4.783,16.378 -12.407,19.744 -6.67,3.355 -14.978,2.729 -21.185,-1.364 -7.709,-5.076 -11.859,-15.495 -8.722,-24.356 2.396,-7.955 9.627,-13.979 17.849,-15.065 z"
           stroke-miterlimit="10"
           inkscape:connector-curvature="0"
           style="fill:none;stroke:#000000;stroke-width:0.1;stroke-miterlimit:10" />
        <path
           id="path3009"
           d="m 165.682,93.946 c 5.842,-0.771 11.905,1.193 16.48,4.838 4.852,3.937 7.394,10.096 7.985,16.203 -0.29,8.112 -4.783,16.378 -12.407,19.744 -6.67,3.355 -14.978,2.729 -21.185,-1.364 -7.709,-5.076 -11.859,-15.495 -8.722,-24.356 2.396,-7.955 9.627,-13.979 17.849,-15.065 z"
           inkscape:connector-curvature="0" />
        <path
           id="path3011"
           d="m 0,103.75 c 61.301,12.98 122.646,25.766 183.962,38.68 28.593,5.055 56.647,16.613 78.44,36.145 6.852,6.408 12.375,14.227 16.363,22.707 1.822,4.85 2.279,10.176 1.506,15.294 -8.166,3.999 -17.586,3.537 -26.41,3.001 -24.006,-4.379 -47.846,-9.693 -71.92,-13.719 -4.459,-0.752 -8.533,-2.914 -13.025,-3.563 C 112.599,190.639 56.399,178.389 0,167.156 v -6.906 c 5.856,1.686 11.916,2.46 17.854,3.791 4.012,0.825 8.966,1.721 11.97,-1.822 -1.491,-2.156 -3.258,-4.168 -5.595,-5.428 C 16.866,152.432 8.303,150.818 0,149.251 v -6.233 c 11.448,1.782 23.665,4.408 32.504,12.422 3.652,3.094 3.597,8.477 0.959,12.196 45.779,9.545 91.528,19.232 137.302,28.798 2.79,-2.592 5.881,-5.12 9.822,-5.538 12.018,-1.661 24.221,-1.763 36.328,-1.304 12.654,1.191 25.416,2.697 37.531,6.723 5.504,2.093 11.122,4.74 15.054,9.26 1.912,2.078 1.923,4.988 1.979,7.639 1.074,-0.33 2.154,-0.656 3.236,-0.98 0.061,-8.705 -5.586,-15.732 -10.394,-22.441 -5.382,-6.719 -12.13,-12.27 -19.349,-16.916 -13.709,-9.389 -29.15,-16.034 -45.131,-20.453 -28.075,-6.667 -56.441,-12.1 -84.656,-18.175 C 76.795,126.16 38.386,118.153 0,110.036 v -6.286 z"
           stroke-miterlimit="10"
           inkscape:connector-curvature="0"
           style="fill:none;stroke:#000000;stroke-width:0.1;stroke-miterlimit:10" />
        <path
           id="path3013"
           d="m 0,103.75 c 61.301,12.98 122.646,25.766 183.962,38.68 28.593,5.055 56.647,16.613 78.44,36.145 6.852,6.408 12.375,14.227 16.363,22.707 1.822,4.85 2.279,10.176 1.506,15.294 -8.166,3.999 -17.586,3.537 -26.41,3.001 -24.006,-4.379 -47.846,-9.693 -71.92,-13.719 -4.459,-0.752 -8.533,-2.914 -13.025,-3.563 C 112.599,190.639 56.399,178.389 0,167.156 v -6.906 c 5.856,1.686 11.916,2.46 17.854,3.791 4.012,0.825 8.966,1.721 11.97,-1.822 -1.491,-2.156 -3.258,-4.168 -5.595,-5.428 C 16.866,152.432 8.303,150.818 0,149.251 v -6.233 c 11.448,1.782 23.665,4.408 32.504,12.422 3.652,3.094 3.597,8.477 0.959,12.196 45.779,9.545 91.528,19.232 137.302,28.798 2.79,-2.592 5.881,-5.12 9.822,-5.538 12.018,-1.661 24.221,-1.763 36.328,-1.304 12.654,1.191 25.416,2.697 37.531,6.723 5.504,2.093 11.122,4.74 15.054,9.26 1.912,2.078 1.923,4.988 1.979,7.639 1.074,-0.33 2.154,-0.656 3.236,-0.98 0.061,-8.705 -5.586,-15.732 -10.394,-22.441 -5.382,-6.719 -12.13,-12.27 -19.349,-16.916 -13.709,-9.389 -29.15,-16.034 -45.131,-20.453 -28.075,-6.667 -56.441,-12.1 -84.656,-18.175 C 76.795,126.16 38.386,118.153 0,110.036 v -6.286 z"
           inkscape:connector-curvature="0" />
        <path
           id="path3015"
           d="m 0,110.036 c 38.386,8.118 76.795,16.125 115.188,24.211 28.215,6.075 56.581,11.507 84.656,18.175 15.98,4.419 31.422,11.064 45.131,20.453 7.219,4.646 13.967,10.197 19.349,16.916 4.808,6.709 10.454,13.736 10.394,22.441 -1.082,0.324 -2.162,0.65 -3.236,0.98 -0.057,-2.65 -0.067,-5.561 -1.979,-7.639 -3.932,-4.52 -9.55,-7.167 -15.054,-9.26 -12.115,-4.025 -24.877,-5.531 -37.531,-6.723 -12.107,-0.459 -24.311,-0.357 -36.328,1.304 -3.941,0.418 -7.032,2.946 -9.822,5.538 -45.774,-9.565 -91.523,-19.253 -137.302,-28.798 2.637,-3.72 2.692,-9.103 -0.959,-12.196 C 23.665,147.426 11.448,144.8 0,143.018 v -32.982 z"
           stroke-miterlimit="10"
           inkscape:connector-curvature="0"
           style="fill:none;stroke:#ffffff;stroke-width:0.1;stroke-miterlimit:10" />
        <path
           id="path3017"
           d="m 0,110.036 c 38.386,8.118 76.795,16.125 115.188,24.211 28.215,6.075 56.581,11.507 84.656,18.175 15.98,4.419 31.422,11.064 45.131,20.453 7.219,4.646 13.967,10.197 19.349,16.916 4.808,6.709 10.454,13.736 10.394,22.441 -1.082,0.324 -2.162,0.65 -3.236,0.98 -0.057,-2.65 -0.067,-5.561 -1.979,-7.639 -3.932,-4.52 -9.55,-7.167 -15.054,-9.26 -12.115,-4.025 -24.877,-5.531 -37.531,-6.723 -12.107,-0.459 -24.311,-0.357 -36.328,1.304 -3.941,0.418 -7.032,2.946 -9.822,5.538 -45.774,-9.565 -91.523,-19.253 -137.302,-28.798 2.637,-3.72 2.692,-9.103 -0.959,-12.196 C 23.665,147.426 11.448,144.8 0,143.018 v -32.982 z"
           inkscape:connector-curvature="0"
           style="fill:#ffffff" />
        <path
           id="path3019"
           d="m 0,149.251 c 8.302,1.567 16.865,3.181 24.229,7.54 2.336,1.26 4.104,3.271 5.595,5.428 -3.004,3.543 -7.958,2.647 -11.97,1.822 C 11.916,162.71 5.856,161.936 0,160.25 v -10.999 z"
           stroke-miterlimit="10"
           inkscape:connector-curvature="0"
           style="fill:none;stroke:#ffffff;stroke-width:0.1;stroke-miterlimit:10" />
        <path
           id="path3021"
           d="m 0,149.251 c 8.302,1.567 16.865,3.181 24.229,7.54 2.336,1.26 4.104,3.271 5.595,5.428 -3.004,3.543 -7.958,2.647 -11.97,1.822 C 11.916,162.71 5.856,161.936 0,160.25 v -10.999 z"
           inkscape:connector-curvature="0"
           style="fill:#ffffff" />
        <path
           id="path3023"
           d="m 0,171.389 c 10.359,2.237 20.833,3.918 31.21,6.077 -0.517,1.961 -0.998,3.935 -1.559,5.887 C 19.772,181.424 9.849,179.71 0,177.641 v -6.252 z"
           stroke-miterlimit="10"
           inkscape:connector-curvature="0"
           style="fill:none;stroke:#000000;stroke-width:0.1;stroke-miterlimit:10" />
        <path
           id="path3025"
           d="m 0,171.389 c 10.359,2.237 20.833,3.918 31.21,6.077 -0.517,1.961 -0.998,3.935 -1.559,5.887 C 19.772,181.424 9.849,179.71 0,177.641 v -6.252 z"
           inkscape:connector-curvature="0" />
        <path
           id="path3027"
           d="m 178.232,197.847 c 8.071,-2.043 16.455,-2.147 24.729,-2.442 6.4,-0.109 12.84,-0.029 19.178,0.988 11.97,1.497 24.244,2.854 35.35,7.884 3.282,1.813 7.406,3.665 7.975,7.856 -1.459,0.395 -2.859,1.287 -4.419,1.091 -6.095,-0.352 -12.083,-1.555 -18.089,-2.563 -21.616,-4.06 -43.175,-8.42 -64.724,-12.814 z"
           stroke-miterlimit="10"
           inkscape:connector-curvature="0"
           style="fill:none;stroke:#ffffff;stroke-width:0.1;stroke-miterlimit:10" />
        <path
           id="path3029"
           d="m 178.232,197.847 c 8.071,-2.043 16.455,-2.147 24.729,-2.442 6.4,-0.109 12.84,-0.029 19.178,0.988 11.97,1.497 24.244,2.854 35.35,7.884 3.282,1.813 7.406,3.665 7.975,7.856 -1.459,0.395 -2.859,1.287 -4.419,1.091 -6.095,-0.352 -12.083,-1.555 -18.089,-2.563 -21.616,-4.06 -43.175,-8.42 -64.724,-12.814 z"
           inkscape:connector-curvature="0"
           style="fill:#ffffff" />
        <path
           id="path3031"
           d="m 169.888,207.361 c 31.738,6.367 63.497,12.633 95.218,19.088 -0.428,1.992 -0.848,3.996 -1.508,5.931 -31.654,-6.43 -63.35,-12.667 -95.014,-19.054 0.467,-1.982 0.887,-3.976 1.304,-5.965 z"
           stroke-miterlimit="10"
           inkscape:connector-curvature="0"
           style="fill:none;stroke:#000000;stroke-width:0.1;stroke-miterlimit:10" />
        <path
           id="path3033"
           d="m 169.888,207.361 c 31.738,6.367 63.497,12.633 95.218,19.088 -0.428,1.992 -0.848,3.996 -1.508,5.931 -31.654,-6.43 -63.35,-12.667 -95.014,-19.054 0.467,-1.982 0.887,-3.976 1.304,-5.965 z"
           inkscape:connector-curvature="0" />
      </g>
    </g>
    <text
       xml:space="preserve"
       style="font-size:40px;font-style:normal;font-variant:normal;font-weight:normal;font-stretch:normal;line-height:125%;letter-spacing:0px;word-spacing:0px;fill:#000000;fill-opacity:1;stroke:none;font-family:Verdana;-inkscape-font-specification:Verdana"
       x="725.27344"
       y="123.79076"
       id="text3069"
       sodipodi:linespacing="125%"><tspan
         sodipodi:role="line"
         id="tspan3071"
         x="725.27344"
         y="123.79076"
         style="font-size:64px;font-style:normal;font-variant:normal;font-weight:bold;font-stretch:normal;text-align:end;text-anchor:end;font-family:Arial;-inkscape-font-specification:Arial Bold">FEEL THE RHYTHM</tspan><tspan
         sodipodi:role="line"
         x="725.27344"
         y="213.79076"
         id="tspan3073"
         style="font-size:64px;font-style:normal;font-variant:normal;font-weight:bold;font-stretch:normal;text-align:end;text-anchor:end;font-family:Arial;-inkscape-font-specification:Arial Bold">FEEL THE RHYME</tspan><tspan
         sodipodi:role="line"
         x="725.27344"
         y="303.79074"
         id="tspan3075"
         style="font-size:64px;font-style:normal;font-variant:normal;font-weight:bold;font-stretch:normal;text-align:end;text-anchor:end;font-family:Arial;-inkscape-font-specification:Arial Bold">GET ON UP</tspan><tspan
         sodipodi:role="line"
         x="725.27344"
         y="393.79074"
         id="tspan3077"
         style="font-size:64px;font-style:normal;font-variant:normal;font-weight:bold;font-stretch:normal;text-align:end;text-anchor:end;font-family:Arial;-inkscape-font-specification:Arial Bold">ITS BOBSLED TIME</tspan></text>
  </g>
</svg>
