<?xml version="1.0" encoding="UTF-8" standalone="no"?>
<!-- Created with Inkscape (http://www.inkscape.org/) -->

<svg
   xmlns:dc="http://purl.org/dc/elements/1.1/"
   xmlns:cc="http://creativecommons.org/ns#"
   xmlns:rdf="http://www.w3.org/1999/02/22-rdf-syntax-ns#"
   xmlns:svg="http://www.w3.org/2000/svg"
   xmlns="http://www.w3.org/2000/svg"
   xmlns:sodipodi="http://sodipodi.sourceforge.net/DTD/sodipodi-0.dtd"
   xmlns:inkscape="http://www.inkscape.org/namespaces/inkscape"
   width="744.09448819"
   height="1052.3622047"
   id="svg2"
   version="1.1"
   inkscape:version="0.48.2 r9819"
   sodipodi:docname="2.3 NeverGiveUp.svg">
  <defs
     id="defs4" />
  <sodipodi:namedview
     id="base"
     pagecolor="#ffffff"
     bordercolor="#666666"
     borderopacity="1.0"
     inkscape:pageopacity="0.0"
     inkscape:pageshadow="2"
     inkscape:zoom="0.35"
     inkscape:cx="280.71429"
     inkscape:cy="385.71429"
     inkscape:document-units="px"
     inkscape:current-layer="layer1"
     showgrid="false"
     inkscape:window-width="1366"
     inkscape:window-height="706"
     inkscape:window-x="-8"
     inkscape:window-y="-8"
     inkscape:window-maximized="1" />
  <metadata
     id="metadata7">
    <rdf:RDF>
      <cc:Work
         rdf:about="">
        <dc:format>image/svg+xml</dc:format>
        <dc:type
           rdf:resource="http://purl.org/dc/dcmitype/StillImage" />
        <dc:title />
      </cc:Work>
    </rdf:RDF>
  </metadata>
  <g
     inkscape:label="Layer 1"
     inkscape:groupmode="layer"
     id="layer1">
    <rect
       style="fill:#ff0000;fill-opacity:1;stroke:none"
       id="rect3067"
       width="748.57141"
       height="1054.2858"
       x="-2.8571429"
       y="-1.9235317" />
    <text
       xml:space="preserve"
       style="font-size:40px;font-style:normal;font-variant:normal;font-weight:normal;font-stretch:normal;text-align:center;line-height:125%;letter-spacing:0px;word-spacing:0px;text-anchor:middle;fill:#000000;fill-opacity:1;stroke:none;font-family:Verdana;-inkscape-font-specification:Verdana"
       x="715"
       y="175.21933"
       id="text3039"
       sodipodi:linespacing="125%"><tspan
         sodipodi:role="line"
         x="715"
         y="175.21933"
         style="font-size:64px;font-style:normal;font-variant:normal;font-weight:bold;font-stretch:normal;text-align:end;text-anchor:end;fill:#ffffff;font-family:Arial;-inkscape-font-specification:Arial Bold"
         id="tspan3056">WHAT</tspan><tspan
         sodipodi:role="line"
         x="715"
         y="255.21931"
         style="font-size:64px;font-style:normal;font-variant:normal;font-weight:bold;font-stretch:normal;text-align:end;text-anchor:end;fill:#ffffff;font-family:Arial;-inkscape-font-specification:Arial Bold"
         id="tspan3018">WOULD</tspan><tspan
         sodipodi:role="line"
         x="715"
         y="335.21933"
         style="font-size:64px;font-style:normal;font-variant:normal;font-weight:bold;font-stretch:normal;text-align:end;text-anchor:end;fill:#ffffff;font-family:Arial;-inkscape-font-specification:Arial Bold"
         id="tspan3016">RICK DO?</tspan></text>
    <g
       id="layer1-1"
       transform="matrix(0.87111094,0,0,0.87111094,-151.40181,354.61831)"
       style="fill:#ffffff">
      <path
         style="fill:#ffffff;fill-opacity:1"
         id="path4728"
         d="m 438.05452,-360.08127 c -0.22879,0.003 -0.45704,0.0121 -0.6917,0.0247 -2.25286,0.12109 -4.79697,0.7101 -8.03493,1.70456 -6.39958,1.96528 -15.76171,2.38802 -20.06571,0.92021 -0.60084,-0.20487 -3.42026,0.57935 -6.25008,1.72927 -2.82965,1.14976 -6.10881,2.07874 -7.29999,2.07512 -1.52251,-0.005 -3.17733,1.12369 -5.53983,3.81059 -3.36135,3.82259 -3.34028,3.83109 -7.82496,2.96446 -3.90167,-0.75397 -5.0216,-0.64003 -8.59075,0.8955 -0.95598,0.41121 -1.91072,0.89098 -2.74832,1.35872 -0.81175,0.18928 -1.61935,0.39596 -2.40244,0.667 -1.76929,1.13622 -2.73187,3.15423 -3.78587,4.90371 -0.34521,0.61468 -0.76022,1.18225 -1.20431,1.73546 -0.53545,0.15875 -1.39298,0.56157 -2.53833,1.25989 -1.55427,0.94757 -3.97384,1.73369 -5.38544,1.73544 -1.8304,0.002 -3.38839,0.85288 -5.43485,2.96446 -0.87265,0.90028 -1.77149,1.63214 -2.69273,2.19248 -0.18241,-0.0668 -0.37243,-0.11793 -0.57434,-0.1297 -2.67232,-0.44778 -5.8035,0.23127 -7.405,2.55068 -1.76043,0.51272 -3.16334,1.73678 -4.20583,3.21151 -3.00486,1.97664 -8.08703,6.02521 -8.49195,7.01589 -0.15404,0.37689 -1.51753,0.67936 -3.02005,0.67936 -3.54736,0 -7.25872,4.11607 -14.78526,16.391 -6.04585,9.86023 -7.28868,12.41866 -8.35608,17.22477 -0.56428,2.542 -1.36275,5.99311 -1.78485,7.66437 -0.42194,1.67125 -0.78451,5.92037 -0.78435,9.43069 1e-5,5.12898 -0.29169,6.67255 -1.55016,7.88053 -0.86151,0.8269 -3.302,4.51659 -5.41015,8.21404 -4.35251,7.63401 -4.40108,8.14761 -3.67471,32.77586 0.32321,10.95979 0.66102,13.40972 2.6001,18.77493 1.87132,5.1777 2.14987,6.9809 1.67986,11.13526 -0.32244,2.85008 -0.2104,5.9379 0.29026,7.27529 3.27773,8.75694 3.80805,11.88966 3.88469,22.90047 0.0788,11.34451 0.0951,11.34103 4.57021,20.16454 4.47494,8.82353 4.48166,8.83401 3.90937,18.09558 -0.57218,9.26148 -0.58611,9.2629 6.38595,22.690499 3.8348,7.385109 7.97951,16.262214 9.18985,19.744569 1.43335,4.12341 3.7504,8.37283 6.67003,12.185169 6.72679,8.783902 7.65083,9.62917 11.15998,10.190342 1.77672,0.284115 3.54295,1.142801 3.94027,1.889846 0.55605,1.045467 0.6128,14.398753 0.10499,25.025009 -0.0259,0.542102 -2.04086,2.24815 -4.48993,3.785857 -2.44923,1.537746 -7.35262,5.99622 -10.87588,9.924786 -3.52327,3.9285656 -10.74189,11.4470371 -16.06987,16.6998092 -9.60205,9.4666778 -9.70705,9.5332008 -12.33957,8.6154818 -3.62492,-1.263613 -12.96002,0.773211 -26.86545,5.830111 -4.85293,1.764764 -10.52548,3.774374 -12.60513,4.465213 -6.95503,2.310245 -36.17258,14.742908 -47.56112,20.244813 l -11.24026,5.434849 0,318.210406 500,0 c 0,0 -1.83428,-226.45411 -1.83428,-226.45411 -6.17729,-10.22929 -11.15319,-16.84437 -14.34059,-19.09608 -2.35663,-1.66466 -5.80519,-5.88007 -10.08534,-12.31485 -11.77938,-17.709013 -24.29636,-28.767942 -47.29556,-41.860709 -2.7732,-1.578634 -5.67552,-3.261897 -6.46003,-3.724097 -6.76487,-3.984781 -11.28971,-5.906482 -17.83003,-7.565576 -15.9896,-4.056111 -27.6388,-8.901546 -34.37543,-14.309696 -5.01923,-4.029397 -7.69934,-5.554337 -15.27933,-8.745166 -0.92437,-0.389155 -3.76385,-1.630653 -6.30566,-2.760666 -2.54201,-1.130133 -8.62357,-2.740053 -13.5254,-3.569689 -4.90182,-0.829773 -9.69259,-2.113781 -10.6597,-2.859482 -2.14439,-1.653023 -11.03644,-19.322035 -11.66022,-23.1660542 -0.38075,-2.3466296 0.0196,-3.299487 2.72976,-6.2994848 3.03144,-3.3554563 3.21071,-3.8325175 3.20534,-9.140427 -0.007,-6.291976 -2.83508,-15.912132 -5.32988,-18.169669 -2.57056,-2.326472 -5.09533,2.70612 -5.09515,10.159451 0,6.719055 -0.57406,7.819681 -7.61495,14.5752778 -5.92949,5.6894767 -7.37099,6.9183655 -10.50534,8.76987048 -2.95067,1.74292672 -4.80646,5.16371912 -3.81057,7.09000752 2.92319,5.6540222 4.48371,12.5792662 4.6011,20.5906672 0.12512,8.528445 0.0999,8.506508 -2.63097,8.769871 -3.25226,0.313522 -3.30404,0.986159 -0.70405,6.355078 2.00612,4.142581 2.05121,7.250564 0.105,7.250564 -2.21529,0 -3.28868,2.397103 -2.15542,4.854327 0.57984,1.257287 1.40521,4.368887 1.84044,6.910897 0.43494,2.541986 1.0072,5.821547 1.25989,7.269122 0.2616,1.497837 0.0734,2.856734 -0.45083,3.18061 -0.50647,0.312952 -0.9451,1.448018 -0.94493,2.519787 0,1.071781 -0.53316,3.279235 -1.20431,4.885186 -1.17766,2.818772 -1.1461,2.982523 1.01902,4.724618 1.23343,0.992546 2.44801,1.784871 2.70507,1.784871 0.79514,0 3.21441,5.32465 3.70558,8.170785 0.27578,1.598385 -0.20229,4.76265 -1.15489,7.744656 -0.88648,2.77496 -1.86735,6.42346 -2.18013,8.09052 -0.38353,2.04429 -1.22982,3.32723 -2.57539,3.94026 -2.64131,1.20346 -2.51589,2.57363 0.62998,6.95415 5.00183,6.96476 4.77405,13.19085 -0.67938,18.49083 -3.81837,3.71124 -3.7975,3.71392 -1.97012,7.2197 5.10032,9.78529 -0.23689,17.22847 -11.57992,16.17486 -5.60485,-0.52058 -5.60274,-0.51876 -5.64486,8.19551 -0.0231,4.79282 -0.48378,11.74244 -1.02519,15.43992 -0.54176,3.69746 -1.42047,11.45365 -1.94544,17.23091 -1.70183,18.73685 -2.43568,25.55084 -3.25474,29.82993 -0.44228,2.31092 -1.05824,5.52177 -1.36489,7.13942 -0.30654,1.61762 -0.93518,3.4181 -1.39576,3.99583 -1.3624,1.7086 -9.04946,1.30295 -12.75954,-0.68552 -4.06747,-2.18008 -6.46234,-1.34505 -8.51048,2.97064 -1.4469,3.04916 -5.435,4.39224 -5.43485,1.83424 0,-0.62981 -1.13341,-2.58455 -2.51979,-4.32934 -1.55318,-1.95443 -2.51995,-4.1505 -2.5198,-5.72512 0,-1.40574 -0.45083,-3.78491 -1.00051,-5.30515 -0.80445,-2.2247 -0.71181,-4.30764 0.39527,-10.58561 0.75645,-4.28999 1.58648,-9.87786 1.86514,-12.41987 0.27864,-2.54201 1.57778,-6.7034 2.88417,-9.24541 1.30665,-2.54201 2.64637,-5.8478 2.97064,-7.3494 0.32446,-1.50149 1.22249,-3.19692 1.99483,-3.77969 3.0069,-2.26949 4.49305,-4.69425 3.94029,-6.43534 -0.30386,-0.95756 -0.94504,-1.76015 -1.4452,-1.76015 -2.03151,3e-5 -6.21229,5.69541 -7.69524,10.5053 -0.85488,2.77314 -1.95136,5.7951 -2.43951,6.71945 -0.4884,0.9244 -1.24863,2.43535 -1.71073,3.35973 -0.46186,0.92436 -1.1712,2.25265 -1.57488,2.94592 -0.40371,0.69327 -0.96352,1.92097 -1.2352,2.7298 -0.2715,0.8088 -0.80904,1.46986 -1.17961,1.46986 -0.3705,0 -1.1949,0.19704 -1.84042,0.44466 -0.64563,0.24782 -2.1229,-0.41322 -3.30416,-1.46985 -4.59703,-4.11235 -5.28849,-4.43969 -7.01589,-3.67471 -1.73881,0.76981 -6.29966,6.62816 -6.29948,8.09051 0,0.45588 -0.28347,0.83691 -0.62995,0.83993 -0.83655,0.007 -3.56988,4.84704 -3.56971,6.32419 0,2.55999 -3.24799,3.09004 -6.54034,1.08078 -1.7146,-1.04645 -3.2365,-2.18427 -3.39061,-2.55066 -0.15404,-0.36632 -0.69187,-0.67936 -1.1796,-0.67936 -0.98084,0 -9.84478,-8.46508 -9.87538,-9.43068 -0.0106,-0.33378 -1.68187,-4.1293 -3.73028,-8.45491 -2.04838,-4.32564 -4.40948,-10.38542 -5.22486,-13.44508 -1.48225,-5.56273 -1.46914,-5.54955 0.79051,-15.04464 1.39044,-5.84251 2.6069,-14.36002 3.17445,-22.11612 0.50732,-6.93278 1.26273,-13.46509 1.67987,-14.51971 0.41705,-1.05453 1.1545,-7.29355 1.63044,-13.86504 1.39933,-19.32303 1.48534,-19.56888 9.6407,-28.12534 6.75081,-7.083008 9.84743,-10.706254 13.44506,-15.705465 0.92439,-1.284617 2.81294,-3.583419 4.19966,-5.095177 5.79486,-6.318397 7.66623,-8.529534 9.18984,-10.919113 1.84858,-2.898788 5.00334,-5.871949 8.03491,-7.565564 2.64237,-1.476105 13.85521,-12.949664 14.55058,-14.890242 0.71633,-1.998562 -1.55255,-4.020543 -4.51462,-4.020543 -2.33823,-2e-5 -2.46494,-0.176524 -2.44567,-3.569727 0.0418,-7.44029 7.1179,-27.5533436 11.47493,-32.63996725 2.13312,-2.49030635 7.87874,-3.42604945 22.31994,-3.65000455 9.26191,-0.1435986 14.52717,-0.5508571 15.15582,-1.1796002 0.52967,-0.5296703 1.44553,-0.9758024 2.05041,-0.9758024 1.61099,0 6.11405,-4.2536286 6.11422,-5.7745366 0,-1.313197 3.85394,-5.150735 5.17546,-5.150735 0.39033,-2e-5 0.71004,-0.761373 0.71024,-1.704566 0,-0.943035 0.71546,-2.737327 1.57486,-3.989694 0.85949,-1.252149 3.01172,-4.557762 4.7802,-7.33086 1.76866,-2.773097 4.84405,-6.488537 6.82443,-8.269606 3.60099,-3.238499 3.5989,-3.238519 4.15025,0.209963 0.30318,1.896544 0.80635,3.440022 1.13021,3.440022 0.91639,0 2.54434,-8.068202 2.54449,-12.580451 0,-3.898546 3.83112,-14.491047 7.04061,-19.509863 1.67638,-2.621416 3.88449,-10.448725 3.88466,-13.710642 3e-5,-2.461474 0.19212,-2.600348 2.55069,-2.254238 4.37798,0.642598 10.71384,-2.840311 12.73484,-6.985006 0.7113,-1.458397 0.61481,-1.418062 -0.71024,0.185278 -2.91688,3.529412 -10.0541,4.74328 -13.31539,2.278921 -1.82065,-1.375688 -1.83962,-1.424226 -1.99482,-5.879518 -0.16194,-4.642389 -2.08961,-3.079859 -2.75449,2.229534 -0.32622,2.605525 -0.23648,4.675611 0.20999,4.83577 1.40344,0.50394 0.80554,8.414511 -1.02521,13.704476 -2.71318,7.839563 -7.8233,17.711561 -11.40083,22.01114 -1.75992,2.11548 -4.65882,5.734773 -6.46006,8.059624 -1.80119,2.324791 -3.91361,4.425726 -4.6999,4.675216 -0.78629,0.249587 -1.86752,1.397941 -2.39011,2.544497 -0.52234,1.146634 -1.6185,2.075125 -2.43952,2.075125 -2.09753,-2e-5 -11.16013,5.91017 -11.15995,7.275286 0,0.620086 -1.60559,2.129314 -3.56971,3.359724 -1.96428,1.230331 -3.76492,2.497877 -3.99586,2.834778 -0.23107,0.336822 -1.93111,0.821117 -3.77969,1.05608 -1.84874,0.234786 -4.20984,0.681569 -5.24955,1.019044 -1.57069,0.509651 -1.89619,0.319135 -1.89604,-1.204323 0,-3.825462 -2.74485,-7.136391 -4.984,-5.990686 -1.78795,0.914874 -4.05996,0.142334 -2.47039,-0.839931 1.81388,-1.1211 0.22951,-1.836108 -1.73544,-0.784338 -0.98749,0.528485 -4.52226,1.173335 -7.84966,1.445156 -3.3272,0.271881 -6.31524,0.906158 -6.64534,1.414306 -0.33596,0.517279 -2.51048,0.836533 -4.93459,0.73493 -2.61058,-0.109488 -5.32808,0.340301 -6.85531,1.130211 -1.60983,0.832422 -3.66157,1.158671 -5.59544,0.864636 -1.67325,-0.25447 -6.06688,-0.856948 -9.7642,-1.334009 -3.69748,-0.477061 -7.57841,-1.243928 -8.64017,-1.710732 -1.06158,-0.466725 -2.50977,-0.864635 -3.23002,-0.864635 -0.72042,-2e-5 -2.43571,-0.91428 -3.78588,-2.05042 -1.35024,-1.13612 -2.96028,-1.867652 -3.59441,-1.624289 -0.63399,0.243285 -1.4056,0.04287 -1.71073,-0.450835 -0.30514,-0.493642 -1.33553,-0.920229 -2.2851,-0.920229 -1.96696,0 -8.26981,-3.316424 -8.26963,-4.354065 0,-0.377138 -0.41103,-0.685522 -0.94491,-0.685522 -0.58066,0 -0.41214,0.630758 0.41996,1.550157 0.76488,0.845307 1.36472,2.149038 1.36489,2.890351 0,0.741176 0.70715,1.566699 1.55017,1.834272 2.54051,0.806393 5.1753,3.767516 5.17546,5.805406 0,1.054105 0.99153,2.746339 2.1801,3.779692 1.18849,1.033273 2.54571,2.999305 3.02006,4.360231 0.47437,1.360925 1.20721,2.470386 1.62427,2.470386 0.41688,2e-5 0.7348,0.765661 0.73495,1.704566 0,0.9388256 0.56645,1.9386993 1.2599,2.2048088 0.69318,0.2659917 1.25973,0.8225012 1.2599,1.235194 0,0.4127127 -0.5668,0.7349488 -1.2599,0.7349488 -0.6933,0 -1.26005,-0.3777507 -1.2599,-0.8399303 0,-0.4621598 -0.61693,-0.8399315 -1.38961,-0.8399315 -3.54652,0 -20.44813,-8.3783828 -24.24064,-12.0246138 -0.56017,-0.538466 -3.53161,-3.038279 -6.58978,-5.545997 -4.87812,-4.000147 -6.07274,-5.615404 -9.77037,-13.074526 -2.31797,-4.676126 -4.2391,-9.419188 -4.25523,-10.554735 -0.0283,-1.978206 -1.72077,-10.085025 -2.93976,-14.05031 -0.75848,-2.467126 1.69409,-2.616436 2.99534,-0.185279 1.02185,1.909331 6.87817,5.854814 8.68959,5.854814 2.12603,0 1.96641,-1.96032 -0.94493,-11.135274 -2.91486,-9.185508 -4.11519,-10.607799 -5.9845,-7.114712 -1.1379,2.126053 -3.21921,3.165493 -10.45592,5.200182 -4.76797,1.340748 -5.00581,1.319483 -8.71429,-0.475559 -4.03812,-1.954925 -8.66503,-5.961318 -8.66488,-7.509973 2e-5,-0.509986 -1.06639,-2.502343 -2.39009,-4.434343 -1.32377,-1.93202 -4.72112,-8.143895 -7.54086,-13.790921 -4.70712,-9.427966 -5.1454,-10.766376 -5.32985,-16.384846 -0.24664,-7.5076 0.99632,-13.26534 3.3906,-15.83517 0.99438,-1.06749 1.78469,-2.1574 1.78486,-2.4395 0,-0.8505 5.40574,-2.55068 8.13992,-2.55068 2.321,0 6.98486,3.35364 6.98501,5.01488 2e-5,0.31412 1.49387,1.38312 3.28561,2.39009 1.83952,1.03381 3.68912,2.93409 4.27995,4.36025 1.85412,4.4762 3.45523,3.20595 2.91507,-2.30983 -0.26035,-2.65756 -0.61918,-8.14174 -0.81524,-12.20987 -0.19622,-4.06806 -0.5638,-7.73303 -0.81522,-8.13993 -1.05454,-1.70639 -0.76168,-32.89464 0.31497,-33.56021 0.83739,-0.51746 0.86449,-2.04046 0.1544,-7.14558 -1.1295,-8.12072 -1.16597,-13.69058 -0.0741,-14.36529 0.46218,-0.28563 0.83976,-1.2522 0.83993,-2.14924 0,-0.89715 -0.37792,-1.63046 -0.83993,-1.63046 -0.46226,1e-5 -0.84011,-1.80199 -0.83993,-4.02055 0,-2.21848 -0.4119,-4.45098 -0.92023,-4.9593 -0.67226,-0.67226 -0.45825,-1.38228 0.78436,-2.62478 3.11956,-3.11957 4.25766,-5.58365 4.46521,-9.66539 0.11305,-2.22235 0.52089,-4.20927 0.89552,-4.44051 0.37435,-0.23151 0.65448,-1.37224 0.65466,-2.5198 0,-4.41488 10.33847,-14.62469 14.80996,-14.62469 1.94057,0 9.03952,-3.52405 10.98087,-5.46573 2.68454,-2.68444 8.46753,-6.1544 12.04929,-7.2197 2.06914,-0.61564 5.37778,-1.98686 7.33088,-3.02006 3.28546,-1.73806 4.06591,-1.81434 10.49915,-1.07461 3.82411,0.43974 10.84838,0.80552 15.60048,0.80906 5.75207,0.004 9.63478,0.42392 11.63552,1.25989 3.51156,1.46732 8.56643,0.92255 12.44456,-1.334 1.40101,-0.8153 3.98697,-1.73302 5.72511,-2.05043 1.73832,-0.31739 3.37211,-0.90573 3.6253,-1.31549 0.25319,-0.40974 1.46164,-0.74947 2.70507,-0.75963 1.24381,-0.0101 3.9258,-0.76811 5.93512,-1.67986 2.00915,-0.91177 4.4644,-1.47881 5.45955,-1.2599 0.99502,0.21899 6.32381,0.5625 11.87018,0.78434 11.19609,0.44781 16.7389,1.78763 21.01066,5.04578 4.24334,3.23662 8.65735,8.0945 10.13474,11.18466 0.71831,1.50209 1.65923,2.72977 2.09983,2.72977 0.4405,0 0.79035,0.35003 0.79053,0.76582 0,0.41564 1.32195,2.7161 2.93976,5.11989 1.61764,2.40376 2.9396,5.18836 2.93975,6.19449 0,1.00612 0.51904,2.58392 1.13022,3.49559 0.61117,0.91166 1.58642,3.92164 2.1554,6.69475 0.56892,2.77309 1.59677,6.93451 2.28511,9.24542 0.68815,2.3109 1.36098,5.89952 1.51928,7.97934 0.15817,2.07984 0.68078,4.73024 1.15492,5.8857 3.67105,8.94922 5.20893,16.36826 6.09566,29.51494 0.511,7.57383 1.4643,15.97497 2.12454,18.66995 0.66009,2.69493 1.1856,8.27282 1.18578,12.39516 0,5.84628 0.26635,7.48527 1.1796,7.48527 1.50067,0 2.17996,-1.82567 2.18013,-5.83011 0,-8.50821 2.20084,-10.95727 8.37463,-9.29484 2.30309,0.62009 3.83643,1.81664 5.59542,4.40966 2.39956,3.53755 2.41973,3.68726 2.26041,15.05082 -0.16479,11.75981 -0.5941,13.71908 -4.38494,19.61487 -0.89157,1.38653 -1.64591,3.53642 -1.67986,4.78019 -0.0338,1.24369 -0.45819,2.49972 -0.92022,2.78535 -0.46229,0.28566 -0.85065,1.91327 -0.87081,3.61914 -0.0203,1.705949 -0.53634,4.516892 -1.1549,6.250075 -0.61851,1.733163 -1.00034,3.155908 -0.83993,3.155908 0.84872,0 2.30586,-4.240585 3.81056,-11.135253 1.07413,-4.9222 2.64683,-9.27162 4.30464,-11.9505 2.58873,-4.18423 2.60652,-4.30504 2.68039,-16.40953 0.0742,-12.18486 0.0704,-12.18935 -2.5198,-16.39104 -1.67764,-2.72142 -3.45778,-4.46762 -5.04577,-4.99018 -1.3484,-0.44358 -2.5823,-0.88053 -2.72977,-0.96962 -0.14748,-0.0891 0.12608,-0.88166 0.60524,-1.73544 2.14032,-3.81404 6.8221,-13.992 6.82445,-14.85938 2.63841,-6.91277 3.78766,-4.91714 5.27981,-14.85135 0.58781,-3.91333 -0.30799,-6.56474 0.63057,-9.01876 0.66436,-1.73697 1.26221,-6.71149 1.36488,-11.13527 0.27102,-16.56922 -1.34975,-20.81212 1.08763,-35.74402 1.539,-9.42831 1.12548,-16.9938 -2.13751,-22.76708 -5.09099,-3.88316 -7.87461,-8.14525 -8.79458,-13.46976 -1.41318,-8.17779 -1.58876,-8.61173 -4.69993,-12.05548 -3.6748,-4.06746 -12.58218,-10.48359 -15.44611,-11.13528 -0.72309,-0.16448 -1.7232,-0.41491 -2.66183,-0.66082 -0.75126,-0.75065 -1.46213,-1.55518 -2.56921,-1.63664 -1.16647,-0.63552 -2.30455,-1.37658 -3.08178,-2.45803 -0.0205,-0.0946 -0.0383,-0.18696 -0.0618,-0.28409 -0.79732,-3.30536 -3.99248,-15.81268 -5.11987,-20.09041 -2.02704,-7.69152 -10.41081,-20.01944 -32.42381,-24.68534 -1.94148,-1.0716 -7.41671,-3.5717 -10.0977,-4.69374 -1.28641,-0.67919 -3.32394,-1.49428 -4.43436,-1.47604 -1.4325,0.0235 -3.03316,0.36502 -4.64432,1.07461 l -7.29381,1.7725 c -0.4451,-0.53133 -1.7966,-1.52502 -3.66234,-2.66183 -3.84083,-2.34005 -6.66576,-3.42432 -10.09771,-3.38443 z m -28.56382,4.00202 c 0.46316,0.008 0.94163,0.0335 1.43899,0.0741 -0.39262,-0.0247 -0.7845,-0.0388 -1.17963,-0.0432 -0.086,-0.0133 -0.17347,-0.0205 -0.25936,-0.0309 z m 58.60372,1.53781 c 0.18462,0.0164 0.33036,0.0263 0.47554,0.0371 0.22741,0.18783 0.46297,0.38428 0.69789,0.5929 -0.36937,-0.2524 -0.75918,-0.46803 -1.17343,-0.62995 z m 11.96283,5.39163 c 0.29429,0.1524 0.63169,0.32061 0.94493,0.48172 -0.27739,-0.0943 -0.55907,-0.18324 -0.83993,-0.26557 -0.019,-0.0621 -0.055,-0.13505 -0.105,-0.21615 z m -101.86018,3.28561 c -0.65658,0.04 -1.31246,0.10467 -1.96396,0.19763 -0.31288,0.28274 -0.71765,0.29368 -1.14254,0.2841 0.76385,-0.30021 1.73919,-0.45824 3.1065,-0.48173 z m 120.40045,5.53366 c 0.41077,0.73862 -0.01,1.05286 -1.14256,0.62376 0.25484,0.0322 0.51136,0.0417 0.772,0.006 0.29496,-0.17096 0.39076,-0.39117 0.37056,-0.62995 z m -137.74256,5.91039 c -0.32202,0.26115 -0.63868,0.49586 -0.92021,0.62378 -0.0944,-0.0355 -0.19186,-0.0593 -0.29028,-0.0741 0.41793,-0.17047 0.82889,-0.35279 1.21049,-0.54968 z m -11.39465,5.39163 c -0.1261,0.20125 -0.22232,0.41878 -0.27793,0.66081 -0.12584,-0.0359 -0.24882,-0.0915 -0.37054,-0.14822 0.21592,-0.1601 0.43079,-0.33082 0.64847,-0.51259 z m 160.02543,3.70559 c 0.12814,5e-5 0.23658,0.15078 0.34585,0.46937 -0.18063,-0.20066 -0.4467,-0.25953 -0.6917,-0.19764 0.13031,-0.17952 0.24324,-0.2718 0.34585,-0.27173 z m -175.32946,3.99583 c -0.0703,0.30733 -0.3989,0.43785 -0.72877,0.58054 0.25054,-0.20164 0.49532,-0.39625 0.72877,-0.58054 z m 204.90618,32.7388 c 0.59529,0.66967 1.07266,1.25857 1.45753,1.82808 -0.4672,-0.62516 -0.95539,-1.23162 -1.45753,-1.82808 z m 2.12453,2.97063 c 0.36962,0.75797 0.63413,1.57748 0.86464,2.60625 -0.23933,-0.88386 -0.5191,-1.75624 -0.86464,-2.60625 z m -4.79876,2.3407 c 0.97799,0.79693 1.60979,1.56016 2.03191,2.41479 -0.52072,-0.90396 -1.23037,-1.70945 -2.03191,-2.41479 z m -240.64646,28.98999 c -0.60988,0.86276 -1.19652,1.74138 -1.76015,2.63712 0.6601,-1.13492 1.18601,-1.91781 1.76015,-2.63712 z m -6.38595,45.0907 c 0.0735,1.0892 0.15192,2.17859 0.23469,3.2671 -0.0956,-1.04259 -0.17678,-2.14395 -0.23469,-3.2671 z m 181.87599,5.16929 c -0.44812,-0.004 -0.88811,-0.002 -1.30931,0.006 -2.02168,0.0387 -3.64439,0.20445 -3.98966,0.54967 -0.32001,0.32008 -1.39851,0.71956 -2.3901,0.8708 -5.70485,0.87069 -5.01663,7.80313 1.00049,10.26446 l 0.0247,0 c 1.15725,0.46344 3.02632,0.68655 4.17496,0.47555 1.15547,-0.21236 5.31669,-1.05187 9.24542,-1.84044 10.51,-2.10967 28.56985,-1.65587 28.57002,0.71024 0,0.40866 1.13307,0.65529 2.5198,0.54966 3.41317,-0.26008 3.17163,-1.17573 -0.62995,-2.3901 -1.73329,-0.55345 -4.84979,-1.86522 -6.92944,-2.91506 -7.49283,-3.78182 -9.7484,-4.45796 -14.71115,-4.45904 -2.77317,-4.9e-4 -6.10373,-0.4182 -7.40497,-0.92022 -1.42779,-0.55089 -5.03395,-0.87367 -8.17081,-0.90169 z m -54.58936,1.74162 c -0.97555,0.007 -1.92469,0.37336 -2.93976,1.07462 -1.06764,0.73755 -4.22496,1.15465 -8.82545,1.17961 -5.67207,0.0306 -8.25227,0.48168 -12.54956,2.21099 -2.97622,1.19765 -6.24277,2.18012 -7.27528,2.18012 -1.03235,0 -2.94885,0.88255 -4.25524,1.96396 -1.30648,1.08158 -3.14577,2.39295 -4.06997,2.91505 -1.97476,1.11529 -1.87907,1.11656 17.78061,1.00051 16.93464,-0.0998 24.65426,2.5826 24.65443,8.53519 0,1.56487 0.43471,2.39009 1.2599,2.39009 0.84038,0 1.25973,0.83914 1.2599,2.51979 0,1.6368 -0.41659,2.5198 -1.20431,2.5198 -0.66706,0 -1.88607,-1.13324 -2.70507,-2.5198 -0.81906,-1.38653 -1.95011,-2.51979 -2.51979,-2.51979 -0.56983,0 -2.06351,-0.94436 -3.31031,-2.09983 -2.1814,-2.02165 -4.52973,-2.78139 -4.54551,-1.46988 -0.004,0.34663 -3.30941,0.7374 -7.3494,0.86464 -4.40791,0.13859 -9.70534,0.93324 -13.23509,1.99484 -5.2919,1.59142 -6.45246,2.38081 -11.55524,7.71995 -3.11972,3.26411 -5.64498,6.21657 -5.64483,6.58975 l -0.0309,0 c 0,1.18985 4.85644,-0.18469 9.24541,-2.62478 1.38142,-0.76797 4.7542,-1.1179 10.08536,-1.07462 9.88921,0.0802 13.44489,-0.8571 13.44507,-3.545 0,-1.06302 0.59567,-2.42761 1.3093,-3.02005 1.09604,-0.90966 1.65563,-0.65979 3.5759,1.63046 2.07006,2.46865 2.7902,2.74071 7.97934,3.06945 4.3708,0.2769 5.79751,0.0907 6.14507,-0.81523 0.24924,-0.64957 1.57092,-1.63516 2.94595,-2.20482 6.65004,-2.75454 8.28622,-17.14018 2.4951,-22.00496 -0.95751,-0.80436 -1.76032,-1.22374 -1.76017,-0.92022 0,0.30363 -1.38085,-0.82525 -3.07563,-2.5198 -2.04084,-2.0409 -3.70406,-3.03115 -5.32986,-3.02004 z m -124.75448,4.23671 c -0.16465,0.87573 -0.33726,0.91869 -0.60525,0.30262 0.23665,0.0825 0.45774,-0.0683 0.60525,-0.30262 z m 0.93256,2.50126 c 0.0501,0.001 0.10587,0.0121 0.16676,0.0247 -0.0241,0.004 -0.0498,0.005 -0.0741,0.0124 -0.24725,0.14036 -0.37218,0.33265 -0.42615,0.55583 -0.0385,-0.35097 0.0336,-0.54111 0.23469,-0.58054 0.0298,-0.006 0.0626,-0.0133 0.0988,-0.0124 z m 179.91205,7.17648 c -3.62419,-0.0142 -4.78896,1.26748 -5.85481,4.81107 -0.53589,1.78128 -1.46961,3.41765 -2.07513,3.65001 -1.54607,0.59336 -1.36911,4.15855 0.23466,4.77401 0.73112,0.28058 2.64812,0.50026 4.25525,0.50026 1.60714,0 2.74018,0.28332 2.52598,0.62994 -0.21427,0.34664 2.90483,0.54687 6.90472,0.41997 7.42778,-0.23569 10.0216,-1.46051 8.97986,-4.17496 -0.27773,-0.72385 0.39478,-1.07461 2.07513,-1.07461 1.6105,0 2.53208,0.44611 2.60007,1.2599 0.0577,0.69326 0.152,1.73207 0.20999,2.30981 0.0686,0.68588 1.56851,1.04991 4.30466,1.04991 4.7239,1e-5 6.07823,-1.90084 3.23001,-4.51463 -6.07047,-5.57048 -11.22845,-7.64289 -22.84488,-9.22072 -1.84545,-0.25066 -3.33753,-0.41526 -4.54551,-0.41996 z m -179.5353,3.76116 c 0.10233,1.86452 0.24205,3.72444 0.50642,5.55837 -0.28859,-1.27405 -0.47694,-3.4322 -0.50642,-5.55837 z m 191.30051,4.11938 c 1.0399,-0.007 1.92054,0.35304 1.92073,0.81522 l -0.0309,0 c -1e-5,1.05286 -0.89071,1.05286 -2.51978,0 -1.01933,-0.65875 -0.89913,-0.80479 0.62995,-0.81522 z m -187.12556,28.44648 c 0.0204,1.23494 0.058,2.47187 0.10498,3.70558 -0.0853,-1.04206 -0.10992,-2.23838 -0.10498,-3.70558 z m 240.83174,4.50848 c -2.32866,0.0119 -2.40096,1.8414 -0.37055,5.86099 2.51976,4.98879 3.797,9.69903 4.51465,16.82949 0.52705,5.23562 2.25466,6.5614 3.68088,2.81007 1.91996,-5.04972 1.95111,-11.9487 0.0803,-17.57061 -1.97244,-5.92749 -2.72107,-6.87902 -5.93509,-7.63968 -0.78041,-0.18463 -1.43275,-0.29303 -1.97017,-0.29026 z m -236.97178,2.34068 c 0.15339,0.43265 0.30325,0.94746 0.45702,1.57486 -0.14713,-0.52767 -0.30223,-1.05055 -0.45702,-1.57486 z m 139.30507,5.11989 c -0.71135,-0.0255 -2.143,0.75467 -5.20016,0.39526 -5.06141,-0.59489 -11.96918,1.82951 -11.96902,4.19966 0,0.65202 -0.38408,1.1796 -0.84612,1.1796 -1.37812,0 -0.94098,5.20917 0.52497,6.28096 1.80468,1.31964 8.50058,-0.32615 10.35091,-2.55068 0.73521,-0.88386 2.09125,-3.40312 4.22437,-4.01438 2.11333,-0.60564 7.20393,-5.3369 2.91505,-5.49042 z m 16.67511,0.20996 c -1.01034,-0.006 -2.11685,0.17412 -3.25472,0.54967 -4.45351,1.46977 -3.81648,3.74936 1.55015,5.49045 2.42637,0.7872 4.78589,1.75002 5.22487,2.1554 2.7777,2.56454 4.10952,-1.8069 1.67986,-5.51513 -1.14194,-1.74277 -2.97738,-2.66728 -5.20016,-2.68039 z m -43.64553,0.0494 c -0.28765,0.0356 -0.63725,0.22824 -1.09935,0.47556 -2.1189,1.13395 -2.96628,6.69471 -1.59957,10.47444 1.24219,3.4352 2.262,3.69805 4.43435,1.16108 1.41166,-1.64866 1.46154,-2.23406 0.47554,-6.51564 -1.04031,-4.51764 -1.34796,-5.702 -2.21097,-5.59544 z m -100.56942,2.16161 c 0.54623,0.67289 1.2523,1.22434 2.04423,1.52545 -0.69341,-0.17312 -1.27836,-0.53629 -1.73544,-1.08697 -0.12049,-0.1452 -0.22161,-0.29079 -0.30879,-0.43848 z m -7.33089,6.13272 c 0.18657,0.44754 0.3421,0.87286 0.44468,1.21666 0.0521,0.17476 0.0929,0.33237 0.12351,0.48791 -0.006,-0.0168 -0.0123,-0.0338 -0.0185,-0.0494 -0.15618,-0.56076 -0.34374,-1.11272 -0.54968,-1.65516 z m 0.62995,2.211 c 0.0144,0.33411 -0.0421,0.5918 -0.16673,0.74111 0.10677,-0.20241 0.16161,-0.47986 0.16673,-0.74111 z m -1.42047,0.0123 c 0.11868,0.22984 0.24206,0.45799 0.3644,0.68554 -0.21234,-0.16107 -0.36036,-0.40552 -0.3644,-0.68554 z m 12.52486,3.20533 c -0.0876,0.002 -0.17216,0.006 -0.25939,0.0123 -3.07013,0.21646 -5.89549,2.66667 -6.88003,6.58976 -0.80587,3.21075 0.12635,12.09236 1.65517,15.73019 1.99747,4.753007 3.04458,3.03755 3.04476,-4.9099 0,-3.87949 0.42526,-7.9427 0.9202,-9.02926 1.30095,-2.85529 3.79344,-4.21614 5.77454,-3.15591 3.81134,2.03983 3.52116,-1.41017 -0.33969,-4.0391 -1.25112,-0.85191 -2.60198,-1.23513 -3.91556,-1.19812 z m 207.88299,4.05144 c -0.10991,-0.005 -0.22588,-0.001 -0.34585,0.006 -0.27431,0.0172 -0.56566,0.0759 -0.88935,0.16058 -1.50967,0.39471 -1.65192,0.91454 -1.23519,4.43434 0.3868,3.26664 0.17962,4.25782 -1.15492,5.46572 -2.11823,1.91696 -2.15708,4.56405 -0.0556,4.56405 0.87496,0 1.79715,0.54991 2.05042,1.21049 0.33435,0.87133 1.12224,1.03843 2.83478,0.58054 2.98923,-0.79942 3.6018,-3.2204 0.9202,-3.60058 -1.63539,-0.23166 -1.95963,-0.84675 -2.1801,-3.91558 -0.15974,-2.22175 0.20216,-4.39328 0.96961,-5.56453 1.22728,-1.87311 0.73444,-3.27291 -0.91403,-3.34119 z m 4.27993,2.3839 c -0.059,6.7e-4 -0.11211,0.006 -0.16056,0.0124 -0.64587,0.0789 -0.36146,0.61677 0.37056,2.01953 0.64394,1.23444 1.15197,2.85927 1.1549,3.60058 0.003,0.74135 0.94169,2.34677 2.07512,3.56973 2.09563,2.26117 5.77876,2.96739 6.79977,1.31547 2.10076,-3.39907 -2.65015,-9.37802 -8.13996,-10.24594 -1.0064,-0.15911 -1.68651,-0.27642 -2.09983,-0.27174 z m -199.18721,8.04729 c -1.53126,0 -4.82776,2.58727 -5.11988,4.02057 -0.18999,0.93123 0.84217,1.38891 2.5198,1.124 0.97774,-0.15437 0.74804,4.62875 -0.33968,7.015899 -0.53638,1.177307 -1.29187,2.124532 -1.67986,2.124532 -1.16536,1.9e-5 -0.79773,-2.707961 0.57435,-4.224361 1.14969,-1.27031 1.16305,-1.50952 -0.0247,-2.49509 -3.1474,-2.61201 -5.89836,6.086102 -3.02004,9.554228 1.4563,1.754784 2.21486,1.700752 6.79973,-0.54965 3.54108,-1.738164 3.82082,-2.107892 4.06997,-5.595448 0.31444,-4.40533 -1.95106,-10.97468 -3.7797,-10.97468 z m 111.27854,6.61447 c -5.91169,0.0179 -7.26418,0.41779 -10.83267,2.106 -2.56779,1.21469 -5.01727,2.20407 -5.43483,2.20481 -0.41755,7.5e-4 -3.35575,2.456112 -6.54034,5.459548 -3.18464,3.003436 -6.30105,5.46574 -6.92944,5.46574 -1.51269,0 -1.68323,1.483239 -0.76582,6.929432 0.38093,2.261352 1.71149,4.336337 4.73079,7.355584 4.79868,4.798636 4.86908,4.834467 7.59027,2.470386 1.11055,-0.964893 2.56505,-2.083345 3.25472,-2.470386 1.70193,-0.955545 0.87922,-1.589446 -2.41479,-1.840457 -3.36976,-0.256703 -4.03304,-1.162643 -2.28512,-3.094149 1.06688,-1.178809 2.90831,-1.495828 9.34424,-1.630454 8.0467,-0.168244 11.32036,0.605403 11.32055,2.705073 -10e-6,1.465195 5.45008,2.337182 10.42504,1.655158 4.10751,-0.563011 4.63015,-1.149797 2.60007,-2.834759 -1.03245,-0.856809 -1.26006,-0.80167 -1.2599,0.314965 -2e-5,1.473022 -2.1007,1.892019 -2.91505,0.574374 -0.88226,-1.427547 1.57252,-4.255249 3.6994,-4.255249 1.12706,0 3.28429,-0.42878 4.78018,-0.969636 2.28286,-0.825525 3.0797,-0.749931 4.94078,0.469373 3.32857,2.181015 3.43764,3.584668 0.52496,6.30567 -2.78764,2.603866 -3.22593,4.185091 -1.60575,5.805407 1.25156,1.251676 4.02038,1.32308 4.02055,0.105002 0,-0.968135 2.08314,-3.310318 2.93975,-3.310318 0.28613,-2e-5 2.218,-1.79431 4.31084,-3.989693 3.47469,-3.644946 3.77063,-4.267483 3.38444,-7.275267 -0.23824,-1.85439 -1.01816,-3.657812 -1.80957,-4.10084 -0.77327,-0.432694 -2.0477,-1.56083 -2.81006,-2.519795 -3.61453,-4.546459 -8.71823,-8.998979 -10.82029,-9.449249 -1.27934,-0.27395 -3.17345,-0.85187 -4.19965,-1.26606 -1.0263,-0.41404 -6.71066,-0.81404 -12.63605,-0.88934 -1.25475,-0.016 -2.36172,-0.0203 -3.35972,-0.0247 -0.43662,-0.002 -0.85343,-0.007 -1.24753,-0.006 z m 80.4234,2.63094 c -1.57791,2e-5 -2.25347,1.42085 -1.63046,3.384432 0.62503,1.969253 2.53871,2.197043 3.23005,0.395261 0.65378,-1.703773 -0.22262,-3.779693 -1.59959,-3.779693 z m -72.63551,3.650008 c 2.88275,-0.01395 4.2552,0.279885 4.99017,0.944912 0.71857,0.650344 3.01636,1.297468 5.09517,1.445196 3.25721,0.231426 3.79364,0.548603 4.0391,2.285087 0.27352,1.935538 0.16047,1.998188 -3.51414,1.494603 -2.97881,-0.408324 -3.99938,-0.229725 -4.57021,0.790524 -0.56947,1.017641 -2.49677,1.338357 -8.64016,1.494564 -8.40162,0.213462 -10.23055,-0.05115 -13.08072,-1.945419 -1.78941,-1.188987 -1.79105,-1.189125 0.81523,-3.569707 1.4342,-1.309918 3.02081,-2.39171 3.49561,-2.414813 0.47469,-0.023 4.05053,-0.222651 7.95464,-0.419966 1.33073,-0.06721 2.45438,-0.100277 3.41531,-0.104981 z m -8.68341,43.497331 c -0.45459,0.0011 -0.90851,0.0043 -1.35253,0.01233 -2.36813,0.04271 -4.56904,0.186227 -6.16979,0.450855 -3.86715,0.639079 -4.27892,3.003061 -0.83995,4.804901 4.08538,2.1405 19.36538,0.637498 20.25101,-1.994847 0.15412,-0.457812 0.81524,-0.839931 1.46986,-0.839931 0.65481,2e-5 1.17944,-0.313917 1.17962,-0.710226 0,-1.001613 -7.71935,-1.740476 -14.53822,-1.723085 z m 15.08787,86.593196 c -5.49948,0.0081 -11.45032,2.498627 -11.45022,5.935093 l -0.0247,0 c -3e-5,1.321102 0.4908,1.455749 3.56968,1.025229 1.96428,-0.274706 4.68431,-0.838903 6.01542,-1.259897 1.33126,-0.420953 4.45401,-0.526369 6.93559,-0.234706 5.47974,0.643941 6.05538,-0.759396 1.57487,-3.810561 -1.70379,-1.16033 -4.12088,-1.658854 -6.62064,-1.655158 z m 2.07512,31.095997 c -0.33941,-0.0024 -0.71947,0.169744 -1.0746,0.524948 -0.73683,0.736805 -0.69376,1.287881 0.15439,2.309808 1.02613,1.23636 1.18081,1.228653 1.89604,-0.04941 0.7763,-1.38703 0.0422,-2.778315 -0.97583,-2.785345 z m -10.6844,7.429678 c -1.56815,1.2e-5 -2.86582,0.377742 -2.86564,0.839929 -3e-5,0.462177 -0.65653,0.83993 -1.4699,0.83993 -1.51168,2.3e-5 -8.58477,6.324914 -8.58457,7.670542 l -0.0309,0 c 0,1.628244 5.08979,0.391989 11.76523,-2.865641 5.54283,-2.704956 6.22885,-6.48476 1.18578,-6.48476 z m 9.94948,33.86281 c -0.27758,7.8e-4 -0.55031,0.005 -0.81524,0.0124 -4.66268,0.13636 -7.38044,1.35827 -7.38027,3.52027 0,1.42384 0.518,1.66876 3.3659,1.55018 1.84862,-0.0768 5.32477,-0.21613 7.69525,-0.31499 2.87234,-0.11974 5.53195,0.39362 7.97935,1.52548 2.01141,0.93013 4.58689,2.08408 5.74981,2.5692 l 0.0309,0 c 2.27966,0.94229 5.85464,1.26772 5.85482,0.52495 0,-0.25406 -0.59162,-1.62005 -1.31549,-3.02004 -1.67748,-3.24396 -4.743,-4.49121 -14.47028,-5.85481 -2.50466,-0.35115 -4.75178,-0.51812 -6.69474,-0.51261 z m 4.06995,30.00285 c -2.33351,0 -2.24156,2.27627 0.1297,2.99533 1.03991,0.31528 2.6758,1.25631 3.60057,2.09983 0.92465,0.84347 2.62435,1.9048 3.7797,2.36541 2.58774,1.03193 6.70077,1.19302 6.70093,0.25936 3e-5,-2.0654 -10.40059,-7.71993 -14.2109,-7.71993 z m -16.02044,5.97833 c -0.0991,0.001 -0.20702,0.006 -0.31498,0.0123 -0.5758,0.0339 -1.26928,0.13583 -2.04426,0.33969 -2.07049,0.54477 -2.11481,0.66023 -0.60522,1.23519 l 0.0247,0 c 0.92612,0.34136 2.41913,0.23702 3.33503,-0.24087 1.5415,-0.80411 1.09079,-1.3628 -0.39527,-1.34634 z m -2.68656,28.60707 c -2.5337,0.0857 -3.97407,2.04918 -4.00819,5.53983 -0.0223,2.28051 0.28523,2.72978 1.86512,2.72978 1.44909,2e-5 2.29732,-0.93262 3.65002,-3.98967 1.76589,-3.99161 1.76188,-3.98626 -0.71025,-4.25524 -0.18929,-0.0206 -0.3705,-0.0223 -0.54965,-0.0247 -0.084,-0.001 -0.1653,-0.003 -0.24705,0 z m -3.79822,157.37591 c 0.0529,-10e-4 0.10613,-0.003 0.16059,0 1.52435,0.0945 3.7795,2.05471 3.77969,3.49562 -10e-6,0.58317 0.472,1.23551 1.04989,1.46986 0.79053,0.32073 0.73843,0.64442 -0.20995,1.31549 -0.85462,0.60437 -0.92237,0.91157 -0.21,0.92022 1.30228,0.016 1.41264,3.90714 0.1297,4.69991 -0.57594,0.35607 -0.78814,2.02453 -0.52497,4.36023 0.38793,3.44151 0.19207,4.02779 -2.1801,6.19449 -4.2982,3.92586 -4.76258,3.15088 -4.74931,-7.95465 0.0116,-9.64441 0.66931,-13.79138 2.30978,-14.42086 0.13377,-0.0514 0.28597,-0.0761 0.44468,-0.0803 z"
         inkscape:connector-curvature="0" />
    </g>
    <flowRoot
       xml:space="preserve"
       id="flowRoot3020"
       style="fill:black;stroke:none;stroke-opacity:1;stroke-width:1px;stroke-linejoin:miter;stroke-linecap:butt;fill-opacity:1;font-family:Verdana;font-style:normal;font-weight:normal;font-size:40px;line-height:125%;letter-spacing:0px;word-spacing:0px;-inkscape-font-specification:Verdana;font-stretch:normal;font-variant:normal"><flowRegion
         id="flowRegion3022"><rect
           id="rect3024"
           width="668.57141"
           height="262.85715"
           x="40"
           y="749.50507" /></flowRegion><flowPara
         id="flowPara3026" /></flowRoot>    <flowRoot
       xml:space="preserve"
       id="flowRoot3028"
       style="font-size:11px;font-style:normal;font-variant:normal;font-weight:normal;font-stretch:normal;line-height:125%;letter-spacing:0px;word-spacing:0px;fill:#000000;fill-opacity:1;stroke:none;font-family:Verdana;-inkscape-font-specification:Verdana"><flowRegion
         id="flowRegion3030"><rect
           id="rect3032"
           width="628.57141"
           height="242.85715"
           x="57.142857"
           y="755.2193"
           style="font-size:11px" /></flowRegion><flowPara
         id="flowPara3046" /></flowRoot>    <text
       xml:space="preserve"
       style="font-size:40px;font-style:normal;font-variant:normal;font-weight:normal;font-stretch:normal;line-height:125%;letter-spacing:0px;word-spacing:0px;fill:#000000;fill-opacity:1;stroke:none;font-family:Verdana;-inkscape-font-specification:Verdana"
       x="157.14285"
       y="832.36218"
       id="text3075"
       sodipodi:linespacing="125%"><tspan
         sodipodi:role="line"
         id="tspan3077" /></text>
    <flowRoot
       xml:space="preserve"
       id="flowRoot3091"
       style="font-size:11px;font-style:normal;font-variant:normal;font-weight:normal;font-stretch:normal;line-height:125%;letter-spacing:0px;word-spacing:0px;fill:#000000;fill-opacity:1;stroke:none;font-family:Verdana;-inkscape-font-specification:Verdana"
       transform="translate(94.285713,19.999999)"><flowRegion
         id="flowRegion3093"><rect
           id="rect3095"
           width="834.28564"
           height="311.42856"
           x="17.142857"
           y="743.79077"
           style="font-size:11px" /></flowRegion><flowPara
         id="flowPara3097"
         style="font-size:40px;font-weight:bold;line-height:110.00000238%;fill:#ffffff;-inkscape-font-specification:Verdana Bold">Give you up</flowPara><flowPara
         id="flowPara3111"
         style="font-size:40px;font-weight:bold;line-height:110.00000238%;fill:#ffffff;-inkscape-font-specification:Verdana Bold">Let you down</flowPara><flowPara
         id="flowPara3113"
         style="font-size:40px;font-weight:bold;line-height:110.00000238%;fill:#ffffff;-inkscape-font-specification:Verdana Bold">Run around and desert you</flowPara><flowPara
         id="flowPara3115"
         style="font-size:40px;font-weight:bold;line-height:110.00000238%;fill:#ffffff;-inkscape-font-specification:Verdana Bold">Make you cry</flowPara><flowPara
         id="flowPara3117"
         style="font-size:40px;font-weight:bold;line-height:110.00000238%;fill:#ffffff;-inkscape-font-specification:Verdana Bold">Say goodbye</flowPara><flowPara
         id="flowPara3121"
         style="font-size:40px;font-weight:bold;line-height:110.00000238%;fill:#ffffff;-inkscape-font-specification:Verdana Bold">Tell a lie and hurt you</flowPara></flowRoot>    <text
       xml:space="preserve"
       style="font-size:40px;font-style:normal;font-variant:normal;font-weight:normal;font-stretch:normal;line-height:125%;letter-spacing:0px;word-spacing:0px;fill:#000000;fill-opacity:1;stroke:none;font-family:Verdana;-inkscape-font-specification:Verdana"
       x="14.285714"
       y="740.93365"
       id="text3125"
       sodipodi:linespacing="125%"><tspan
         sodipodi:role="line"
         id="tspan3127"
         x="14.285714"
         y="740.93365"
         style="font-size:56px;font-weight:bold;fill:#ffffff;-inkscape-font-specification:Verdana Bold">NEVER GONNA</tspan></text>
  </g>
</svg>
