<?xml version="1.0" encoding="UTF-8" standalone="no"?>
<!-- Created with Inkscape (http://www.inkscape.org/) -->

<svg
   xmlns:dc="http://purl.org/dc/elements/1.1/"
   xmlns:cc="http://creativecommons.org/ns#"
   xmlns:rdf="http://www.w3.org/1999/02/22-rdf-syntax-ns#"
   xmlns:svg="http://www.w3.org/2000/svg"
   xmlns="http://www.w3.org/2000/svg"
   xmlns:sodipodi="http://sodipodi.sourceforge.net/DTD/sodipodi-0.dtd"
   xmlns:inkscape="http://www.inkscape.org/namespaces/inkscape"
   width="210mm"
   height="297mm"
   id="svg3007"
   version="1.1"
   inkscape:version="0.48.2 r9819"
   sodipodi:docname="2.4 GetExcited.svg">
  <defs
     id="defs3">
    <clipPath
       id="clipPath3027"
       clipPathUnits="userSpaceOnUse">
      <path
         id="path3029"
         d="m 0,841.89 595.276,0 L 595.276,0 0,0 0,841.89 z" />
    </clipPath>
  </defs>
  <sodipodi:namedview
     inkscape:document-units="mm"
     id="base"
     pagecolor="#ffffff"
     bordercolor="#666666"
     borderopacity="1.0"
     inkscape:pageopacity="0.0"
     inkscape:pageshadow="2"
     inkscape:zoom="0.81289308"
     inkscape:cx="140"
     inkscape:cy="870"
     inkscape:current-layer="layer1"
     showgrid="false"
     inkscape:window-width="1366"
     inkscape:window-height="706"
     inkscape:window-x="-8"
     inkscape:window-y="-8"
     inkscape:window-maximized="1" />
  <metadata
     id="metadata4">
    <rdf:RDF>
      <cc:Work
         rdf:about="">
        <dc:format>image/svg+xml</dc:format>
        <dc:type
           rdf:resource="http://purl.org/dc/dcmitype/StillImage" />
        <dc:title />
      </cc:Work>
    </rdf:RDF>
  </metadata>
  <g
     inkscape:label="Layer 1"
     inkscape:groupmode="layer"
     id="layer1">
    <rect
       style="fill:#00a64c;fill-opacity:1;stroke:none"
       id="rect2992"
       width="746.85712"
       height="1059.9127"
       x="-0.58789062"
       y="-0.19675924" />
    <path
       style="fill:#ffffff"
       d="m 483.92661,965.55084 c -8.69178,-2.87343 -13.65933,-5.8213 -19.68218,-11.67981 -17.33706,-16.8639 -17.26181,-46.54483 0.16212,-63.96871 3.06229,-3.06233 8.70707,-7.11292 12.54394,-9.00131 6.0648,-2.98493 8.91992,-3.42758 21.8554,-3.38848 12.11925,0.0366 16.39074,0.64693 23.02747,3.29024 l 8.14819,3.24527 0,8.40062 c 0,4.62036 -0.5606,8.40064 -1.2459,8.40064 -0.68516,0 -4.88834,-1.66763 -9.34036,-3.70584 -10.15321,-4.64829 -25.57098,-5.25532 -33.34307,-1.31274 -11.4049,5.78539 -17.0049,14.67604 -17.0049,26.99716 0,9.43997 2.14602,14.05066 9.72751,20.90012 6.12134,5.53033 13.21606,8.1268 22.15667,8.10874 11.35716,-0.0229 12.04515,-0.63789 12.04515,-10.76607 l 0,-9.04573 -7.08538,0 -7.08538,0 0,-7.79391 0,-7.79391 15.58782,0 15.58784,0 0,21.33451 0,21.33454 -8.14819,3.74292 c -9.72028,4.46506 -28.51991,5.80498 -37.90675,2.70175 z m 68.91122,-1.81587 c -4.75046,-2.36727 -8.78587,-5.72226 -11.1137,-9.2398 -2.01012,-3.03762 -3.40211,-5.7355 -3.09318,-5.99529 0.30891,-0.2598 3.65633,-2.25897 7.43864,-4.44262 l 6.87706,-3.97026 3.41927,4.36895 c 8.37463,10.70085 23.21324,7.99779 23.21324,-4.22861 0,-5.39615 -3.86577,-9.38975 -14.05752,-14.52222 -12.82397,-6.45802 -17.85685,-10.93981 -20.72813,-18.45816 -2.73112,-7.15138 -2.08565,-13.22711 2.14149,-20.15697 7.61153,-12.47808 30.57254,-13.94846 41.84154,-2.67944 5.02311,5.023 4.46606,7.28367 -2.85086,11.57172 l -6.40732,3.75488 -2.90655,-3.69515 c -4.98555,-6.33812 -16.8717,-4.05243 -16.8717,3.24443 0,3.62227 5.21597,7.95198 14.88354,12.35469 11.61505,5.28963 16.08706,8.80173 19.36915,15.21175 5.28286,10.31722 2.6777,26.45662 -5.458,33.8138 -8.41304,7.60797 -23.91343,8.94028 -35.69697,3.0683 z m -367.20548,-33.83564 0,-36.13541 -12.75366,0 -12.75368,0 0,-7.79391 0,-7.79391 34.0098,0 34.0098,0 0,7.79391 0,7.79391 -12.75368,0 -12.75368,0 0,36.13541 0,36.13541 -8.50244,0 -8.50246,0 0,-36.13541 z m 52.43178,-7.79391 0,-43.92932 8.50245,0 8.50245,0 0,17.0049 0,17.0049 19.83905,0 19.83904,0 0,-17.0049 0,-17.0049 8.50246,0 8.50244,0 0,43.92932 0,43.92932 -8.50244,0 -8.50246,0 0,-19.13051 0,-19.13051 -19.83904,0 -19.83905,0 0,19.13051 0,19.13051 -8.50245,0 -8.50245,0 0,-43.92932 z m 89.27571,-0.0676 0,-43.99693 8.85672,0.42188 8.85673,0.4219 0.37474,43.57505 0.37475,43.57505 -9.23147,0 -9.23147,0 0,-43.99695 z m 34.0098,0 0,-43.99693 8.80919,0.42188 8.80918,0.4219 22.72074,29.46406 22.72073,29.46404 0.38245,-29.81831 0.38245,-29.81834 8.47427,0 8.47426,0 0,43.92933 0,43.92932 -8.85672,-0.0628 -8.85671,-0.0628 -22.6732,-29.34152 -22.6732,-29.34153 -0.38303,29.4043 -0.38301,29.40431 -8.4737,0 -8.4737,0 0,-43.99696 z m -144.54163,-145.89111 0,-43.92932 8.26225,0 8.26225,0 13.34814,16.94106 c 7.34147,9.31758 13.74062,16.96979 14.2203,17.00489 0.47969,0.0351 6.15255,-6.67942 12.60637,-14.92119 15.84997,-20.24101 14.55743,-19.22718 23.88665,-18.73623 l 7.98122,0.42 0.37475,43.57505 0.37474,43.57506 -9.20271,0 -9.20271,0 -0.38303,-29.40376 -0.38302,-29.40376 -11.91801,14.87875 c -6.55491,8.18329 -12.38008,15.41113 -12.94483,16.06185 -0.56475,0.65071 -6.9988,-6.16217 -14.29789,-15.13971 l -13.27104,-16.32284 -0.38245,29.66473 -0.38245,29.66474 -8.47427,0 -8.47426,0 0,-43.92932 z m 98.15573,35.78114 c 1.71336,-4.4815 9.22975,-24.09028 16.70306,-43.57505 l 13.58787,-35.42688 8.67116,-0.41968 c 7.30682,-0.35366 8.89636,10e-4 10.10252,2.25487 1.58937,2.96972 31.27283,78.90683 32.37985,82.83504 0.6146,2.18088 -0.42249,2.47988 -8.60128,2.47988 l -9.30012,0 -3.11503,-8.54326 -3.11503,-8.54326 -17.71061,0.39508 -17.7106,0.39508 -2.90698,8.14818 -2.90697,8.14818 -9.59652,0 -9.59653,0 3.11521,-8.14818 z m 50.6286,-26.21589 c -0.005,-0.19485 -2.49914,-6.73111 -5.54322,-14.52502 -4.33002,-11.08638 -5.76606,-13.55387 -6.5977,-11.3366 -0.58465,1.55878 -2.87283,7.60224 -5.08484,13.4299 -2.212,5.82764 -4.02184,11.08853 -4.02184,11.69086 0,0.60233 4.78263,1.09513 10.62807,1.09513 5.84543,0 10.62422,-0.15942 10.61953,-0.35427 z m 41.1037,-9.56525 0,-43.92932 8.50245,0 8.50244,0 0,16.61692 0,16.61691 15.70433,-16.61691 15.70428,-16.61692 10.51158,0 c 5.78139,0 10.51158,0.4868 10.51158,1.08179 0,0.59499 -8.88038,9.94518 -19.73418,20.77824 l -19.73426,19.69645 21.25831,23.15108 21.25826,23.15108 -11.20269,0 -11.20255,0 -16.18306,-18.3696 -16.18305,-18.3696 -0.39541,18.3696 -0.39539,18.3696 -8.46133,0 -8.46131,0 0,-43.92932 z m 80.77325,0 0,-43.92932 26.92442,0 26.92444,0 0,7.79391 0,7.79391 -18.42198,0 -18.42198,0 0,9.21099 0,9.21099 14.87929,0 14.87929,0 0,7.79391 0,7.79391 -14.87929,0 -14.87929,0 0,11.3366 0,11.3366 20.54759,0 20.54759,0 0,7.79391 0,7.79391 -29.05005,0 -29.05003,0 0,-43.92932 z M 306.02967,674.47156 c -0.0297,-0.58454 3.94596,-11.74401 8.83487,-24.79881 l 8.8889,-23.73601 5.20332,0 5.2033,0 8.43822,21.6104 c 11.85651,30.36462 11.3975,27.98723 5.40367,27.98723 -4.41627,0 -5.29137,-0.61056 -7.10856,-4.95976 l -2.07233,-4.95977 -9.70714,0 -9.70717,0 -1.79348,4.95977 c -1.57577,4.35772 -2.38437,4.95976 -6.66152,4.95976 -2.67742,0 -4.89235,-0.47826 -4.92208,-1.06281 z m 28.3944,-19.83902 c -10e-4,-1.27286 -5.5052,-15.54437 -5.60158,-14.52502 -0.0368,0.3897 -1.33945,4.05638 -2.89465,8.14818 l -2.82766,7.43964 5.66252,0 c 3.11438,0 5.662,-0.47825 5.66137,-1.0628 z m 22.67435,-3.89696 0,-24.79881 4.6055,0.0441 c 4.18378,0.0401 5.70842,1.49136 16.65062,15.84944 l 12.04514,15.80531 0.40067,-15.84941 0.40069,-15.84941 4.91335,0 4.91335,0 0,24.79881 0,24.79882 -3.89696,-0.0217 c -2.14332,-0.0109 -4.5608,-0.4902 -5.37216,-1.0628 -0.81138,-0.57261 -6.86938,-8.05076 -13.46222,-16.6181 l -11.98699,-15.577 -0.39925,16.6398 -0.39924,16.63979 -4.20625,0 -4.20625,0 0,-24.79882 z m 51.95942,23.85409 c -0.5196,-0.51959 -0.94473,-11.75322 -0.94473,-24.96361 l 0,-24.01891 13.98255,0.5616 c 12.64599,0.50794 14.47477,0.93706 19.132,4.48929 6.74578,5.14524 9.67898,11.09459 9.61379,19.49952 -0.12329,15.99091 -12.26632,25.37684 -32.82983,25.37684 -4.40499,0 -8.4342,-0.42513 -8.95378,-0.94473 z m 24.59099,-11.11507 c 2.27636,-1.17716 4.79542,-3.36713 5.59793,-4.86661 2.04499,-3.82113 1.73777,-14.47202 -0.50257,-17.42263 C 436.29,637.9531 427.74,634.43922 422.32938,634.43922 l -4.29675,0 0,15.58782 0,15.58783 5.73868,0 c 3.15626,0 7.60115,-0.96313 9.87752,-2.14027 z M 317.15215,558.75772 c -25.20115,-7.28172 -39.09831,-33.30291 -31.4825,-58.94814 3.12411,-10.52005 16.38829,-23.89735 27.49945,-27.73398 11.12768,-3.84232 26.52,-3.44688 37.55249,0.96478 l 8.50244,3.39994 0.41859,9.54423 0.41859,9.54423 -7.18966,-4.46932 c -6.05722,-3.76538 -8.91316,-4.56274 -18.13202,-5.06232 -9.53269,-0.51658 -11.76387,-0.1527 -17.31921,2.82449 -17.4533,9.35351 -21.64223,30.09807 -9.04863,44.81087 9.45091,11.04126 26.70403,13.22059 43.47907,5.49207 l 8.21456,-3.78457 -0.42065,8.80669 -0.42064,8.80672 -8.29378,3.28507 c -10.18971,4.03603 -24.76616,5.12316 -33.7781,2.51924 z m -175.44911,-44.06259 0,-44.6978 27.27868,0.38488 27.2787,0.38486 0.42833,7.43965 0.42832,7.43964 -19.20457,0 -19.20457,0 0,9.21099 0,9.21099 14.87929,0 14.87929,0 0,7.79391 0,7.79391 -14.87929,0 -14.87929,0 0,11.3366 0,11.33659 20.61831,0 20.61831,0 -0.42501,8.14818 -0.42498,8.14819 -28.69576,0.38361 -28.69576,0.38361 0,-44.69781 z m 63.76837,43.24124 c 0,-0.84004 6.69568,-11.326 14.87929,-23.30213 8.1836,-11.97613 14.87928,-22.21102 14.87928,-22.74421 0,-0.53319 -6.37684,-9.85441 -14.17075,-20.7138 -7.79391,-10.85941 -14.17074,-20.05336 -14.17074,-20.43103 0,-0.37768 4.43171,-0.68666 9.84826,-0.68666 l 9.84828,0 10.18702,14.96572 10.18703,14.96575 9.92801,-14.96575 9.928,-14.96572 9.71478,0 c 5.34315,0 9.70988,0.47825 9.70387,1.0628 -0.006,0.58454 -6.32171,9.9854 -14.03486,20.8908 l -14.02391,19.828 14.80497,21.66601 c 8.14272,11.91629 15.17566,22.63201 15.62873,23.81269 0.69773,1.81827 -0.75004,2.08247 -9.46266,1.7268 l -10.28643,-0.41992 -10.0837,-15.74432 c -5.54604,-8.65936 -10.72137,-15.91341 -11.50076,-16.1201 -0.77939,-0.20668 -6.1997,6.87825 -12.04514,15.74431 l -10.62806,16.12011 -9.56526,0.41901 c -6.15178,0.26949 -9.56525,-0.12612 -9.56525,-1.10836 z m 168.63191,-43.23998 0,-44.63785 8.50245,0 8.50244,0 0,44.63785 0,44.63786 -8.50244,0 -8.50245,0 0,-44.63786 z m 50.60417,43.75497 c -0.55361,-0.55359 -1.00656,-16.81752 -1.00656,-36.14206 l 0,-35.13552 -12.39939,-0.40945 -12.39941,-0.40944 0,-7.79391 0,-7.79391 34.00979,0 34.00979,0 0,7.79391 0,7.79391 -12.37518,0.40909 -12.37519,0.40909 -0.37847,35.72632 -0.37849,35.72633 -7.85017,0.41609 c -4.3176,0.22885 -8.30313,-0.0368 -8.85672,-0.59045 z m 50.00813,-43.72562 0,-44.6672 26.92443,0 26.92442,0 0,7.79391 0,7.79391 -18.42198,0 -18.42197,0 0,9.21099 0,9.21099 14.87928,0 14.87929,0 0,7.79391 0,7.79391 -14.87929,0 -14.87928,0 0,11.29769 0,11.29769 20.19332,0.39317 20.19332,0.39318 0,7.79392 0,7.79391 -28.69578,0.38361 -28.69576,0.38361 0,-44.6672 z m 68.01959,-0.21903 0,-44.82757 21.66807,0.65857 c 19.46636,0.59167 22.4765,1.0287 29.62452,4.30114 26.91762,12.32331 33.72227,46.43268 13.64544,68.39992 -10.83963,11.86031 -24.87987,16.14557 -53.24716,16.25172 l -11.69087,0.0438 0,-44.82755 z m 43.4838,24.37356 c 10.72073,-4.9915 15.32481,-12.47002 15.32481,-24.89241 0,-7.84574 -0.63498,-10.37745 -3.80342,-15.16537 -5.10303,-7.71108 -13.74279,-11.75061 -27.33027,-12.77824 l -10.67002,-0.80697 0,28.54603 0,28.54604 9.56525,-0.0141 c 7.11741,-0.01 11.44586,-0.88941 16.91365,-3.43523 z M 303.36489,412.54163 c -9.95159,-2.67558 -15.57397,-6.24086 -23.17668,-14.6969 -15.88948,-17.67293 -14.50003,-43.76922 3.26184,-61.26317 14.2171,-14.00264 32.53241,-17.19878 54.87212,-9.57553 l 8.85673,3.02229 0,9.19897 c 0,5.05945 -0.47827,8.95877 -1.06281,8.66515 -9.63355,-4.83876 -16.91317,-7.14391 -24.61115,-7.7933 -8.0399,-0.67825 -10.48723,-0.28308 -17.15648,2.77021 -18.45454,8.44876 -23.59621,29.74848 -10.72101,44.41252 6.72037,7.65409 14.38047,11.01023 25.22747,11.05297 5.07569,0.0199 10.01773,-0.45138 10.98233,-1.04753 1.09999,-0.67984 1.75383,-4.48663 1.75383,-10.21129 l 0,-9.12735 -7.08538,0 -7.08538,0 0,-7.84185 0,-7.84185 15.23356,0.40221 15.23355,0.4022 0.39136,20.76335 0.39136,20.76336 -4.72398,2.91959 c -5.94738,3.67567 -19.68112,7.3058 -27.17784,7.18367 -3.14866,-0.0513 -9.18021,-1.02226 -13.40344,-2.15772 z m 59.40183,-43.09542 0,-43.92932 27.70702,0 27.70701,0 -0.42832,7.43965 -0.42833,7.43964 -18.77624,0.39541 -18.77624,0.39539 0,8.46133 0,8.4613 14.87928,0 14.87929,0 0,8.50246 0,8.50244 -14.87929,0 -14.87928,0 0,10.58916 0,10.58916 20.19332,0.39316 20.19332,0.39319 0.42498,8.14817 0.42499,8.14819 -29.12077,0 -29.12074,0 0,-43.92933 z m 86.44156,7.91671 0,-36.14785 -12.3994,-0.40945 -12.3994,-0.40944 -0.42833,-7.43964 -0.42832,-7.43965 34.08378,0 34.08391,0 0,7.79392 0,7.79391 -12.02077,0 -12.02089,0 -0.37851,35.78114 -0.37864,35.78114 -8.85672,0.4219 -8.85671,0.42188 0,-36.14786 z m -94.23547,-137.7027 c -53.91937,-3.13021 -83.84473,-9.62944 -82.63347,-17.94643 0.90455,-6.21081 14.02293,-10.74885 42.95537,-14.85957 24.31885,-3.45522 103.2179,-3.45522 127.53675,0 29.10116,4.13469 42.05181,8.64509 42.96923,14.96509 0.9184,6.32808 -19.91302,12.52314 -52.88877,15.72851 -15.86719,1.54234 -64.87732,2.87068 -77.93911,2.1124 z m -89.15626,-25.58337 c -0.99612,-2.59585 2.4815,-8.73889 5.63141,-9.94762 2.94305,-1.12937 2.51327,-2.8614 -0.9337,-3.7628 -1.63719,-0.42814 -2.61148,-1.3694 -2.16508,-2.09169 0.4464,-0.7223 -0.73387,-1.14361 -2.6228,-0.93625 -1.89781,0.20832 -6.29976,-1.44013 -9.83862,-3.6844 -11.55256,-7.32642 -10.22056,-15.87738 3.63052,-23.30689 l 7.9257,-4.25122 -4.79676,-12.42579 c -3.29463,-8.53452 -6.47139,-14.10038 -10.14423,-17.77321 -6.30076,-6.30076 -11.16526,-16.02925 -13.27975,-26.55803 -1.50686,-7.50323 -0.84905,-12.822545 1.4128,-11.424644 0.64618,0.399364 2.93893,5.222404 5.095,10.717874 3.85734,9.83169 5.27502,11.17525 9.1816,8.70136 1.62951,-1.03193 1.28907,-3.11184 -1.97356,-12.05742 -2.16853,-5.9457 -3.56824,-11.184897 -3.11051,-11.64264 1.49337,-1.493357 8.39091,7.09889 12.09841,15.07096 2.47741,5.32707 3.89881,11.38205 4.49087,19.13051 0.82962,10.8577 8.48536,34.71834 11.13946,34.71834 1.72264,0 27.71288,-5.7995 28.20768,-6.2943 0.42862,-0.4286 -3.14085,-23.41456 -4.63398,-29.84111 -0.36218,-1.55878 -2.82406,-4.22291 -5.47087,-5.92028 -6.44255,-4.13152 -11.23741,-14.2478 -11.23741,-23.708847 0,-7.864411 3.79812,-17.842887 6.79156,-17.842887 2.31583,0 3.0475,1.998983 4.24772,11.605262 1.3703,10.967442 1.98749,11.622002 9.84704,10.443392 6.25507,-0.93801 6.58225,-1.20483 5.87344,-4.789886 -0.41285,-2.088102 -1.14694,-6.347291 -1.63136,-9.464855 -0.4844,-3.117565 -1.18687,-6.784246 -1.56102,-8.148182 -1.07918,-3.933913 4.10536,-3.04705 8.4015,1.437156 4.4844,4.680697 8.11409,14.293978 8.11409,21.490237 0,2.86655 -1.63,8.48289 -3.62223,12.48076 -3.90291,7.83212 -3.89441,8.12089 0.96425,32.73424 l 1.49283,7.56245 13.69052,-0.86577 c 30.54025,-1.93133 31.40395,-2.08979 31.40395,-5.76156 0,-3.16934 0.52106,-3.34322 11.33993,-3.78416 l 11.33993,-0.46217 -0.002,3.79498 c -0.005,4.29335 0.95448,4.49578 29.27233,6.1838 16.67627,0.99408 14.66778,3.04951 18.18,-18.60491 2.28289,-14.07511 2.2729,-14.37168 -0.65232,-19.32955 -4.14926,-7.03249 -5.056,-17.30306 -2.22163,-25.164555 2.63849,-7.319602 8.62633,-14.190828 12.36591,-14.190828 1.41296,0 2.56887,0.159421 2.56873,0.354268 -1.5e-4,0.194848 -0.96461,5.394535 -2.14347,11.554872 -1.17887,6.160322 -1.92538,11.418473 -1.65911,11.684763 0.26626,0.26629 3.43003,0.88794 7.03039,1.38143 7.34215,1.00637 6.41198,2.36635 9.57078,-13.993003 1.81669,-9.40803 4.70257,-10.742702 7.66014,-3.542687 3.54127,8.620633 3.91297,13.54103 1.61944,21.43075 -2.14475,7.37754 -7.24608,14.42533 -12.57909,17.37859 -1.89889,1.05151 -3.27486,5.47555 -5.41139,17.39746 -1.57578,8.79306 -2.64114,16.2113 -2.3675,16.48495 0.87121,0.87119 28.27659,6.54463 28.84895,5.97228 0.30184,-0.30189 2.54818,-5.29141 4.99178,-11.08783 3.15427,-7.48234 4.7625,-14.10424 5.54473,-22.83193 1.21769,-13.58799 5.3931,-24.51785 12.07802,-31.616899 5.54982,-5.893615 5.9639,-2.758875 1.22974,9.307859 -3.31879,8.45896 -3.61298,10.21962 -1.89279,11.32498 3.86479,2.4832 5.84415,0.57042 9.64007,-9.31567 4.24301,-11.050632 6.71567,-11.838568 6.27948,-2.00108 -0.43844,9.89027 -5.55153,21.89324 -12.20412,28.6493 -4.03172,4.09435 -7.47777,9.91391 -11.07203,18.69818 l -5.21852,12.75368 7.56052,3.86921 c 12.72589,6.5126 15.38035,13.81123 7.64979,21.03277 -2.39896,2.24094 -4.79028,3.97428 -5.31403,3.85191 -0.73688,-0.17215 -7.69444,2.88399 -15.54106,6.82639 -0.2297,0.11544 1.52393,2.15159 3.89696,4.52475 4.59642,4.59642 4.95338,5.583 3.0854,8.52908 -0.93187,1.46952 -2.33931,1.08807 -6.56419,-1.77893 -11.8276,-8.02653 -41.52068,-14.03988 -80.98366,-16.40065 -53.11257,-3.17731 -113.82456,4.35272 -131.43182,16.30133 -6.19905,4.2068 -5.98206,4.16941 -7.11192,1.22501 z m 224.88283,-18.98704 c -0.41577,-1.58971 -1.07245,-2.57374 -1.45945,-2.18674 -0.76664,0.76663 0.58752,5.07709 1.59492,5.07709 0.34122,0 0.28015,-1.30067 -0.13604,-2.89035 z M 261.6655,193.97162 c -1.28989,-1.4253 -2.39559,-3.49778 -2.45713,-4.60549 -0.0861,-1.55103 -0.28247,-1.58798 -0.85396,-0.1607 -0.66392,1.65814 3.16883,7.35765 4.94778,7.35765 0.38971,0 -0.34682,-1.16615 -1.63669,-2.59146 z m 3.37456,-2.30624 c -0.94191,-1.13493 -1.3012,-2.72913 -0.79841,-3.54268 0.9842,-1.59246 -1.03215,-2.06188 -2.50975,-0.58429 -1.22274,1.22276 1.5699,6.19052 3.48003,6.19052 1.03091,0 0.97403,-0.6828 -0.17187,-2.06355 z m 5.05588,-1.80388 c -0.47091,-0.47088 -0.80582,0.36609 -0.74428,1.8599 0.068,1.65082 0.40377,1.9866 0.85613,0.85616 0.40935,-1.02294 0.35902,-2.24517 -0.11182,-2.71606 z m 227.00947,2.16694 c 2.49348,-2.49352 2.07289,-5.38814 -0.77939,-5.36319 -2.12746,0.0186 -2.17777,0.22382 -0.35427,1.44402 1.83979,1.23107 1.75575,1.70446 -0.62508,3.52098 -1.51287,1.15428 -2.11867,2.09868 -1.34622,2.09868 0.77245,0 2.16969,-0.76522 3.10496,-1.70049 z m -3.24412,-6.80195 2.81899,-3.54269 -3.18842,2.69951 c -1.75363,1.48473 -3.18841,3.34463 -3.18841,4.13313 0,0.78849 0.16622,1.16792 0.36942,0.84318 0.20307,-0.32475 1.63786,-2.18466 3.18842,-4.13313 z m -227.45566,-0.70855 c -1.83051,-1.94848 -3.89027,-3.54268 -4.57727,-3.54268 -1.17972,0 6.02567,6.94538 7.30416,7.04059 0.33072,0.0246 -0.89639,-1.54943 -2.72689,-3.49791 z m 33.91576,2.17595 c 1.40457,-0.75171 2.96428,-3.41924 3.466,-5.92783 0.74139,-3.70694 0.22504,-5.27834 -2.75732,-8.39126 -2.53138,-2.64219 -4.62423,-3.60438 -6.74758,-3.10225 -6.9113,1.63442 -8.79986,9.90902 -3.53958,15.50833 3.35068,3.56663 5.63586,4.02302 9.57848,1.91301 z m -8.89732,-2.64179 c -2.4302,-2.68533 -3.07502,-8.30897 -1.26075,-10.99506 4.12994,-6.11443 14.06996,-0.11846 12.23291,7.37913 -1.62068,6.61456 -6.73357,8.29953 -10.97216,3.61593 z m 5.80293,-2.63659 c -1.36393,-0.35643 -2.47988,-1.62606 -2.47988,-2.82137 0,-1.34966 0.8056,-1.86419 2.12561,-1.35764 1.16909,0.44861 2.12561,0.26622 2.12561,-0.40534 0,-2.26254 -4.02954,-2.79024 -5.72321,-0.74948 -2.39707,2.88829 -0.60088,6.33947 3.19886,6.14627 2.40017,-0.12201 2.59414,-0.33131 0.75301,-0.81244 z m 173.38251,2.03963 3.17226,-4.6055 -4.13857,3.72017 c -2.27625,2.04609 -5.0951,4.06822 -6.26418,4.49361 -1.41991,0.51669 -1.09922,0.8106 0.9663,0.88533 1.96946,0.0713 4.24358,-1.56 6.26419,-4.49361 z m 30.99099,-0.40192 c -0.94844,-1.14288 -2.4436,-2.05858 -3.32232,-2.03487 -0.87887,0.0237 -0.48195,0.69306 0.88198,1.48749 1.36393,0.79441 2.5302,2.52866 2.59183,3.85387 0.0722,1.55175 0.37185,1.76195 0.84246,0.59047 0.40188,-1.00044 -0.0454,-2.75407 -0.99395,-3.89696 z m -42.18928,1.88984 c -2.57157,-2.57161 -2.04528,-7.9701 1.2636,-12.96004 l 2.9641,-4.46998 -3.67264,3.97598 c -3.57811,3.87367 -4.55689,8.36731 -2.81246,12.91302 0.47301,1.23285 1.55708,2.24152 2.40902,2.24152 1.03617,0 0.986,-0.56284 -0.15162,-1.7005 z m 7.98138,-5.90594 c 0.81723,-4.24368 -2.19433,-6.16116 -5.08645,-3.23859 -2.34838,2.37306 -2.34794,2.44969 0.0141,1.55901 1.76156,-0.6654 2.47987,-0.2332 2.47987,1.4921 0,1.6129 -0.73885,2.14533 -2.19929,1.58491 -1.32455,-0.5083 -1.83554,-0.25562 -1.28487,0.6354 1.40547,2.27417 5.51583,0.90006 6.08068,-2.03283 z m -109.89407,-3.34971 c 2.63495,-4.5288 2.63074,-4.62646 -0.38147,-8.85671 -2.46048,-3.45546 -4.06604,-4.27741 -8.35512,-4.27741 -4.69269,0 -5.58963,0.58773 -7.72239,5.06019 -2.33139,4.88897 -2.31118,5.20327 0.59707,9.28754 2.53116,3.55468 3.82061,4.15877 8.10386,3.79651 4.02122,-0.3401 5.65471,-1.395 7.75805,-5.01012 z m -15.15117,0.32491 c -2.11332,-3.22534 -2.12476,-3.92986 -0.12654,-7.79391 2.94158,-5.68839 10.52529,-6.06764 14.04087,-0.70219 2.11333,3.22533 2.12477,3.92986 0.12655,7.79391 -2.94158,5.6884 -10.5253,6.06765 -14.04088,0.70219 z m 10.49984,-2.07797 c 0,-0.75492 -0.95653,-1.00554 -2.12561,-0.55692 -1.37993,0.52953 -2.12562,-0.0365 -2.12562,-1.61315 0,-1.57678 0.74569,-2.1427 2.12562,-1.61316 1.16908,0.44861 2.12561,0.26622 2.12561,-0.40534 0,-0.67153 -0.93808,-1.58095 -2.08461,-2.02091 -2.69914,-1.03575 -6.53324,2.79834 -5.49748,5.49749 0.8784,2.28909 7.58209,2.9186 7.58209,0.71201 z m 65.84726,2.35194 c 2.37831,-4.41627 2.38684,-4.9565 0.14655,-9.28873 -2.16072,-4.17835 -2.90002,-4.56017 -8.0699,-4.16775 -4.41974,0.33549 -6.20903,1.28911 -8.00871,4.26829 -2.1505,3.55989 -2.14498,4.19794 0.0767,8.85672 2.13075,4.4682 2.99556,5.02044 7.86216,5.02044 4.7356,0 5.80634,-0.62811 7.99327,-4.68897 z m -14.82911,-0.97097 c -2.52619,-6.09876 1.01192,-11.34496 7.6512,-11.34496 3.94541,0 5.05445,0.72252 6.51263,4.24286 2.52619,6.09877 -1.01191,11.34497 -7.65119,11.34497 -3.94543,0 -5.05446,-0.72253 -6.51264,-4.24287 z m 10.86285,-2.24385 c 0.47182,-1.22953 -0.18588,-3.27923 -1.46155,-4.55489 -2.14779,-2.14781 -2.49098,-2.14781 -4.63876,0 -2.89721,2.89717 -1.56741,6.79038 2.31938,6.79038 1.6077,0 3.30911,-1.00597 3.78093,-2.23549 z m -6.61509,-1.42528 c 0,-2.50246 3.05062,-2.06665 3.92648,0.56091 0.30852,0.92553 -0.44873,1.68279 -1.68278,1.68279 -1.23403,0 -2.2437,-1.00967 -2.2437,-2.2437 z m 62.12101,-0.76277 c -1.04241,-0.66076 -2.85186,-1.17071 -4.02095,-1.13324 -1.18709,0.0382 -0.71789,0.63398 1.0628,1.34971 1.88769,0.75878 3.26722,2.60094 3.38143,4.51568 0.1916,3.21075 0.19754,3.20969 0.83253,-0.14835 0.36121,-1.9107 -0.18521,-3.90517 -1.25581,-4.5838 z m -103.90713,-37.44449 -4.23362,-7.84832 4.18393,-7.73455 4.18392,-7.73455 9.26071,0.006 9.26067,0.006 4.18014,7.74941 4.18011,7.74941 -3.33297,6.06212 c -5.21848,9.49156 -5.39326,9.60519 -14.76604,9.59984 l -8.68321,-0.006 -4.23364,-7.84833 z m 18.46879,-2.70542 c 1.91306,-1.91306 3.47829,-4.4638 3.47829,-5.6683 0,-3.10513 -5.1428,-7.85832 -8.50245,-7.85832 -3.53256,0 -8.50245,4.81158 -8.50245,8.23161 0,4.17084 4.13607,8.1865 8.92112,8.66141 0.61997,0.0615 2.69244,-1.45335 4.60549,-3.3664 z M 368.43502,93.825153 c 0,-7.576221 -0.58976,-13.462211 -1.34886,-13.462211 -0.74188,0 -3.55814,-2.274831 -6.25838,-5.055174 -6.33001,-6.517794 -9.01036,-16.510765 -6.51624,-24.293964 2.58166,-8.056284 7.98236,-14.580184 12.06998,-14.580184 3.41051,0 3.47057,0.208452 3.47057,12.045137 l 0,12.045137 9.21099,0 9.21099,0 0,-12.045137 c 0,-11.895352 0.044,-12.045137 3.5338,-12.045137 2.49915,0 4.74724,1.67511 7.6783,5.72134 8.02472,11.077771 6.83036,24.534229 -3.02659,34.100066 l -5.35137,5.193338 0,12.919501 0,12.919495 -11.33659,0 -11.3366,0 0,-13.462207 z M 255.75598,87.380311 c -0.99154,-3.124069 1.37904,-7.017369 4.27281,-7.017369 2.89376,0 5.26435,3.8933 4.2728,7.017369 -0.58627,1.847185 -2.13948,2.902154 -4.2728,2.902154 -2.13332,0 -3.68654,-1.054969 -4.27281,-2.902154 z m 6.39842,-2.141244 c 0,-1.123088 -0.95652,-2.041975 -2.12561,-2.041975 -2.13445,0 -2.91305,2.991431 -1.21943,4.685062 1.32248,1.322471 3.34504,-0.27565 3.34504,-2.643087 z m 231.6702,2.141244 c -0.99153,-3.124069 1.37895,-7.017369 4.27276,-7.017369 2.89381,0 5.26428,3.8933 4.27276,7.017369 -0.58624,1.847185 -2.13951,2.902154 -4.27276,2.902154 -2.13327,0 -3.68653,-1.054969 -4.27276,-2.902154 z m 6.39837,-2.141244 c 0,-1.123088 -0.95652,-2.041975 -2.12561,-2.041975 -2.1344,0 -2.91308,2.991431 -1.21939,4.685062 1.32241,1.322471 3.345,-0.27565 3.345,-2.643087 z M 271.3438,77.460786 c -0.99153,-3.124069 1.37904,-7.017369 4.27281,-7.017369 2.89376,0 5.26435,3.8933 4.2728,7.017369 -0.58627,1.847186 -2.13948,2.902156 -4.2728,2.902156 -2.13332,0 -3.68653,-1.05497 -4.27281,-2.902156 z m 6.39842,-2.141242 c 0,-1.123089 -0.95652,-2.041977 -2.12561,-2.041977 -2.13443,0 -2.91305,2.991431 -1.21941,4.685062 1.32246,1.322471 3.34502,-0.275649 3.34502,-2.643085 z m 200.63555,2.718148 c -1.34637,-3.50848 0.45346,-7.594275 3.34515,-7.594275 3.58548,0 6.15534,3.564411 5.05937,7.017369 -1.1236,3.54018 -7.10974,3.951075 -8.40452,0.576906 z m 6.25738,-2.718148 c 0,-1.123089 -0.95654,-2.041977 -2.12562,-2.041977 -2.13439,0 -2.91308,2.991431 -1.21939,4.685062 1.32241,1.322471 3.34501,-0.275649 3.34501,-2.643085 z M 288.3487,68.958337 c -1.08914,-3.431561 1.46748,-7.017369 5.00326,-7.017369 2.95195,0 4.64042,3.557708 3.45741,7.285012 -1.16729,3.677848 -7.26968,3.484814 -8.46067,-0.267643 z m 6.39842,-2.057607 c 0,-1.169087 -0.95652,-2.125612 -2.12561,-2.125612 -1.16908,0 -2.12561,0.956525 -2.12561,2.125612 0,1.169087 0.95653,2.125613 2.12561,2.125613 1.16909,0 2.12561,-0.956526 2.12561,-2.125613 z m 166.65451,2.709433 c -2.35787,-6.144635 3.65266,-10.354963 7.74432,-5.424804 1.34622,1.622211 1.45251,2.898939 0.38303,4.605494 -2.05008,3.271359 -6.9951,3.769873 -8.12735,0.81931 z m 6.22861,-2.709433 c 0,-1.169087 -0.91883,-2.125612 -2.042,-2.125612 -2.36736,0 -3.96554,2.022562 -2.64298,3.345033 1.69354,1.693631 4.68498,0.91502 4.68498,-1.219421 z M 305.60068,62.726155 c -1.48041,-3.85793 0.57298,-6.638358 4.56103,-6.175882 2.90402,0.336783 3.71592,1.204982 3.71592,3.973621 0,2.768637 -0.8119,3.636837 -3.71592,3.973604 -2.35389,0.272986 -4.0257,-0.376289 -4.56103,-1.771343 z m 6.15134,-2.202261 c 0,-1.558784 -0.60005,-2.83415 -1.33344,-2.83415 -1.90221,0 -3.24257,2.57926 -2.20925,4.251224 1.48102,2.39633 3.54269,1.571649 3.54269,-1.417074 z m 132.30042,2.125612 c -1.33856,-3.488258 0.58715,-6.376838 4.25118,-6.376838 1.88952,0 3.80257,0.956526 4.25122,2.125612 1.33856,3.488258 -0.58709,6.376838 -4.25122,6.376838 -1.88953,0 -3.80256,-0.956526 -4.25118,-2.125612 z m 5.94075,-0.832007 c 1.46029,-2.36286 -1.8242,-5.072435 -3.77906,-3.117566 -1.63513,1.635191 -0.61175,4.65811 1.57707,4.65811 0.68742,0 1.67824,-0.693248 2.20199,-1.540544 z M 323.1638,58.48886 c -1.25365,-1.510545 -1.28552,-2.788818 -0.12371,-4.959762 1.91004,-3.56896 5.48801,-3.779253 7.91146,-0.464985 3.76612,5.150458 -3.69954,10.350811 -7.78781,5.424747 z m 6.1001,-2.924729 c 0,-0.779391 -1.07057,-1.623259 -2.37909,-1.875243 -1.44972,-0.279192 -2.37911,0.453365 -2.37911,1.875243 0,1.421879 0.92939,2.154435 2.37911,1.875244 1.30852,-0.251985 2.37909,-1.095853 2.37909,-1.875244 z m 97.46175,2.51647 c -1.80451,-3.224512 0.49307,-7.476232 4.0401,-7.476232 3.58061,0 5.86104,4.115823 4.10176,7.403054 -1.71746,3.209136 -6.36351,3.250898 -8.14186,0.07312 z m 6.89482,-2.62037 c 0,-1.319636 -0.96415,-2.042544 -2.36246,-1.771343 -3.55511,0.689478 -4.04326,4.000856 -0.58978,4.000856 1.74063,0 2.95224,-0.914991 2.95224,-2.229513 z m -92.69894,-0.09565 c -1.48827,-3.878377 0.50595,-7.594288 4.07564,-7.594288 3.91578,0 5.58203,3.379652 3.54386,7.188027 -1.78659,3.338274 -6.39998,3.58425 -7.6195,0.406246 z m 6.25737,-2.55089 c 0,-1.123089 -0.56543,-2.391442 -1.25652,-2.818549 -1.56041,-0.96439 -4.73628,2.646601 -3.45478,3.928104 1.686,1.685993 4.7113,0.973502 4.7113,-1.109555 z m 62.40773,2.818519 c -0.93922,-1.13169 -1.29316,-3.363583 -0.78656,-4.959763 1.24499,-3.922619 7.30063,-3.922619 8.54561,0 0.99154,3.124069 -1.37904,7.017369 -4.2728,7.017369 -0.97822,0 -2.54704,-0.92593 -3.48625,-2.057606 z m 5.36149,-3.155655 c -0.60855,-3.159965 -3.12883,-3.228026 -3.73109,-0.100757 -0.29872,1.551144 0.39632,2.479881 1.85585,2.479881 1.42187,0 2.15443,-0.929389 1.87524,-2.379099 z"
       id="path3779"
       inkscape:connector-curvature="0" />
  </g>
</svg>
