<?xml version="1.0" encoding="UTF-8" standalone="no"?>
<!-- Created with Inkscape (http://www.inkscape.org/) -->

<svg
   xmlns:dc="http://purl.org/dc/elements/1.1/"
   xmlns:cc="http://creativecommons.org/ns#"
   xmlns:rdf="http://www.w3.org/1999/02/22-rdf-syntax-ns#"
   xmlns:svg="http://www.w3.org/2000/svg"
   xmlns="http://www.w3.org/2000/svg"
   xmlns:sodipodi="http://sodipodi.sourceforge.net/DTD/sodipodi-0.dtd"
   xmlns:inkscape="http://www.inkscape.org/namespaces/inkscape"
   width="210mm"
   height="297mm"
   id="svg3052"
   version="1.1"
   inkscape:version="0.48.2 r9819"
   sodipodi:docname="4.3 TidyWorkbench.svg">
  <defs
     id="defs3" />
  <sodipodi:namedview
     inkscape:document-units="mm"
     id="base"
     pagecolor="#ffffff"
     bordercolor="#666666"
     borderopacity="1.0"
     inkscape:pageopacity="0.0"
     inkscape:pageshadow="2"
     inkscape:zoom="0.35"
     inkscape:cx="350"
     inkscape:cy="520"
     inkscape:current-layer="layer1"
     showgrid="false"
     inkscape:window-width="1366"
     inkscape:window-height="706"
     inkscape:window-x="-8"
     inkscape:window-y="-8"
     inkscape:window-maximized="1" />
  <metadata
     id="metadata4">
    <rdf:RDF>
      <cc:Work
         rdf:about="">
        <dc:format>image/svg+xml</dc:format>
        <dc:type
           rdf:resource="http://purl.org/dc/dcmitype/StillImage" />
        <dc:title />
      </cc:Work>
    </rdf:RDF>
  </metadata>
  <g
     inkscape:label="Layer 1"
     inkscape:groupmode="layer"
     id="layer1">
    <rect
       style="fill:#194a70;fill-opacity:1;stroke:none"
       id="rect3157"
       width="745.71423"
       height="1054.2856"
       x="-1.4285886"
       y="-0.49494728" />
    <g
       id="g4101"
       transform="matrix(0.08323747,0,0,0.08323747,140.84594,250.77199)"
       style="fill:#ffffff;fill-opacity:1;stroke:none">
      <g
         transform="translate(3211.3224,-283.33265)"
         style="fill:#ffffff;fill-opacity:1;stroke:none"
         id="g3383">
        <path
           inkscape:connector-curvature="0"
           style="fill:#ffffff;fill-opacity:1;fill-rule:evenodd;stroke:none"
           d="m -2792.2427,765.23811 c -8.3057,38.52821 -0.3142,72.39255 8.7778,107.96789 54.9843,-8.07999 88.3791,-13.46129 125.5237,-19.31133 -1.0438,24.4093 8.0667,35.27944 28.0892,31.60036 -9.6352,188.34327 -10.0255,369.75287 -10.5335,551.25067 26.3076,18.3752 55.819,7.9158 84.2676,7.0223 15.6705,-189.7451 9.4297,-362.0406 14.0446,-575.82872 23.6321,6.07628 18.6086,-16.50293 17.5558,-35.11151 55.1415,-12.74076 114.6856,-21.0789 172.0464,-31.60036 -51.823,-27.54563 -106.191,-50.84962 -165.0241,-66.71187 -9.7371,-12.17439 -23.2979,-5.23018 -35.1115,-7.0223 l -7.0223,-19.31134 c -28.9513,-1.82573 -62.5862,-5.78495 -75.4897,6.14453 -0.062,3.19904 0.028,27.29554 -15.8002,24.57805 -57.9155,10.24086 -91.731,16.09277 -141.3238,26.33363 z"
           id="path2525"
           sodipodi:nodetypes="ccccccccccccccc" />
        <path
           inkscape:connector-curvature="0"
           style="fill:#ffffff;fill-opacity:1;fill-rule:evenodd;stroke:none"
           d="m -3121.4132,485.22383 c -3.2497,40.3907 -4.8034,80.10298 3.5112,115.86798 1.1953,20.14141 30.5183,23.0936 73.7342,17.55575 9.1699,-8.97184 30.7289,-10.86422 56.1784,-10.53345 6.8784,8.49259 -20.0366,22.321 26.3336,24.57805 5.5976,221.53342 3.821,435.69264 5.2667,653.07404 34.5263,12.2304 69.0527,5.6979 103.579,-5.2667 -3.5386,-221.7877 -13.964,-443.57539 -7.0223,-665.36309 26.3335,6.43702 35.1116,-2.34067 26.3336,-26.33363 49.7413,-21.06691 96.3648,-35.89826 149.2239,-63.20072 l -1.7556,-15.80018 c -20.5833,-12.87422 -95.9714,-25.74844 -143.9571,-38.62266 -10.814,-2.6213 -16.5098,-0.12441 -22.8226,1.75558 l 10e-5,-15.80018 c -34.4517,0.4733 -64.1508,-6.1824 -107.0901,7.0223 l -0.8778,22.82248 c -55.0034,-0.58731 -79.1086,-13.22425 -160.6352,-1.75557 z"
           id="path2527"
           sodipodi:nodetypes="ccccccccccccccccc" />
        <path
           inkscape:connector-curvature="0"
           style="fill:#ffffff;fill-opacity:1;fill-rule:evenodd;stroke:none"
           d="m -2478.8725,546.66897 c -85.4406,49.85154 -26.8883,155.09434 5.2667,149.22391 61.3347,-10.68354 40.9599,-44.41677 50.9117,-52.66726 11.7038,-5.85196 22.2372,-5.85188 31.6003,0 6.6903,20.36288 15.247,37.69295 40.3783,28.0892 22.53,256.41151 36.8012,515.57598 52.6672,774.20878 31.5631,22.7588 71.3785,7.5982 100.0678,-7.0223 l -84.2676,-767.18648 c 12.4344,-2.21958 27.3261,-2.39151 26.3336,-15.80018 38.6227,8.24692 77.2453,40.18848 115.868,63.20072 25.0982,2.51959 49.0916,3.10557 64.9563,-10.53345 -59.7738,-47.37948 -117.4306,-95.28822 -186.091,-140.44604 -7.8507,-4.53719 -16.1624,-7.69117 -26.3336,-5.26672 l -1.7556,-26.33364 c -23.5779,-11.04401 -40.3201,-1.58095 -59.6896,0 -13.9629,3.10287 -1.2347,38.31186 -1.7555,36.86709 -2.3815,-6.60614 -73.7342,10.53345 -73.7342,10.53345 -19.0578,-26.04268 -37.6838,-45.60669 -54.4228,-36.86708 z"
           id="path2529"
           sodipodi:nodetypes="cccccccccccccccscc" />
        <path
           inkscape:connector-curvature="0"
           style="fill:#ffffff;fill-opacity:1;fill-rule:evenodd;stroke:none"
           d="m -2133.0242,339.51106 c -31.8698,-8.52387 -51.6769,-37.15217 -77.2453,-56.17841 -17.4784,35.11753 -11.5371,116.34252 45.645,298.44783 31.2203,-32.47799 40.1001,-78.09736 107.0901,-89.53435 l 61.4451,7.0223 c 24.1,117.30488 6.2883,206.6686 5.2667,307.2257 -2.778,158.59343 -9.1874,302.66157 -14.0446,452.93847 -1.918,90.2173 -18.779,135.6058 -31.6003,193.1133 5.9151,61.183 191.6965,32.2179 184.3354,3.5112 -15.8552,-68.2032 -33.9334,-125.7364 -38.6227,-247.5362 5.0048,-172.6316 15.4831,-345.26317 29.8448,-517.89475 8.2543,-59.49862 17.148,-118.22987 14.0446,-191.35772 14.6298,2.61758 29.2596,4.31423 43.8894,0 3.5112,-47.40054 3.5112,-95.97146 0,-145.71276 -105.81,-13.09363 -219.9633,-9.50083 -330.0482,-14.04461 z"
           id="path2551"
           sodipodi:nodetypes="ccccccccccccccc" />
        <path
           inkscape:connector-curvature="0"
           style="fill:#ffffff;fill-opacity:1;fill-rule:evenodd;stroke:none"
           d="m -1469.4167,390.42275 c 21.9207,-1.03606 40.7543,-3.61571 71.9786,0 5.534,44.22575 0.5898,71.98582 -5.2667,98.31223 -8.7179,1.81559 -17.2161,3.85082 -21.0669,10.53345 -24.069,1.47506 -47.7958,1.58099 -70.223,-3.51115 -11.851,-5.80285 -21.751,-12.25607 -14.0446,-24.57806 -22.9889,-8.10947 -69.0527,-4.68153 -103.579,-7.0223 -2.7821,18.46064 -7.1207,33.46237 -24.578,19.31133 -12.1012,1.49064 -27.4258,0.83237 -35.1115,5.26673 -4.7762,-5.85192 -6.9833,-11.70384 -3.5112,-17.55576 -80.5735,21.44357 -48.1788,100.951 -45.6449,152.73507 51.7176,52.10622 83.924,178.86268 -3.5112,249.29171 2.3898,16.97056 2.2201,33.94113 -5.2667,50.91169 -6.5884,56.39901 13.3203,101.49261 129.9126,105.33451 47.597,-0.5852 93.3786,-1.1704 143.9571,-1.7556 -5.0037,-3.0022 12.4384,-8.7754 22.8225,-8.7778 12.0818,0 30.6318,-0.1968 29.8448,0 8.1679,25.1384 1.2522,35.1932 1.7556,52.6672 -9.9126,-1.6754 -18.0119,0.2446 -26.3336,1.7556 l 3.5111,10.5335 21.0669,-1.7556 c 11.3756,21.6235 4.3716,45.2892 1.7556,68.4674 53.7192,5.033 26.6751,32.0924 10.5334,56.1784 -9.7131,29.3146 -12.7147,55.8033 8.7779,71.9786 21.3097,29.2976 38.941,59.004 1.7556,94.8011 -14.2557,30.5035 -9.3969,35.839 -9.2039,51.4259 26.4769,5.6771 58.0348,-2.1949 79.4269,17.0416 38.7685,45.7179 11.0808,58.2077 -3.5111,77.2453 -55.7455,23.6459 -156.8967,52.3355 -238.7583,0 -25.713,-16.1333 -45.5897,-52.1282 3.5111,-77.2453 18.5008,-7.3386 37.7782,-11.5706 57.934,-12.2891 -1.7233,-15.2418 6.0181,-38.371 -5.2667,-45.6449 -30.056,-35.0053 -29.2263,-72.3863 5.2667,-112.3569 13.9351,-20.4689 13.8834,-43.0357 -5.2667,-68.4674 -3.767,-17.8593 -27.9392,-35.0385 14.0446,-54.4229 l -1.7556,-64.9562 26.3337,1.7555 0,-14.0446 c -76.8324,1.3092 -154.6311,13.2489 -229.9804,-1.7555 -85.11,-25.9339 -88.5126,-85.91254 -96.5567,-143.95723 -11.8369,-21.58828 -9.7893,-37.62279 -5.2667,-52.66727 -58.6244,-49.39791 -59.3672,-182.97112 -1.7556,-240.51384 -0.5777,-27.64845 0.9981,-54.75851 7.0223,-80.75647 35.7484,-164.81435 122.1279,-125.55278 187.8466,-136.93488 31.0152,4.00326 62.0303,6.10083 93.0455,3.51115 l -1.7556,-12.28903 c -8.987,-1.27494 -13.332,-0.22892 -19.3113,0 l -3.5111,-21.06691 c 12.723,3.60543 22.0718,4.9614 29.8447,5.26673 l 3.5112,10.53345 c 5.4142,-16.47747 14.2141,-17.15475 24.578,-10.53345 z"
           id="path2553"
           sodipodi:nodetypes="cccccccccccccccsccccccccccccccccccccccccccccccccccc" />
        <path
           inkscape:connector-curvature="0"
           style="fill:#ffffff;fill-opacity:1;fill-rule:evenodd;stroke:none"
           d="m -1351.7931,530.86879 c -73.8243,2.14906 -160.3732,182.91889 -15.8002,242.26941 41.6062,-2.38665 83.5332,11.264 122.8903,-103.57895 20.0177,-9.89428 39.2442,14.23775 61.4451,-89.53435 5.2562,-59.68806 14.6403,-119.96583 28.0892,-180.82427 14.9904,-6.96736 2.6664,-71.29489 47.4006,-15.80018 61.0403,32.45429 129.21013,29.26066 200.13559,12.28903 8.81022,13.55643 11.68672,9.31172 15.80018,8.77787 -4.23073,7.05121 61.43149,218.18746 63.20071,226.46924 5.50709,25.77893 34.3895,47.5479 31.60036,38.62266 40.96343,52.9508 81.92685,18.72719 122.89028,28.08921 4.55578,16.73121 17.32229,10.88288 28.08921,10.53345 95.11972,38.11567 80.47814,-1.10049 110.60126,-8.77788 24.39413,2.00638 53.80851,-0.17078 71.97859,7.0223 9.90337,-9.45339 14.63633,-6.8425 17.55575,0 2.65844,25.64286 11.28976,9.80878 15.80018,-1.75557 0.77752,-4.04686 9.16194,-9.00145 12.28903,0 1.88348,26.67848 14.93741,20.75595 21.06691,3.51115 10.2217,-7.08401 7.57952,0.53355 10.53345,1.75557 4.36489,28.09512 10.89396,16.15304 17.55575,1.75558 5.20424,-1.84089 11.04652,-8.78602 14.04461,7.0223 4.68153,24.58711 9.36307,5.03226 14.0446,3.51115 4.72666,-13.82042 6.1795,-1.45026 8.77788,1.75558 5.64874,17.9293 11.65328,6.96415 18.43354,-10e-6 0.89593,-8.40956 41.52279,3.50947 11.41124,-26.33362 -3.74506,-3.04249 -7.33189,-5.61029 -8.77788,-1.75558 -2.71381,1.49381 -4.10193,7.6275 -8.91831,1.76229 -3.03768,-12.91015 -10.22449,-9.00577 -13.03449,-3.72414 -4.17593,0.10971 -15.86135,3.45404 -16.75862,-3.72414 -1.47402,-8.84409 -7.03372,-11.78855 -13.03448,-5.5862 -9.35141,9.65413 -21.26899,2.62077 -20.48276,0 -4.54911,-15.26338 -7.73629,-6.0119 -11.17241,-1.24138 -3.63317,-0.96315 -12.20983,9.93806 -10.55173,-3.72414 -5.28393,-4.55318 -10.73619,-11.29464 -14.89655,-1.24138 -12.91416,8.02861 -16.70959,1.23929 -20.48276,-5.58621 -13.57323,5.14554 -17.80215,9.94322 -47.17241,0 -11.1661,2.28217 -27.19971,-0.30316 -46.55172,-6.20689 -29.71078,-71.08645 -74.39191,-32.3904 -112.96552,-38.48276 -31.95041,0.11247 -60.57041,-3.18093 -100.38934,-12.78853 -12.70229,-3.06484 -30.55822,6.81962 -30.57197,22.60949 -55.17915,-5.92857 -52.88137,-248.35828 -119.37913,-284.40322 -22.62206,-57.48349 -119.16284,-50.90411 -240.51384,-22.82248 -40.1951,8.15434 -39.9637,41.84123 -50.9117,68.46744 -12.289,66.71187 -21.5309,150.183 -36.8671,200.1356 -4.6326,40.57643 -12.5529,28.54789 -19.3113,35.11151 -22.4748,-102.96888 -65.302,-100.58472 -107.0901,-103.57895 z"
           id="path2555"
           sodipodi:nodetypes="ccccccccscccccccccccccccccccccccccccccsccccccc" />
        <path
           inkscape:connector-curvature="0"
           style="fill:#ffffff;fill-opacity:1;fill-rule:evenodd;stroke:none"
           d="m -133.42373,416.75638 c 1.89346,-39.85453 50.268601,-80.31743 117.623551,-87.77877 -3.166201,-5.24846 53.971492,-30.89507 64.956292,-24.57806 12.323507,-1.70386 24.294129,-3.93704 33.355934,-10.53345 33.162023,71.89064 50.849913,146.1024 50.911683,222.95808 -16.76199,-0.64786 -24.88487,22.40955 -40.451459,-1.0418 -50.89679,0.64237 -101.7929035,-1.29931 -152.661837,1.0418 -37.061374,-11.31409 -59.815124,-29.782 -73.734164,-52.66726 -3.97202,19.94625 -27.91391,31.90456 -64.9563,38.62266 -56.17841,9.68052 -112.35683,15.76293 -168.53524,29.84478 -18.2337,34.374 -24.4988,12.8945 -33.35593,3.51115 -27.32138,-11.52132 -54.25289,-41.69067 -3.51116,-107.0901 90.1103,-4.10763 165.24669,-26.51673 270.35863,-12.28903 z"
           id="path2557"
           sodipodi:nodetypes="ccccccccccccc" />
        <path
           inkscape:connector-curvature="0"
           style="fill:#ffffff;fill-opacity:1;fill-rule:evenodd;stroke:none"
           d="m -528.42821,843.36122 c -8.8033,-10.11684 -46.24288,-43.33286 3.51115,-86.0232 l 205.40233,-10.53345 c 30.56343,-2.08748 62.79563,-18.08131 98.31222,-61.44514 1.93055,-9.61636 59.10466,-11.50458 64.95629,-3.51115 18.65148,1.60356 191.614271,110.341 179.582897,119.18442 -12.957764,4.24544 -25.7351835,7.04814 -37.0618,-1.75558 -36.084221,-24.08005 -67.528875,-50.47987 -112.676307,-70.02831 -10.09963,5.47532 -17.68835,4.25487 -22.82248,-3.51115 -15.11755,-4.5841 -18.94612,2.12078 -24.57806,7.0223 2.39244,9.56976 -78.2742,83.24149 -94.80108,84.26763 -38.90986,12.04271 -112.64389,10.62993 -110.60125,8.77787 0.40108,18.65343 -3.35353,25.01966 -19.31133,14.04461 -10.17745,4.68967 -21.74646,7.06009 -36.86708,3.51115 -1.69216,-3.95897 -0.31272,-8.43583 -1.75558,-14.0446 -30.13129,3.18813 -59.62668,3.19674 -91.28992,14.0446 z"
           id="path2559"
           sodipodi:nodetypes="cccccccccccccccc" />
        <path
           inkscape:connector-curvature="0"
           style="fill:#ffffff;fill-opacity:1;fill-rule:evenodd;stroke:none"
           d="m 238.75826,297.37725 c 0,-3.7369 119.37913,-10.77452 119.37913,5.26673 0,7.0223 3.51115,47.40054 3.51115,47.40054 55.7609,-20.82041 109.04223,-19.32467 161.51295,-10.53346 38.40039,21.89427 60.74853,45.02333 56.17841,70.22302 -5.40483,73.85238 -36.82862,51.00601 -49.15611,40.37824 -44.89133,-38.7017 -53.71657,-7.10299 -75.48975,10.53345 -7.49628,100.44116 -18.74523,200.13178 -10.53345,303.71455 30.57595,35.6967 74.81839,71.39341 87.77877,107.09011 -9.07218,24.87578 -15.10326,40.62826 -17.55575,45.64496 -18.72614,6.17768 -37.45228,1.63427 -56.17842,-1.75558 l -17.55575,-19.31133 c 0.77799,56.75682 2.35659,115.91542 0,163.26852 -60.59971,17.6212 -120.24695,37.6235 -200.1356,7.0223 -7.26293,-254.0881 -4.09915,-511.65178 -1.75558,-768.94205 z"
           id="path2561"
           sodipodi:nodetypes="cscccsccccccccc" />
        <path
           inkscape:connector-curvature="0"
           style="fill:#ffffff;fill-opacity:1;fill-rule:evenodd;stroke:none"
           d="m 208.91348,1240.1213 c 27.08758,-7.8851 38.96365,-25.9113 93.0455,-15.8002 l 5.26673,45.645 c 38.69662,-11.8474 76.36662,-27.1169 124.64585,-7.0223 19.59004,10.7644 23.06505,-1.4927 63.20072,38.6226 20.85933,56.1161 -10.05751,40.5421 -29.84478,40.3782 -13.61407,-0.3229 -20.69417,-5.5462 -21.06691,-15.8001 -29.62542,3.2916 -38.53657,19.0118 -52.66726,31.6003 -2.45754,119.8476 -6.52121,238.089 -12.28903,354.6263 36.4323,38.4053 76.60588,78.6812 107.0901,114.1124 -0.36721,39.2766 -7.21755,59.1038 -14.0446,79.0009 -20.75929,11.6738 -30.75648,1.8233 -45.64496,1.7555 l -19.31133,-19.3113 c -12.28903,-9.1603 -24.57806,-32.4887 -36.86709,-54.4228 0.58519,58.5992 1.17039,109.1536 1.75558,161.5129 2.56489,0.855 -52.7674,12.8409 -70.22302,10.5335 -10.44261,-1.3804 -110.60126,-14.0446 -110.60126,-14.0446 -10.73067,-242.1708 11.70384,-500.9242 17.55576,-751.3863 z"
           id="path2563"
           sodipodi:nodetypes="cccccccccccccccscc" />
        <path
           inkscape:connector-curvature="0"
           style="fill:#ffffff;fill-opacity:1;fill-rule:evenodd;stroke:none"
           d="M 14.044604,1027.6966 C 43.040406,950.09957 165.55868,830.02273 119.46735,833.55495 50.210616,855.23734 -6.0166948,906.63656 -17.768742,989.58818 c -7.44657,38.88602 1.771813,53.13172 10.7464402,59.17532 21.9337178,12.8962 31.0777168,51.3718 29.8447828,110.6013 l 1.755575,54.4228 -22.8224805,1.7556 c -8.4675598,1.9967 -4.1543679,9.1058 -5.2667264,14.0446 l 26.3336319,5.2667 c 1.170384,38.021 2.340767,56.5732 3.511151,84.2677 -10.879854,1.9943 -27.18798131,2.9053 -31.8133454,11.1541 -8.2986306,13.9387 -2.1277804,38.002 -5.0537396,57.3133 3.5227104,4.6237 7.1419378,8.7649 12.2890285,5.2667 -9.1264997,273.2223 -20.1746325,549.3271 -26.3336315,818.0982 22.9225657,24.299 55.37115,8.1124 84.267622,7.0223 4.509057,-272.9489 1.193573,-543.9416 17.555754,-819.8537 l 7.022302,-1.7556 c 0.924728,-23.6846 3.6827,-46.7582 0,-71.9786 -9.841019,-3.7793 -20.238954,-6.1662 -33.355934,-1.7556 1.170384,-30.43 2.340767,-60.8599 3.511151,-91.2899 l 12.289028,0 c 7.562433,-14.8211 1.80647,-21.3182 -3.511151,-28.0892 l -8.777877,1.7556 -5.266726,-105.3346 c -1.087079,-40.3308 -20.943941,-33.2505 -35.111509,-71.9786 z"
           id="path2565"
           sodipodi:nodetypes="ccccccccccccccccccccccccc" />
        <path
           inkscape:connector-curvature="0"
           style="fill:#ffffff;fill-opacity:1;fill-rule:evenodd;stroke:none"
           d="m -814.58701,996.09628 c -13.89169,5.38972 -7.0983,14.22702 -1.75558,22.82252 1.2685,5.2539 59.48641,-8.1037 35.11151,61.4451 2.86301,-0.7345 -56.6866,86.646 -52.66726,154.4906 8.91459,14.4777 -28.88799,82.384 -49.15612,70.2231 3.01215,10.6022 5.84807,21.3399 29.84479,15.8001 30.68974,8.2555 60.38704,9.5639 87.77877,-5.2667 14.0446,2.5774 28.08921,6.7933 42.13381,-1.7556 -40.43712,-36.1952 -17.28062,-111.0995 17.55576,-193.1133 10.63495,-4.3751 21.12105,-11.4729 33.35593,0 -1.34697,19.72 -4.0362,38.0977 -7.0223,56.1785 31.77002,9.7024 55.17105,2.6668 82.51204,3.5111 10.44719,-15.0327 23.43926,-28.5384 42.13382,-38.6227 5.4644,-4.9931 8.49709,-10.4726 29.84478,-12.289 l 6.02051,1.0662 0.93103,-6.8276 5.89655,5.2759 4.34483,-8.6897 5.58621,4.9655 1.86207,-7.7586 7.44827,7.138 2.79311,-8.069 7.13793,4.3448 3.41379,-6.8276 8.68966,6.2069 4.96551,-7.1379 7.75862,5.8965 4.65518,-7.4482 8.06896,6.2069 4.65517,-7.4483 9,6.2069 5.89656,-5.5862 6.20689,4.6552 9,-6.5173 5.27586,7.4483 5.89656,-7.4483 9.62069,6.8276 6.51724,-8.069 8.37931,5.8966 7.75862,-6.2069 4.96552,6.5172 7.13793,-6.8276 7.75862,6.8276 7.44827,-6.8276 6.2069,8.069 6.82759,-7.4483 9,3.7242 5.27586,-5.2759 8.37931,4.9655 4.34483,-6.2069 7.44827,5.2759 8.37931,-6.5173 6.51724,7.7587 7.44828,-8.069 10.24138,-23.5862 c -4.04224,-3.3613 -0.66588,-7.4644 -19.86207,-9.3103 1.46401,-5.5266 3.95181,-10.5413 -0.93103,-19.2414 -6.26419,-1.0695 -11.70755,-4.6015 -21.10345,3.7241 0.81894,15.6056 -8.59024,13.3119 -13.65518,18.6207 -77.47431,-0.19 -156.80271,-4.0882 -235.86206,-7.4483 -17.07337,-18.1519 -32.98924,-23.5713 -48.4138,-23.5862 -17.82936,-0.2084 -22.14193,-15.2852 -23.5862,-33.5172 -27.27781,-14.99771 -48.76505,-11.17605 -69.51725,-4.9655 l -12.41379,8.6896 c -31.69418,-20.02409 -67.86058,-26.63152 -109.48356,-16.86922 z"
           id="path2567"
           sodipodi:nodetypes="ccccccccccccccccccccccccccccccccccccccccccccccccccccccccccccccccc" />
        <path
           inkscape:connector-curvature="0"
           style="fill:#ffffff;fill-opacity:1;fill-rule:evenodd;stroke:none"
           d="m -3030.1232,1544.7136 c 10.2809,10.7829 24.255,24.3358 43.8893,42.1338 -3.4722,31.728 -12.2775,50.5932 -17.5557,73.7342 -13.2854,19.2112 -37.5382,20.1434 -57.0562,28.967 -20.9992,-8.5987 -40.1075,-28.5432 -63.2007,-24.5781 -26.818,96.7233 50.9117,91.23 76.3675,115.868 l -13.1668,1.7556 c 0,0 -8.2975,9.9142 -0.8778,14.9224 15.1111,10.1999 23.7962,8.0279 23.7003,7.9001 8.1264,257.4844 20.6102,514.9688 20.1891,772.4532 -6.4223,24.8396 -45.5518,76.7652 -0.8778,140.446 -0.8105,2.1704 29.0354,33.3853 67.5897,31.6004 24.1906,-1.8847 30.8773,-9.6041 34.2337,-18.4336 -18.4876,-19.9669 -36.685,-39.7523 -36.8671,-48.2783 2.5499,-20.4817 4.9992,-40.9634 16.678,-61.4451 4.8264,-1.4601 9.5747,-2.7641 16.6779,-8.7779 13.993,15.7796 24.8629,19.6914 27.2114,-8.7779 l 9.6557,0 c 11.4173,5.894 21.5817,3.0186 35.1115,23.7003 7.5152,-0.1643 9.9609,1.3612 23.7003,-0.8778 l 8.7779,-0.8778 c -17.713,-115.571 -75.7531,-83.575 -89.5344,-105.3345 -3.5582,-0.6898 -7.4653,0.017 -8.7779,-9.6557 -1.463,-250.1695 -15.1449,-497.2843 -4.3889,-750.5085 35.9512,-3.88 30.8764,-17.2277 6.1445,-35.1115 12.4532,-43.7931 50.3512,-63.2015 11.4113,-156.2462 -45.3222,-47.5053 -102.8539,-58.337 -129.0348,-24.5781 z"
           id="path2569"
           sodipodi:nodetypes="cccccccsccccccccccccccccccc" />
        <path
           inkscape:connector-curvature="0"
           style="fill:#ffffff;fill-opacity:1;fill-rule:evenodd;stroke:none"
           d="m -2786.0983,1675.504 28.967,35.9893 -16.6779,41.256 -22.8225,16.678 c -17.39,-3.1941 -28.0995,-23.0894 -41.256,-36.8671 -50.2036,59.4895 -18.0193,93.5358 -9.6557,110.6012 17.059,17.1202 30.6883,17.0919 45.645,23.7003 l -1.7556,6.1445 c -5.1874,-4.0717 -10.2735,-7.7382 -13.1668,-2.6333 l -0.8778,14.9224 c 4.1164,9.4592 11.4053,10.987 20.1891,8.7778 l 9.6557,16.678 c -3.3049,208.8271 -11.7039,412.5602 -17.5558,618.8403 -22.4027,48.0644 -77.141,51.0742 -40.3782,138.6905 20.7706,12.6483 11.9705,38.4392 90.4121,25.4559 1.6374,-11.4113 -8.7228,-22.8225 -15.8002,-34.2338 25.0713,3.1121 25.7104,-11.6927 15.8002,-34.2337 6.4304,-6.1579 13.5231,-10.9914 24.5781,-7.9001 4.4698,17.9087 15.8991,24.2181 27.2114,30.7226 8.1431,-24.2135 29.5586,-28.5185 16.678,-84.2676 -11.5564,-16.7517 -22.2278,-33.9459 -47.4006,-43.8894 2.101,-217.0953 19.9357,-429.6675 26.3337,-651.3185 27.5924,10.7587 36.3026,-32.6521 6.1445,-27.2114 12.3873,-48.0377 70.5901,-62.5949 28.967,-150.1017 -28.8306,-27.9576 -59.1369,-52.1591 -113.2347,-15.8002 z"
           id="path2571"
           sodipodi:nodetypes="ccccccccccccccccccccccccc" />
        <path
           inkscape:connector-curvature="0"
           style="fill:#ffffff;fill-opacity:1;fill-rule:evenodd;stroke:none"
           d="m -2603.5184,1849.306 25.4558,10.5334 -0.8777,43.0116 c -8.1326,5.3843 -18.6106,9.9868 -20.1892,17.5558 -15.7172,0.8996 -24.4606,-8.6615 -35.9893,-14.0446 -18.8466,34.5745 9.3712,50.3232 22.8225,71.9786 l 0.8778,12.289 c -4.9741,-0.7124 -9.9483,-6.0401 -14.9224,1.7556 -4.9045,4.6815 -2.8115,9.3631 -0.8778,14.0446 7.7397,11.4871 12.9484,10.3189 18.4336,10.5334 -1.9361,169.7056 1.2582,339.4113 -11.4113,509.1169 -33.3144,59.944 -24.6008,66.1005 -20.1891,94.8011 26.6253,31.2658 46.999,36.3199 66.7119,23.7002 -2.3319,-11.4053 -3.2662,-21.8788 -12.2891,-37.7448 -3.7284,-8.8322 1.6036,-15.3993 7.0224,-21.9447 1.6372,5.9703 1.6931,13.5218 12.289,10.5334 10.8808,-0.2012 9.1797,-7.9516 8.7779,-14.9224 -0.6293,-3.789 -4.6377,-6.4517 -12.2891,-7.9001 4.0018,-5.4559 7.7818,-11.3552 14.0446,-12.289 l 18.4336,14.9224 c 5.1017,-13.0137 22.2391,-11.5846 6.1445,-50.0339 -5.1808,-13.0175 -11.5686,-24.0233 -23.7003,-25.4558 2.6328,-171.7535 0.4149,-341.0817 7.9001,-515.2614 37.6489,23.2414 32.3407,-20.1714 9.6557,-14.9224 9.464,-35.8245 50.1107,-50.8605 15.8002,-115.868 -27.8416,-16.5876 -56.0376,-41.6793 -81.6343,-4.3889 z"
           id="path2573"
           sodipodi:nodetypes="cccccccccccccccccccccccccc" />
        <path
           inkscape:connector-curvature="0"
           style="fill:#ffffff;fill-opacity:1;fill-rule:evenodd;stroke:none"
           d="m -2454.2945,1890.562 c 6.9489,8.9974 9.6039,19.4261 22.8225,26.3336 l 0,28.967 c -4.7042,5.0194 -8.875,8.972 -15.8002,18.4335 -11.4254,3.8179 -15.5531,0.3381 -22.8225,0 -12.5926,-15.6268 -20.9998,-22.0831 -28.967,-23.7002 -9.5859,7.223 -10.8449,24.4383 -8.7778,45.6449 17.2738,37.0207 37.6164,34.1484 57.0562,43.0116 l -0.8778,11.4113 c -4.3889,-4.7692 -8.7779,-7.1737 -13.1668,-2.6334 l 0.8777,13.1668 c 2.3995,12.4054 10.7991,6.8106 17.5558,6.1445 9.1535,139.0038 9.6939,275.8544 9.6557,412.5603 -22.7563,29.3899 -35.1854,60.8452 0,101.8234 -6.8676,9.9893 46.2738,25.8977 63.2007,-3.5112 1.8054,-3.1367 -21.9447,-19.3113 -21.9447,-19.3113 6.1445,-1.3014 12.289,3.9272 18.4335,-7.9001 0,0 1.3836,-10.6272 0,-16.678 -2.6208,-11.4615 -18.9293,-7.6723 -19.3113,-6.1445 2.4374,-8.3741 6.0422,-16.4146 24.5781,-20.1891 11.0082,7.9718 21.0669,14.0445 34.2337,26.3336 10.9714,-15.0468 20.6096,-31.0167 1.7556,-66.7118 -23.4558,-21.3098 -27.342,-15.2221 -40.3783,-21.9447 -8.2313,-133.7439 -9.609,-272.9708 -6.1445,-416.0714 l 5.2667,0 c 22.9745,12.422 20.5249,2.598 26.3337,0 3.4312,-4.0255 5.2961,-8.573 1.7555,-14.9224 -7.6731,-5.1409 -15.6456,-12.3771 -21.0669,-1.7556 l -11.4112,-2.6334 2.6334,-17.5557 c 7.3376,-24.2552 24.894,-34.8854 6.1445,-93.9233 -43.3889,-31.7698 -60.6791,-11.3421 -81.6343,1.7556 z"
           id="path2575"
           sodipodi:nodetypes="ccccccccccccccsccscccccccccccccc" />
        <path
           inkscape:connector-curvature="0"
           style="fill:#ffffff;fill-opacity:1;fill-rule:evenodd;stroke:none"
           d="m -2297.1705,1910.7511 c 6.1445,0.8778 25.4559,17.5558 25.4559,17.5558 l -0.8778,26.3336 c 0.3338,19.9583 -13.9691,17.9616 -21.9447,25.4558 l -17.5558,-13.1668 c -8.1293,-11.6798 -12.3841,-3.9865 -18.4335,-5.2667 -8.4432,44.7041 3.8249,58.3411 18.4335,68.4674 l 17.5558,8.7779 -7.0223,11.4112 c -4.4436,18.994 5.7689,18.4468 14.9224,19.3114 1.9574,139.2756 12.8578,278.5513 19.3113,417.8269 -13.0123,9.8575 -24.8477,23.481 -26.3336,70.2231 12.7973,49.3798 38.6997,60.6358 77.2453,35.1115 -5.7907,-7.2537 -13.8696,-16.7956 -21.9447,-26.3337 3.4731,-7.353 2.9008,-18.7513 1.7556,-30.7225 6.3318,10.5683 14.4485,13.1045 25.4558,2.6333 4.1009,-3.2152 -0.1528,-12.6962 -5.2667,-22.8225 l 13.1668,-7.9 c 7.0223,7.9989 14.0446,13.5819 21.0669,19.3113 7.8682,-8.7446 15.6815,-17.5577 5.2667,-49.1561 -4.8743,-24.9084 -20.4742,-24.7905 -31.6003,-35.1115 -9.9938,-136.2614 -19.8575,-266.2319 -29.8448,-410.8047 8.4826,7.0087 14.8891,3.6373 21.0669,-0.8778 2.0101,-12.0321 7.3048,-26.0349 -13.1668,-24.578 l -6.1445,0.8777 c 5.6881,-31.4693 35.972,-41.6221 10.5334,-100.0678 -30.1985,-24.8226 -52.5744,-18.3546 -71.1008,3.5112 z"
           id="path2577"
           sodipodi:nodetypes="ccccccccccccccccccccccccccc" />
        <path
           inkscape:connector-curvature="0"
           style="fill:#ffffff;fill-opacity:1;fill-rule:evenodd;stroke:none"
           d="m -2059.29,1628.9812 -1.7556,-12.289 c 21.8606,-3.3374 35.36,-13.6425 75.4898,-1.7556 0,0 -3.6756,18.5069 -0.8778,14.0446 7.7336,-12.3347 20.7858,-3.8612 20.1891,-0.8778 l 0.8778,18.4336 c -4.9852,9.341 -14.76,9.1027 -26.3337,5.2667 -17.2661,287.0366 -42.1277,574.0732 -37.7448,861.1098 -15.4464,34.0635 -47.4432,35.0263 -79.0009,36.8671 14.6298,-295.5219 44.7673,-552.2745 43.8894,-886.5656 l -11.4113,-1.7556 c -1.0513,-6.6395 -5.0183,-7.5404 0,-26.3336 l 16.678,-6.1446 z"
           id="path2579"
           sodipodi:nodetypes="cccsccccccccc" />
        <path
           inkscape:connector-curvature="0"
           style="fill:#ffffff;fill-opacity:1;fill-rule:evenodd;stroke:none"
           d="m -1774.009,1546.4692 c 1.4526,-20.342 98.6266,-14.4161 101.8234,2.6334 -3.5839,21.7062 1.9158,40.008 -3.5112,57.0562 l 7.0223,0.8777 c -1.7297,101.4424 -17.1854,183.2762 -35.1115,261.5808 7.2938,38.7373 -0.7418,54.4806 -1.7556,80.7565 -3.7051,6.8283 -9.1756,11.8913 -17.5557,14.0446 1.2083,14.2735 -1.5066,27.5662 -9.6557,39.5004 2.1157,25.488 -11.5568,23.9105 -25.4558,21.9447 -8.2386,142.5859 -20.6766,293.5707 -24.5781,427.4826 -11.3145,6.3455 -22.5756,12.3165 -31.6003,2.6334 1.3356,-29.7114 -1.9437,-65.1915 7.9001,-84.2676 16.392,-174.6961 9.7291,-219.813 20.1891,-335.3149 -7.6914,-3.0093 -15.4822,-5.9441 -14.0446,-15.8002 -10.0926,7.381 -25.5244,-3.054 -27.2115,-8.7779 -2.6532,-8.3489 -3.1356,-15.6124 3.5112,-19.3113 l 17.5558,2.6333 c -2.5111,-13.1668 -10.4784,-26.3336 0,-39.5004 l -14.0447,-1.7556 c -2.1753,-15.2574 -3.0272,-30.0736 1.7556,-43.0116 l 7.0223,-0.8778 c -13.791,-14.5406 -3.5561,-32.5135 -2.6333,-49.1561 l 9.6556,3.5112 c 0.9292,-82.2195 -0.3444,-164.4389 14.0446,-246.6584 l 7.9001,-7.0223 c -1.4406,-23.2502 0.8641,-44.6277 8.7779,-63.2007 z"
           id="path2581"
           sodipodi:nodetypes="cccccccccccccccccccccccccc" />
        <path
           inkscape:connector-curvature="0"
           style="fill:#ffffff;fill-opacity:1;fill-rule:evenodd;stroke:none"
           d="m -1519.4506,1693.0597 c 15.7831,-3.9974 32.1985,-22.3878 81.6343,6.1446 -3.4168,85.136 6.2369,175.718 -22.8225,250.1695 -6.9634,34.7011 -17.7927,77.1341 -18.4335,99.19 -2.3195,45.4374 -15.0342,49.2941 -26.3337,58.8117 l -4.3889,12.2891 c 3.7006,-5.2836 9.8319,-3.275 15.8002,-1.7556 4.6647,9.2393 4.3991,16.5065 -2.6334,21.0669 -3.3435,1.0454 -5.411,3.3669 -13.1668,0 -7.2371,54.4042 -14.8486,110.3061 -17.5557,146.5906 l -7.9001,8.7778 c -5.4261,-46.3721 -3.0658,-95.3397 -1.7556,-143.9572 -0.012,-9.9423 -1.9208,-18.9361 -15.8002,-21.9446 -6.4863,0.449 -8.7087,-2.5132 -3.5111,-11.4113 7.4184,0.052 12.0888,-1.2704 23.7002,0.8778 l -1.7556,-12.289 c -7.4569,-7.2069 -16.5626,0.4253 -21.9446,-25.4559 3.9068,-52.461 1.2191,-118.1112 0.8777,-179.0687 0.4461,-45.0896 -8.9873,-69.4321 35.9893,-208.0357 z"
           id="path2583"
           sodipodi:nodetypes="ccccccccccccccccccc" />
        <path
           inkscape:connector-curvature="0"
           style="fill:#ffffff;fill-opacity:1;fill-rule:evenodd;stroke:none"
           d="m -1326.3373,1729.049 c -0.5638,5.2668 -4.0614,93.9233 -7.9,93.9233 1.0465,16.3096 -2.531,40.7111 7.0223,42.1338 -5.8519,114.7942 -11.7039,213.9338 -17.5558,320.3926 -6.3798,-1.199 -5.6642,1.5154 -16.678,2.6334 -7.3162,0 -9.0792,13.6377 -0.8777,23.7002 5.7528,7.0584 45.4305,8.854 52.6672,0.8778 1.5792,-1.7406 0.2516,-15.297 -4.3889,-24.578 l -12.2891,-5.2668 c 8.4853,-103.1931 16.9706,-195.7424 25.4559,-309.8591 4.49,-3.692 9.1842,-6.5671 11.4112,-19.3113 4.7702,-35.5401 0.9627,-76.7986 -0.8778,-116.7458 -2.768,-15.5532 -22.714,-7.0572 -35.9893,-7.9001 z"
           id="path2585"
           sodipodi:nodetypes="cccccsscccccc" />
        <path
           inkscape:connector-curvature="0"
           style="fill:#ffffff;fill-opacity:1;fill-rule:evenodd;stroke:none"
           d="m -1513.306,856.52803 c -25.1565,9.05796 -15.9309,83.65129 0.8777,81.63426 123.1769,7.77476 251.3139,-1.81091 377.4488,-4.38894 10.8067,8.88828 13.4086,23.24645 47.4005,16.67797 0,0 -0.6897,9.11213 -3.5111,7.0223 -2.8159,-2.08577 -11.6906,-3.6255 -12.642,-0.77129 -2.9603,4.31964 -8.4169,7.92606 -0.3636,15.39248 18.141,3.11572 2.7647,4.68325 20.9056,-1.45437 -15.4837,266.82356 -29.5266,532.20636 -46.5227,800.54236 -8.2077,3.0961 -14.311,9.6994 -17.5558,21.067 -3.238,11.8598 -1.47,21.2167 -1.7555,31.6003 12.0669,9.5993 34.3056,11.0612 31.6003,32.4782 -5.1525,11.1871 -20.4123,16.3099 -33.3559,22.8224 -4.5309,18.141 -5.4969,36.2819 -1.7556,54.4229 8.7792,15.7988 33.0462,16.1099 26.3336,47.4005 -9.8163,7.8425 -20.1347,13.6768 -31.6003,14.9224 -8.1038,19.3113 -2.7624,38.6227 -1.7556,57.934 7.0223,12.8742 26.8929,10.7588 21.0669,38.6227 1.5109,10.0524 -13.9224,12.843 -22.8225,18.4335 -7.9024,15.5067 -1.335,36.8012 -1.7555,55.3006 10.6557,13.884 36.4149,17.4339 18.4335,50.9117 -12.0939,2.4774 -27.1933,0.1461 -31.6004,14.9224 -4.0818,7.3149 0.6055,14.6298 2.6334,21.9447 10.665,3.1452 20.5772,5.0357 26.3336,0 3.5062,15.8175 3.7651,43.0007 10.5335,47.4005 3.4131,-1.652 8.111,-20.005 13.1668,-43.0116 26.1296,20.8273 26.0396,-4.6152 24.5781,-32.4781 12.7122,-17.0615 2.9259,-38.6227 4.3889,-57.934 -9.9483,-19.0235 -19.8965,-20.7406 -29.8448,-21.9447 12.3693,-8.4051 27.7888,-13.7599 32.4782,-29.8448 9.538,-8.7787 4.0963,-36.2819 6.1445,-54.4228 -9.3994,-22.9152 -22.5482,-25.209 -35.1115,-30.7226 12.3713,-10.1159 32.4524,-17.6619 35.9893,-30.7226 7.5737,-11.445 4.44,-33.5974 6.1445,-50.9116 0.9445,-19.1499 -17.5323,-26.3481 -37.7449,-32.4782 14.6535,-4.7686 26.349,-16.9323 37.7449,-29.8448 4.1428,-21.6614 7.514,-43.1684 3.5111,-63.2007 -4.533,-12.7083 -12.0344,-23.7204 -28.0892,-29.8448 12.9226,-4.7476 26.1285,-8.7397 34.2337,-26.3336 1.3984,-6.3706 3.1538,-12.2652 -0.257,-25.0481 -2.2291,-10.0119 -10.38,6.9344 -15.5431,10.1257 13.9093,-258.7634 21.0741,-521.0337 49.1561,-784.74222 11.3277,12.79112 19.9843,4.21305 29.8448,5.26672 7.16702,-9.07047 7.13788,-18.14095 6.14448,-27.21142 6.7297,-4.58105 13.45941,-4.64085 20.18911,-16.67796 102.76818,-1.77792 216.93312,-7.35475 329.1704,-12.28903 25.08222,-19.73101 38.00159,-41.64509 -0.87779,-72.85638 -112.22141,-1.99135 -225.09656,-4.9633 -330.92597,2.63336 -3.8057,-10.23597 -11.4829,-10.79319 -18.43353,-13.16682 -39.8184,0.24182 -81.5261,-3.29475 -116.7458,6.14452 -5.8053,0.0397 -9.971,5.27166 -14.0446,10.53345 -127.2792,2.04817 -250.9091,2.27168 -381.8376,6.14451 z"
           id="path2587"
           sodipodi:nodetypes="ccccsccccccccccccccccccccccccccccccccccccccccccccccc" />
        <path
           inkscape:connector-curvature="0"
           style="fill:#ffffff;fill-opacity:1;fill-rule:evenodd;stroke:none"
           d="m -523.86207,1453.6552 c 32.45718,-4.9748 60.20057,1.0493 85.65517,12.4138 8.28997,-72.0047 13.77844,-143.0756 28.55173,-217.2414 30.23015,-3.9147 58.71348,-14.2345 95.5862,6.2069 l 1.24138,9.931 c 11.40921,-26.7335 91.10365,-12.2617 94.34483,4.9655 -8.53206,148.2808 -24.38567,294.7312 -42.2069,440.6897 -10.81518,20.1685 -23.56463,60.4581 -32.27586,21.1034 -12.10066,134.4576 -27.62657,268.0589 -31.03448,404.6897 -4.97219,48.9544 -7.17799,45.3473 -9.93103,52.1379 -7.29001,2.008 -13.66881,1.2823 -18.62069,-3.7241 6.92092,-145.3549 15.57935,-288.9724 24.82758,-432 -10.09632,1.0755 -16.63367,-3.1874 -17.37931,-16.1379 l 1.24138,-16.138 c -4.69205,-58.3448 -4.52136,-116.6897 2.48276,-175.0345 -14.01682,76.1901 -21.61921,158.7946 -42.2069,228.4138 -7.86207,14.5843 -15.72413,25.1046 -23.5862,21.1035 10.66954,38.1088 -6.29304,24.4075 -12.4138,31.0345 -21.40511,125.1408 -36.38873,252.4221 -50.89655,379.862 -7.03448,-1.4365 -14.06897,0.5788 -21.10345,1.2414 -2.66362,-16.6422 -4.45715,-32.8493 -2.48276,-47.1724 11.17242,-112.5517 25.80061,-221.6477 33.51725,-337.6552 -29.56916,-11.66 -9.01157,-27.3634 -3.72414,-34.7586 -3.72414,-0.6838 -7.44828,-7.273 -11.17242,-14.8965 -5.6805,-30.1506 2.21439,-53.5135 4.96552,-79.4483 -6.62069,34.3448 -15.9032,58.0424 -19.86207,103.0345 7.19871,9.2519 2.9846,13.9387 -1.24138,18.6207 -0.0744,12.1357 -2.91084,23.1667 -26.06896,26.0689 4.61103,16.9226 -1.22836,28.145 -22.34483,31.0345 -14.73358,121.6552 -26.97106,243.3103 -45.93104,364.9655 -19.3312,6.5662 -37.62951,9.0008 -54.62068,6.2069 -5.22418,-25.7327 -5.3788,-54.0003 -1.24138,-84.4138 16.56294,-90.7269 28.33449,-180.256 53.37931,-273.1034 -2.84005,-9.0675 -28.5271,-4.8075 -6.2069,-28.5518 -16.53636,-11.052 -15.15712,-19.5446 17.37931,-23.5862 l 1.24138,-6.2069 -11.17241,-9.931 c 10.14602,-119.4151 40.49018,-242.1966 63.31034,-363.7241 z"
           id="path2589"
           sodipodi:nodetypes="cccccccccccccccccccccccccccccccccccccc" />
        <path
           inkscape:connector-curvature="0"
           style="fill:#ffffff;fill-opacity:1;fill-rule:evenodd;stroke:none"
           d="m -727.44828,1504.5517 c 45.57781,-41.7225 82.65919,-35.2986 114.2069,2.4828 4.96105,194.4179 -22.70088,346.8919 -49.65517,500.2758 -0.19876,27.7567 -1.54379,50.9283 -8.68966,50.8966 6.59063,3.1003 -7.666,33.4817 -27.09735,23.5862 6.68113,-2.2409 -12.55432,293.55 -23.7992,299.1724 -18.68389,-12.1724 -27.64976,-36.0065 -34.75862,-62.0689 9.10345,-71.3001 18.20689,-166.3399 27.31034,-249.5173 -11.83048,-0.6647 -24.22001,-0.9568 -8.68965,-19.8621 -2.54786,-0.251 -6.4409,2.8609 0,-19.862 -8.66713,-178.5749 4.79861,-350.826 11.17241,-525.1035 z"
           id="path2591"
           sodipodi:nodetypes="ccccccccccc" />
      </g>
      <path
         inkscape:connector-curvature="0"
         sodipodi:nodetypes="cccccccccccccccccccccccccscccccccccccccccccccccccccccccccscccccccccccccccccccscccccccsccccccccccccccscccccccccccscccccccccccssccccsc"
         d="m 390.9817,5841.9733 c -35.0908,16.0825 -79.8098,30.5604 -96.8276,49.6552 -43.5865,26.0097 -17.6804,66.9108 -19.8621,101.793 272.5176,274.6341 509.6903,591.682 868.9656,762.207 183.6042,30.9176 283.5411,-5.8955 270.6207,-134.0691 -37.276,-152.8534 -117.7991,-160.9991 -178.7587,-238.3448 9.7998,-265.6552 28.2097,-531.3103 2.4828,-796.9655 500.9653,-201.1041 992.8717,-429.3849 1484.6896,-657.9311 368.477,234.0562 736.4809,273.5492 1060.138,521.3793 43.0344,-14.0969 86.0689,5.523 129.1034,-49.6551 -108.8539,-311.2204 -271.4963,-256.0189 -238.3448,-273.1035 13.4579,-217.5469 24.4861,-436.3087 24.8276,-660.4138 62.3242,-3.7536 108.8108,-65.5785 151.4482,-141.5172 12.3956,-65.3793 7.1598,-130.7587 0,-196.138 -79.7875,-90.5792 -105.8315,-65.9937 -141.5172,-62.0689 18.6281,-182.7562 40.158,-364.545 39.7241,-553.6552 17.3793,21.4318 34.7587,29.8784 52.138,24.8276 64.574,-12.397 125.4456,-27.571 163.862,-59.5862 12.9147,-37.6262 19.307,-77.4264 12.4138,-121.6552 32.0719,9.9425 56.0992,-12.2931 81.9311,-27.3102 16.4801,-15.7242 12.2778,-31.4484 2.4827,-47.1725 l 22.3448,0 c 9.8985,-14.8966 18.5487,-29.7931 2.4828,-44.6897 22.1105,0.5933 36.2859,-6.7486 52.1379,-12.4138 -15.9687,84.6584 -10.6641,148.0434 -14.8965,220.9655 -10.7482,53.7408 47.6973,64.1175 96.8276,32.2759 10.3041,-6.6782 36.2141,-215.8573 24.8276,-223.4483 174.189,-11.8382 417.9955,-116.4998 628.1379,-176.2759 -14.5859,130.2417 -20.7928,268.8624 -47.1724,387.3104 -16.5844,7.0369 -32.0028,14.0835 -12.4138,54.6207 13.8602,13.2491 31.1377,12.8287 49.6552,7.4483 17.5649,-0.1523 38.4276,-33.2926 7.4483,-52.138 6.7708,-132.4889 36.0157,-276.2148 54.6206,-414.6206 24.1006,-18.7831 53.3308,-24.7421 81.9311,-32.2759 7.8789,-96.5296 24.3181,-191.8364 17.3793,-290.4828 -13.5724,-2.1517 -22.4023,-1.1418 -42.2069,-7.4483 1.8542,-7.8123 6.8779,-14.8322 0,-24.8275 -19.7328,-2.8737 17.8799,-0.832 -74.4828,-9.9311 -6.2801,7.3509 -10.2863,15.1565 -4.9655,24.8276 -118.6879,-39.3001 -233.4646,-55.1325 -350.0689,-81.931 -85.9566,9.2673 -94.7263,40.147 -126.6207,64.5517 -199.3368,-45.1358 -399.1684,-88.292 -600.8276,-124.1379 -1.4498,-7.8963 2.0969,-16.6254 -12.4138,-22.3449 14.9709,-88.7415 -52.9324,12.5703 -34.0315,6.2952 -26.2886,12.6346 -91.6347,-244.3285 -105.7088,-267.7467 -27.2642,-83.8999 -75.4091,-144.831 -125.7108,-203.3897 -40.9228,-13.1282 -73.2499,-8.2052 -97.6216,13.424 36.7497,39.0681 73.6951,74.575 105.838,125.16 12.2362,23.3509 137.9946,307.177 111.4791,310.2076 -250.9898,35.1711 -500.3581,74.3958 -748.0375,117.8427 2.5316,-36.3649 12.7241,-65.0689 7.4482,-109.2413 -37.7956,-9.7514 -75.9045,-20.0248 -94.3448,2.4827 1.7622,24.6944 3.1205,48.8503 0,67.0345 -16.8499,22.6841 -31.0387,46.0334 -34.7586,72 -25.6552,-3.5635 -51.3104,1.1955 -76.9655,7.4483 0.399,-8.5825 3.2588,-17.7802 -2.4828,-24.8276 l -49.6552,7.4483 c 8.1579,1.3596 -11.7644,-49.59 -22.3448,-49.6552 -16.4833,-0.1015 -115.6465,17.3793 -104.2759,17.3793 -4.3736,18.6563 -10.8908,36.8839 -7.4482,57.1035 2.4827,19.8623 5.7931,29.7929 9.931,29.7931 -637.7546,133.9642 -1209.5642,245.9466 -1809.931,367.4482 -5.9654,-20.0004 -14.3387,-30.3695 -27.3104,-22.3448 -21.0654,-169.7222 -35.9986,-338.3495 7.4483,-496.5517 13.7415,-38.724 26.6658,-79.0821 47.1724,-104.2759 -37.1903,-45.3141 -71.6516,-99.4215 -129.1034,-79.4483 -19.5115,106.0395 -49.7139,244.3252 -52.2886,303.7744 -6.8144,114.9736 -11.0202,229.0424 32.4265,398.8463 l -14.8965,0 c 4.1571,44.613 11.171,77.7988 22.3448,94.3449 -17.6842,-9.1907 -28.7703,1.4133 -42.2069,4.9655 5.1411,19.6974 -30.0917,-16.572 -64.5517,0 -4.9409,5.2939 -0.1687,34.23 19.862,29.7931 -3.1736,28.6921 16.2327,44.1698 37.2414,24.8277 3.9552,25.8288 53.2699,25.8494 57.1035,7.4481 -1.8331,16.1297 -6.4006,33.0406 7.4482,44.6897 -124.4877,31.8834 -257.9449,60.777 -369.931,96.8276 -0.2791,1.3953 -16.7272,4.188 -24.8276,-2.4828 -7.9021,-6.5074 -233.3792981,62.069 -233.3792981,62.069 -11.2377,123.2108 -4.5095,241.2884 0,360 123.0809981,72.6882 242.6986981,155.7662 369.9310981,216 3.6891,294.5507 7.705,589.7549 4.9655,871.4483 -51.7454,19.0345 -100.9473,38.069 -126.6207,57.1034 -32.9557,35.6449 -66.9688,64.946 -96.8276,119.1724 -21.9622,86.4933 0.2436,232.6202 4.9655,235.8621 0,12.2851 95.1073,85.5693 114.2069,86.8966 25.7819,1.7918 117.4009,-34.0474 114.2069,-37.2414 1.0127,156.8014 13.6597,327.5641 0,466.7587 z M 736.0852,4248.0422 c 0,34.7586 4.9655,543.7241 4.9655,543.7241 l 141.5172,-52.1379 -2.4827,-409.6552 -144,-81.931 z m -2.4828,985.6551 c 4.2785,25.6552 2.5625,51.3103 2.4828,76.9655 32.1247,-37.1777 79.111,-57.3705 144,-57.1034 l -4.9656,-64.5517 c -46.1156,10.6695 -90.9849,16.3536 -141.5172,44.6896 z m 2.4828,533.7932 c 5.5013,15.9028 9.9787,234.2227 7.4482,233.3792 11.9238,-5.9619 138.0289,130.8476 131.5862,119.1725 -7.1973,-13.0425 2.4828,-392.2759 2.4828,-392.2759 -41.158,19.2558 -91.1931,29.6344 -141.5172,39.7242 z m 657.931,-1673.3794 c 43.9573,27.623 23.9092,304.9371 2.4827,265.6552 -60.2751,43.5847 -99.104,44.277 -141.5172,52.1379 4.4204,72.8473 2.3246,126.1462 2.4828,186.2069 l 1638.6206,-598.3448 c -1.6292,-123.3363 4.8043,-254.7353 12.4138,-387.3103 -504.8276,162.44 -1009.6551,331.9546 -1514.4827,481.6551 z m -124.1379,931.0345 c -2.4828,21.5172 -4.9655,43.0346 -7.4483,64.5517 -8.0617,-4.0308 1628.3932,-660.562 1626.2069,-672.8276 -2.2216,-12.4631 -4.9656,-47.1724 -4.9656,-47.1724 -537.931,218.4829 -1054.4537,436.9655 -1613.793,655.4483 z m 1951.4482,-1514.4828 -22.3448,372.4138 c 64.1717,-25.9761 96.8828,-10.0046 119.1724,19.8621 l 47.1724,39.7241 c 8.6793,101.7279 2.6198,134.8024 -22.3448,173.7932 -39.2148,80.9389 -31.2959,71.9409 -52.138,104.2758 l -131.5862,49.6552 c 8.0156,-2.9463 32.1767,17.0779 29.7931,29.7932 52.9821,-1.7325 285.5173,-126.255 285.5173,-121.6553 0,4.7862 -29.0603,-9.2777 -29.7931,-37.2413 -0.3795,-14.4815 37.2211,-719.1199 42.2069,-722.4828 13.8313,-9.3292 -268.2761,86.6201 -265.6552,91.862 z m -54.6207,1199.1725 c -4.0179,62.5366 -5.629,117.8525 -4.9655,166.3449 84.0743,50.1011 163.8308,74.2949 243.3103,96.8275 -3.6406,-14.5627 29.4509,-391.9659 22.3449,-379.8621 -9.637,16.415 -253.5311,137.7104 -260.6897,116.6897 z"
         style="fill:#ffffff;fill-opacity:1;fill-rule:evenodd;stroke:none"
         id="path2593" />
    </g>
    <text
       xml:space="preserve"
       style="font-size:40px;font-style:normal;font-variant:normal;font-weight:normal;font-stretch:normal;line-height:125%;letter-spacing:0px;word-spacing:0px;fill:#000000;fill-opacity:1;stroke:none;font-family:Verdana;-inkscape-font-specification:Verdana"
       x="377.9595"
       y="138.07646"
       id="text3117"
       sodipodi:linespacing="125%"><tspan
         sodipodi:role="line"
         x="377.9595"
         y="138.07646"
         style="font-size:144px;text-align:center;text-anchor:middle;fill:#ffffff;font-family:Arial Black;-inkscape-font-specification:Arial Black"
         id="tspan3132">KEEP</tspan></text>
    <text
       xml:space="preserve"
       style="font-size:40px;font-style:normal;font-variant:normal;font-weight:normal;font-stretch:normal;line-height:125%;letter-spacing:0px;word-spacing:0px;fill:#000000;fill-opacity:1;stroke:none;font-family:Verdana;-inkscape-font-specification:Verdana"
       x="363.46429"
       y="989.61554"
       id="text3117-1"
       sodipodi:linespacing="125%"><tspan
         sodipodi:role="line"
         x="363.46429"
         y="989.61554"
         style="font-size:144px;text-align:center;text-anchor:middle;fill:#ffffff;font-family:Arial Black;-inkscape-font-specification:Arial Black"
         id="tspan3132-7">TIDY</tspan></text>
  </g>
</svg>
