<?xml version="1.0" encoding="UTF-8" standalone="no"?>
<!-- Created with Inkscape (http://www.inkscape.org/) -->

<svg
   xmlns:dc="http://purl.org/dc/elements/1.1/"
   xmlns:cc="http://creativecommons.org/ns#"
   xmlns:rdf="http://www.w3.org/1999/02/22-rdf-syntax-ns#"
   xmlns:svg="http://www.w3.org/2000/svg"
   xmlns="http://www.w3.org/2000/svg"
   xmlns:sodipodi="http://sodipodi.sourceforge.net/DTD/sodipodi-0.dtd"
   xmlns:inkscape="http://www.inkscape.org/namespaces/inkscape"
   width="744.09448819"
   height="1052.3622047"
   id="svg2"
   version="1.1"
   inkscape:version="0.48.2 r9819"
   sodipodi:docname="Be excellent to each other.svg">
  <defs
     id="defs4" />
  <sodipodi:namedview
     id="base"
     pagecolor="#ffffff"
     bordercolor="#666666"
     borderopacity="1.0"
     inkscape:pageopacity="0.0"
     inkscape:pageshadow="2"
     inkscape:zoom="0.5"
     inkscape:cx="415.71429"
     inkscape:cy="526.18109"
     inkscape:document-units="px"
     inkscape:current-layer="layer1"
     showgrid="false"
     inkscape:window-width="1366"
     inkscape:window-height="706"
     inkscape:window-x="-8"
     inkscape:window-y="-8"
     inkscape:window-maximized="1" />
  <metadata
     id="metadata7">
    <rdf:RDF>
      <cc:Work
         rdf:about="">
        <dc:format>image/svg+xml</dc:format>
        <dc:type
           rdf:resource="http://purl.org/dc/dcmitype/StillImage" />
      </cc:Work>
    </rdf:RDF>
  </metadata>
  <g
     inkscape:label="Layer 1"
     inkscape:groupmode="layer"
     id="layer1">
    <rect
       style="fill:#ffff00;fill-opacity:1;stroke:none"
       id="rect3039"
       width="752"
       height="1052"
       x="0"
       y="0.36218262" />
    <path
       inkscape:connector-curvature="0"
       id="path3021"
       d="m 214.92061,566.61857 c -0.0829,-2.0625 -0.25785,-5.82937 -0.38885,-8.37082 -0.27287,-5.29341 -0.0796,-5.69444 4.17399,-8.6632 l 3.13448,-2.18765 -1.59283,-3.51417 c -1.4647,-3.2315 -4.17613,-4.86386 -4.17613,-2.51416 0,0.55 -0.45,1 -1,1 -0.55,0 -1,-0.94303 -1,-2.09563 0,-1.1526 -0.84124,-3.2901 -1.86942,-4.75 -3.86833,-5.49262 -6.13008,-11.17998 -6.11017,-15.36453 0.034,-7.15081 6.13467,-50.49134 7.9234,-56.28984 1.62922,-5.28145 5.05619,-32.0111 5.05619,-39.43728 0,-3.9476 -0.5304,-10.38914 -1.17866,-14.31453 l -1.17866,-7.13706 -13.8598,-13.8634 c -14.13488,-14.13855 -26.5094,-28.88606 -32.78288,-39.06946 -3.52749,-5.72599 -12.16681,-19.35516 -17.54481,-27.67827 -5.33125,-8.25075 -9.45519,-17.08675 -9.45519,-20.2588 0,-1.72557 -0.53218,-6.81815 -1.18262,-11.31684 -1.03309,-7.14521 -0.96987,-8.73654 0.5,-12.58534 0.92544,-2.42324 1.68262,-6.09246 1.68262,-8.15384 0,-2.40902 0.53587,-3.95358 1.5,-4.32355 0.825,-0.31659 1.53553,-1.31496 1.57895,-2.21862 0.0523,-1.08903 0.25279,-1.2102 0.59454,-0.35939 0.28358,0.70599 -0.01,1.91672 -0.65201,2.6905 -2.05833,2.48014 1.34729,13.4756 5.19599,16.77588 1.76384,1.5125 3.76358,2.75 4.44387,2.75 1.73499,0 6.90158,-7.01315 5.76833,-7.82994 -0.51132,-0.36853 -0.97185,-3.14506 -1.02342,-6.17006 -0.0839,-4.92455 -0.55142,-8.62438 -1.99008,-15.75 -0.41586,-2.05973 -1.01149,-2.25 -7.04363,-2.25 l -6.58935,0 0.63878,2.75 c 0.47394,2.04031 0.37683,2.3629 -0.37628,1.25 -0.55828,-0.825 -1.02195,-2.29874 -1.03038,-3.27498 -0.008,-0.97624 -0.91531,-4.33565 -2.01531,-7.46534 -2.31736,-6.59332 -2.49087,-8.38109 -0.75,-7.7279 0.6875,0.25795 1.76323,-0.64149 2.39051,-1.99875 0.97717,-2.11432 0.87104,-2.55328 -0.74105,-3.06494 -1.03486,-0.32845 -2.33559,-0.31658 -2.89051,0.0264 -0.55492,0.34296 -1.00895,-0.14017 -1.00895,-1.07362 0,-0.93346 -1.8,-3.64996 -4,-6.03668 -2.2,-2.38671 -4,-4.99798 -4,-5.80281 0,-2.68903 2.01156,-2.74942 5.0972,-0.15303 5.81274,4.8911 6.45665,2.59279 1.83733,-6.55804 -1.68602,-3.33997 -2.81102,-6.32713 -2.5,-6.63815 0.31101,-0.31101 0.56547,-0.0139 0.56547,0.66021 0,0.67413 0.48068,0.92861 1.06818,0.56552 0.58749,-0.3631 0.82661,-1.28965 0.53138,-2.05902 -1.02319,-2.66639 0.91484,-1.2569 3.90044,2.8367 3.83056,5.25214 5.5,5.84841 5.5,1.96442 0,-2.22234 0.56454,-3.12555 2.25,-3.59977 1.95097,-0.54893 2.05065,-0.79967 0.75,-1.88661 -1.94241,-1.62325 -4,-5.29115 -4,-7.13047 0,-0.79421 1.0125,-1.58782 2.25,-1.76357 2.70207,-0.38375 3.07582,-3.38923 0.39333,-3.16288 -1.31254,0.11075 -1.54476,-0.15524 -0.79238,-0.90762 2.57396,-2.57396 5.00708,4.16606 5.23479,14.50095 0.0498,2.26093 2.51729,2.26093 3.83416,0 0.56061,-0.9625 1.03297,-1.28763 1.04969,-0.72251 0.0167,0.56513 -0.69875,2.06851 -1.58994,3.34087 -1.36774,1.95272 -1.41934,2.68895 -0.33102,4.72251 0.70913,1.32502 1.61515,2.40913 2.01336,2.40913 0.96803,0 1.9852,-2.76151 2.51258,-6.82137 0.2373,-1.82675 0.89099,-4.18001 1.45264,-5.22948 0.56166,-1.04946 0.77314,-2.92984 0.46997,-4.17863 -0.30318,-1.24879 0.0983,-4.7422 0.89224,-7.76314 0.9605,-3.65484 1.10112,-5.70421 0.42027,-6.125 -0.69475,-0.42938 -0.69011,-0.83825 0.0145,-1.27369 2.01117,-1.24298 2.17532,1.35894 0.98969,15.68773 -1.09124,13.18794 -1.04632,14.69981 0.5071,17.07063 0.9374,1.43066 2.83577,2.88516 4.21859,3.23223 2.03479,0.5107 2.28979,0.90146 1.33726,2.04918 -0.99864,1.2033 -1.52856,1.08786 -3.49756,-0.76192 -1.99192,-1.87132 -2.55195,-1.98808 -3.95408,-0.82441 -0.89842,0.74562 -2.02221,2.37807 -2.49731,3.62767 -0.56268,1.47996 -1.39788,2.06706 -2.39582,1.68411 -0.95203,-0.36533 -1.53201,-0.0259 -1.53201,0.89666 0,0.8165 -0.71369,2.07685 -1.58597,2.80078 -0.87228,0.72393 -2.5394,3.36653 -3.7047,5.87245 -1.1653,2.50591 -2.81411,5.10439 -3.66403,5.7744 -0.93013,0.73324 -1.07823,1.23085 -0.37202,1.25 0.6453,0.0175 2.51026,-1.0932 4.14435,-2.4682 1.6341,-1.375 3.35612,-2.51001 3.82673,-2.52224 0.4706,-0.0122 1.95288,-0.86558 3.29396,-1.89635 1.34108,-1.03076 2.98306,-1.66508 3.64885,-1.40959 0.66579,0.25549 1.50761,-0.0161 1.8707,-0.60365 0.36309,-0.58749 1.3921,-1.06817 2.2867,-1.06817 0.89459,0 2.63587,-0.94822 3.8695,-2.10716 1.23363,-1.15894 2.80491,-1.91985 3.49172,-1.69091 0.69129,0.23043 -1.25483,2.39873 -4.35946,4.85716 -3.08451,2.4425 -5.80604,4.89091 -6.04783,5.44091 -1.01417,2.30689 1.3325,14.0201 3.00515,15 0.93884,0.55 4.08959,3.20278 7.00166,5.89506 l 5.29469,4.89505 0,8.12055 c 0,6.32525 0.44595,8.89088 2.01712,11.60494 4.61072,7.9646 8.98288,17.5802 8.98288,19.75585 0,4.05798 2.69061,7.74081 7.67136,10.50037 2.65575,1.4714 6.3189,4.48998 8.14033,6.70795 1.82142,2.21797 4.74642,4.7602 6.5,5.6494 1.75357,0.88921 4.76331,3.15629 6.68831,5.03797 2.05454,2.00829 6.98832,4.84727 11.94654,6.87422 4.64559,1.89914 10.14844,4.57926 12.22856,5.95582 2.08011,1.37655 4.22963,2.50282 4.77671,2.50282 0.54708,0 2.91923,0.86347 5.27144,1.91881 2.35221,1.05535 6.51295,2.29285 9.24608,2.75 4.71712,0.789 5.01492,1.0254 5.86742,4.65763 0.49395,2.10455 1.529,4.06855 2.30012,4.36446 0.77112,0.2959 4.5549,-1.0885 8.4084,-3.07645 4.9819,-2.57007 8.29915,-3.61445 11.48054,-3.61445 2.74224,0 4.47419,-0.45161 4.47419,-1.16667 0,-0.64166 0.26096,-0.90571 0.5799,-0.58676 0.31895,0.31895 -0.18281,1.74395 -1.11501,3.16667 -1.36145,2.07784 -1.41933,2.58676 -0.29419,2.58676 0.7704,0 1.41014,0.7875 1.42164,1.75 0.0115,0.9625 0.36122,3.06608 0.77716,4.67463 0.67113,2.5954 0.5776,2.77636 -0.83078,1.6075 -2.48495,-2.06232 -2.87358,-0.5752 -1.21602,4.65309 1.36611,4.30899 1.82828,9.99648 1.97585,24.31478 0.0255,2.475 -0.21292,11.61672 -0.52986,20.31493 -0.46597,12.78864 -0.89496,16.16712 -2.24187,17.65543 -2.06934,2.2866 -4.52682,10.24355 -4.52682,14.65717 l 0,3.30967 -5.91826,-3.4686 c -7.12552,-4.17615 -9.08174,-4.38479 -9.08174,-0.9686 0,1.375 0.36515,2.5 0.81144,2.5 0.44629,0 1.68379,0.79831 2.75,1.77402 1.06621,0.97571 4.07526,3.11321 6.68677,4.75 5.07493,3.18075 5.68692,4.17991 3.15529,5.15138 -1.44439,0.55427 -7.38026,-1.43928 -16.1454,-5.42239 -3.7619,-1.70951 -6.55038,-1.02373 -6.07471,1.49397 0.3685,1.95045 17.22576,10.79471 22.56661,11.8397 9.82939,1.92323 -4.31405,2.68742 -17.08896,0.92334 -5.74056,-0.79271 -5.83325,-0.76685 -5.5,1.53383 0.27879,1.9247 1.31534,2.57738 5.83896,3.67655 3.025,0.73503 6.4,1.76514 7.5,2.28914 1.1,0.524 4.475,1.07372 7.5,1.2216 3.2538,0.15906 5.2958,0.67726 5,1.26886 -0.275,0.55 -1.54216,1 -2.8159,1 -1.27375,0 -2.75861,0.7875 -3.29969,1.75 -0.72126,1.283 -2.25144,1.75 -5.7341,1.75 -4.79896,0 -7.15031,1.24594 -7.15031,3.78882 0,1.07987 1.27911,1.28176 5.75,0.90754 3.1625,-0.26471 9.09729,-0.75282 13.18843,-1.0847 4.09114,-0.33187 7.74917,-1.10618 8.12895,-1.72068 0.47882,-0.77475 0.82966,-0.69937 1.14438,0.24587 0.33327,1.00096 2.93637,1.41673 9.79724,1.56481 5.13885,0.11091 10.63172,0.73531 12.20637,1.38755 2.47616,1.02566 3.04919,0.93124 4.24112,-0.69883 0.85383,-1.16767 1.03245,-2.30125 0.4695,-2.97955 -0.49975,-0.60217 -0.58807,-1.41541 -0.19627,-1.80721 0.3918,-0.3918 0.0504,-1.18035 -0.75868,-1.75233 -1.2486,-0.8827 -1.22602,-0.96235 0.14928,-0.52677 1.30271,0.41259 1.73909,-0.48969 2.22627,-4.60314 0.64466,-5.44312 -0.60839,-8.03492 -4.47847,-9.26324 -1.06261,-0.33725 -1.86812,-1.52187 -1.86812,-2.74731 0,-1.93917 -0.80809,-4.95876 -5.59282,-20.89873 -1.73972,-5.79573 -1.79355,-8.81272 -0.15718,-8.8101 0.71451,0.001 1.35723,1.50546 1.50031,3.51156 0.13767,1.93025 1.20983,5.55086 2.38259,8.04578 2.92546,6.22367 5.10679,5.66982 6.18344,-1.56998 0.44899,-3.01915 1.68649,-8.31131 2.75,-11.76036 1.06351,-3.44905 1.94021,-7.27405 1.94821,-8.5 0.008,-1.22595 0.67686,-4.13008 1.48634,-6.45362 0.80948,-2.32354 1.99496,-7.49854 2.6344,-11.5 0.63944,-4.00146 1.49289,-7.72538 1.89656,-8.27538 0.40367,-0.55 0.50447,-2.50403 0.224,-4.34229 -0.44113,-2.89133 -0.83334,-3.28047 -2.90676,-2.88411 -1.31825,0.252 -2.63764,0.0685 -2.93197,-0.40771 -0.29434,-0.47624 -1.93915,-0.86589 -3.65514,-0.86589 -3.45765,0 -9.76198,-2.00578 -9.76198,-3.10587 0,-0.38725 -2.1375,-1.9305 -4.75,-3.42945 -2.6125,-1.49895 -6.2125,-4.10498 -8,-5.79119 -5.10997,-4.82039 -3.8775,-7.88544 1.47713,-3.67349 1.39842,1.1 3.10876,2 3.80074,2 2.06358,0 2.5582,-2.939 0.91634,-5.4448 -1.44563,-2.20631 -1.37356,-2.46819 1.26128,-4.5833 1.87827,-1.50777 2.36631,-2.39617 1.48852,-2.70959 -2.298,-0.8205 -9.44705,-6.67729 -11.30597,-9.26231 -0.98878,-1.375 -2.09733,-3.85 -2.46345,-5.5 -0.59582,-2.68523 -0.33166,-2.50659 2.51767,1.70255 3.04358,4.49607 6.04408,6.54196 7.90642,5.39097 0.47662,-0.29456 2.20598,-0.15144 3.84302,0.31806 3.7614,1.07876 6.97182,-0.40716 5.28113,-2.44431 -1.42265,-1.71419 -0.32804,-5.46727 1.59456,-5.46727 0.78793,0 1.43261,-0.70156 1.43261,-1.55902 0,-0.85746 -0.38185,-1.32302 -0.84856,-1.03458 -0.4667,0.28844 -1.79789,-0.36 -2.95818,-1.44098 -1.1603,-1.08098 -2.74835,-1.96542 -3.529,-1.96542 -0.78065,0 -2.03697,-0.75304 -2.79182,-1.67341 -1.2347,-1.50547 -1.12154,-1.59906 1.12756,-0.93249 6.33294,1.87689 9.19559,2.36751 11.024,1.88937 3.01939,-0.78958 2.36079,-1.9887 -1.48892,-2.71091 -4.63168,-0.86891 -5.50669,-2.56436 -1.3441,-2.60436 2.96534,-0.0285 3.12726,-0.16978 1.55902,-1.36025 -2.12368,-1.6121 -2.24991,-3.20214 -0.31321,-3.94532 1.0831,-0.41563 1.32078,-1.828 0.96551,-5.73746 -0.47719,-5.25105 1.00569,-11.92517 2.64957,-11.92517 0.49322,0 1.56538,-1.29295 2.38257,-2.87322 1.3457,-2.60229 1.30272,-3.37412 -0.45579,-8.1852 -1.06788,-2.92158 -1.72395,-5.52961 -1.45794,-5.79562 0.26601,-0.26601 -0.26207,-1.30768 -1.17352,-2.31481 -1.32224,-1.46106 -3.15494,-1.83115 -9.06792,-1.83115 -10.53224,0 -13.50886,1.81037 -12.56273,7.64064 0.46447,2.86222 0.19315,3.4432 -1.99689,4.27585 -2.71661,1.03285 -3.62708,3.56408 -4.16243,11.57212 -0.2735,4.09117 -1.1071,6.59492 -1.80722,5.42806 -0.1375,-0.22917 -1.00914,-1.76667 -1.93698,-3.41667 -2.05564,-3.65558 -3.84047,-3.81729 -5.51875,-0.5 -0.69563,1.375 -1.27142,1.86043 -1.27953,1.07874 -0.008,-0.78169 0.73166,-2.24602 1.64392,-3.25406 1.38552,-1.53098 1.45998,-2.26888 0.45213,-4.48087 -0.84111,-1.84603 -0.88916,-2.96544 -0.15866,-3.69594 0.57633,-0.57633 1.04787,-3.20787 1.04787,-5.84787 0,-2.64 0.45,-4.8 1,-4.8 0.55,0 1,-0.74408 1,-1.65351 0,-3.53969 5.02896,-12.20132 8.23687,-14.18677 1.79472,-1.11079 4.47726,-3.28865 5.96119,-4.83967 2.67538,-2.79635 2.80215,-2.82005 15.08217,-2.82005 l 12.38412,0 7.21325,5.90063 c 3.96729,3.24534 7.69905,6.84534 8.29279,8 0.59375,1.15465 1.98298,3.0919 3.0872,4.30499 1.80536,1.98338 1.99492,3.48625 1.88123,14.91442 -0.0975,9.79625 -0.47248,13.09117 -1.6364,14.37728 -1.09555,1.21057 -1.34505,2.88079 -0.90907,6.08559 0.82504,6.06476 -2.65673,12.78341 -7.45286,14.38151 -2.37613,0.79175 -3.91063,2.25246 -5.24232,4.99027 -1.03555,2.12897 -2.52352,4.58511 -3.30661,5.45808 -2.96312,3.30324 -8.10751,20.5791 -6.99294,23.48363 0.3333,0.86858 3.28866,2.94245 6.56745,4.60861 7.92262,4.02599 11.83393,7.00991 11.83393,9.02806 0,2.30774 2.84311,4.63967 7.52627,6.17308 3.1866,1.04339 4.19773,1.9937 5.10459,4.79749 0.81132,2.50843 2.69998,4.56829 6.68413,7.29002 4.71045,3.21789 5.81501,4.58384 7.27778,9 0.94847,2.86349 3.43369,7.23727 5.52271,9.71953 3.49991,4.15871 3.84888,5.14047 4.44324,12.5 0.46443,5.7508 0.19995,9.87923 -0.94468,14.74634 -1.56951,6.67376 -1.55758,6.84481 0.9399,13.48 1.39126,3.69625 3.35002,7.62947 4.35279,8.74047 2.3671,2.6226 5.09429,10.90036 5.08953,15.44814 -0.002,1.96452 -0.90205,5.04524 -2,6.84603 -1.09794,1.80079 -2.00315,4.72579 -2.01157,6.5 -0.019,4.00328 -0.0629,4.07094 -8.87732,13.67624 -6.32437,6.89184 -7.8649,8.03184 -12.28758,9.09282 -9.29096,2.22887 -22.62734,-0.71999 -28.61473,-6.32711 -1.81066,-1.69566 -2.65475,-1.91738 -4,-1.05069 -1.43781,0.92633 -1.65361,2.46563 -1.3768,9.82088 0.26778,7.11556 -0.0546,9.61229 -1.7499,13.55316 -1.97078,4.58121 -2.00286,5.1887 -0.62091,11.75823 1.06978,5.0856 1.1902,7.89455 0.45288,10.56487 l -1.00434,3.63743 -58.95299,0 -58.953,0 -0.15066,-3.75 z m 72.19989,-68.5 c 2.1531,-1.7875 3.92283,-3.5875 3.93274,-4 0.01,-0.4125 -1.56811,-0.75 -3.50672,-0.75 -2.86346,0 -3.70772,0.48125 -4.5,2.5651 -1.08365,2.85021 -1.27768,5.4349 -0.40799,5.4349 0.31199,0 2.32888,-1.4625 4.48197,-3.25 z m 73.95077,-95.69098 c 0,-1.35726 -1.76453,-2.24903 -2.40372,-1.21481 -0.59765,0.96702 0.26831,2.15579 1.57039,2.15579 0.45833,0 0.83333,-0.42344 0.83333,-0.94098 z m -43.1607,-24.47486 c 0.28928,-1.49209 0.0271,-1.58305 -1.778,-0.61696 -1.16453,0.62323 -1.83847,1.58432 -1.49767,2.13576 0.89449,1.44731 2.87901,0.52716 3.27567,-1.5188 z m -32.53315,-15.22364 c 0.35171,-0.35171 0.42626,-0.98447 0.16567,-1.40612 -0.61487,-0.99487 -4.47182,0.008 -4.47182,1.16223 0,1.01363 3.34685,1.20318 4.30615,0.24389 z m 51.68888,-19.83274 c 0.005,-1.96297 -0.004,-1.96297 -1.87363,0 -1.03324,1.08472 -2.16375,3.32222 -2.51225,4.97222 l -0.63364,3 2.50728,-3 c 1.379,-1.65 2.50951,-3.8875 2.51224,-4.97222 z m -1.04011,-12.08209 c -1.81084,-2.18194 -2.90678,-0.76464 -1.96039,2.53522 1.44346,5.03307 2.47486,5.83803 2.8237,2.20377 0.17503,-1.82343 -0.21346,-3.95598 -0.86331,-4.73899 z M 144.04337,229.90219 c 0.66934,-0.80651 1.06194,-1.88985 0.87244,-2.40744 -0.1895,-0.51759 -1.15305,0.14228 -2.14122,1.46638 -1.91604,2.56737 -0.78015,3.40987 1.26878,0.94106 z m 2.04796,-6.05779 c 0.69572,-0.83829 0.99523,-1.79388 0.66557,-2.12353 -1.02406,-1.02406 -3.68563,0.50424 -3.68563,2.11631 0,1.95862 1.39777,1.96196 3.02006,0.007 z m 6.72383,-10.16051 c -1.56053,-1.56054 -1.71529,-1.55343 -2.35286,0.10806 -0.79478,2.07117 1.56423,4.02136 3.05776,2.52784 0.62066,-0.62067 0.36891,-1.5621 -0.7049,-2.6359 z m 234.89448,355.18468 c 0.31659,-0.825 0.90168,-1.5 1.3002,-1.5 0.39853,0 2.15167,-2.20235 3.89587,-4.89411 1.74421,-2.69176 3.7516,-5.1168 4.46087,-5.38897 0.70928,-0.27217 3.39697,-3.63585 5.97264,-7.47483 4.82156,-7.18641 7.61098,-9.67163 12.12789,-10.8053 4.01955,-1.00885 3.29593,1.13553 -3.39584,10.06321 -3.29803,4.4 -5.99723,8.31643 -5.99821,8.70319 -0.004,1.76525 -14.22503,12.79681 -16.49608,12.79681 -1.76066,0 -2.28218,-0.41893 -1.86734,-1.5 z m 22.7507,-2.53163 c 2.09029,-13.07195 10.88344,-25.92013 17.80272,-26.01257 l 3.30821,-0.0442 -3.6852,-1.94645 c -3.63062,-1.91762 -6.61309,-4.90184 -3.72884,-3.73103 0.77772,0.3157 2.19529,0.88792 3.15014,1.27159 1.29157,0.51897 1.99591,0.0142 2.75078,-1.97121 0.76377,-2.00888 1.48853,-2.5184 2.93102,-2.06057 1.58474,0.50298 1.83133,0.21178 1.425,-1.68286 -0.46757,-2.18024 -0.4184,-2.20157 1.01635,-0.44094 0.82922,1.01757 1.98762,1.55352 2.57422,1.19098 1.51953,-0.93911 1.31975,-2.54111 -0.31689,-2.54111 -0.76089,0 -1.60189,-1.14284 -1.86891,-2.53963 -0.62856,-3.28813 1.16678,-2.72321 3.24141,1.01992 0.86646,1.56332 2.23589,3.14395 3.04316,3.51251 0.80727,0.36856 3.03055,1.45758 4.94063,2.42005 2.25426,1.1359 3.59935,1.37049 3.83333,0.66855 0.51969,-1.55908 1.80943,-1.35703 7.23973,1.13417 6.25817,2.87099 7.39657,5.32257 5.75342,12.39016 -1.60199,6.89052 -3.51668,7.11501 -2.8845,0.3382 0.0798,-0.85583 -0.52447,-3.15871 -1.3429,-5.1175 -1.45064,-3.47186 -1.63345,-3.56478 -7.26832,-3.69469 -4.38253,-0.10103 -7.06184,0.49377 -11.08025,2.45979 -2.9236,1.43039 -6.03591,2.31065 -6.9413,1.96322 -0.98847,-0.37931 -2.46481,0.19157 -3.71169,1.43526 -1.13871,1.1358 -3.58875,3.06519 -5.44453,4.28754 -2.27931,1.50132 -3.97496,3.82564 -5.2258,7.16331 -1.01842,2.71748 -1.6324,5.16013 -1.36441,5.42812 0.78225,0.78225 6.18771,-5.19512 6.59393,-7.29158 0.20713,-1.06893 1.69294,-2.33635 3.37042,-2.87502 1.65,-0.52985 3.71043,-1.57964 4.57874,-2.33287 1.82383,-1.58211 3.92126,-1.80486 3.92126,-0.41643 0,1.9994 16.24917,8.04692 21.62137,8.04692 3.87317,0 4.80147,1.32296 6.15543,8.77229 l 0.95017,5.22771 -27.99129,0 -27.9913,0 z m 97.11093,3.03163 c 0.33992,-0.55 1.26648,-1 2.05902,-1 0.79254,0 1.44098,-0.45 1.44098,-1 0,-0.55 -0.44085,-1 -0.97968,-1 -0.53882,0 -1.89782,-1.6875 -3.02,-3.75 -1.12218,-2.0625 -3.31166,-6 -4.86551,-8.75 -1.55385,-2.75 -3.38224,-6.8 -4.06307,-9 -0.68084,-2.2 -2.50676,-6.475 -4.05761,-9.5 -3.14486,-6.1342 -6.09032,-13 -5.57707,-13 0.47009,0 8.56294,13.70557 8.56294,14.50169 0,0.35861 1.8,3.16569 4,6.23796 2.2,3.07226 4,6.11793 4,6.76815 0,0.65023 0.9,1.99671 2,2.9922 1.1,0.99549 2,2.86523 2,4.15499 0,1.28975 0.46412,2.34501 1.03138,2.34501 2.03861,0 2.13145,-3.03677 0.22101,-7.22951 -1.07023,-2.34877 -2.70277,-6.82609 -3.62788,-9.94959 -0.92511,-3.12351 -3.35834,-8.29851 -5.40718,-11.5 -2.04884,-3.2015 -4.22031,-6.71751 -4.82548,-7.81337 -1.35151,-2.44733 -7.56083,-4.5006 -8.16143,-2.69878 -0.22068,0.66204 -0.81543,0.94773 -1.32166,0.63486 -0.50623,-0.31287 -2.4674,-0.009 -4.35815,0.67425 -3.17953,1.14973 -3.59334,1.06055 -5.50944,-1.18738 l -2.07171,-2.43048 0.61939,3 c 0.34067,1.65 1.2776,5.25 2.08208,8 2.07151,7.08117 2.62129,26.01259 0.79934,27.52468 -0.76046,0.63112 -1.77655,0.90406 -2.25798,0.60652 -0.98089,-0.60622 -0.83963,-8.67107 0.27817,-15.88028 0.76615,-4.94128 -0.77094,-16.47306 -2.73261,-20.50092 -1.0652,-2.18716 -1.52199,-2.25 -16.3554,-2.25 -12.79063,0 -15.52413,0.26453 -16.89457,1.63497 -1.29831,1.29832 -2.08517,1.40757 -3.82142,0.53059 -1.20255,-0.60741 -3.76146,-1.23065 -5.68646,-1.38497 -2.76347,-0.22154 -3.56725,-0.75407 -3.81955,-2.53059 -0.38988,-2.74522 -2.18219,-2.95934 -2.86652,-0.34245 -0.27436,1.04915 -1.2846,2.11302 -2.24497,2.36417 -2.09765,0.54854 -7.06896,9.09612 -7.06896,12.15423 0,1.19573 0.49904,2.67309 1.10898,3.28303 0.81197,0.81197 -0.25862,1.76348 -3.99741,3.5528 -3.24228,1.5517 -6.39672,4.13372 -8.64101,7.07298 -1.94404,2.54604 -4.42021,5.10311 -5.50259,5.68238 -1.08238,0.57928 -1.96797,1.65729 -1.96797,2.3956 0,1.38187 -2.75354,4.18009 -3.42421,3.47976 -0.20673,-0.21587 -0.0377,-3.80781 0.37563,-7.98208 0.76639,-7.73997 3.75467,-13.91042 6.73664,-13.91042 1.52525,0 1.70943,-1.18803 0.39532,-2.55 -0.50414,-0.5225 -2.00051,-3.00665 -3.32527,-5.52033 -2.10736,-3.99861 -2.23852,-4.82657 -1.04854,-6.61878 1.54717,-2.33015 7.23274,-24.50001 7.26752,-28.33838 0.0126,-1.39013 0.68016,-3.46586 1.48347,-4.61274 1.33308,-1.90324 1.236,-2.29361 -1.11232,-4.47251 -3.08267,-2.86027 -9.41043,-12.17826 -11.17461,-16.45526 -0.94002,-2.27894 -1.00278,-4.20784 -0.24401,-7.5 1.66141,-7.20848 1.35648,-12.70852 -0.76761,-13.84529 -1.68524,-0.90192 -1.81482,-2.31438 -1.55923,-16.99649 0.41682,-23.94402 1.76626,-33.87142 5.76879,-42.43915 3.8117,-8.15923 8.87813,-13.64253 15.52857,-16.80624 11.09378,-5.27748 25.90603,-14.46286 29.41197,-18.23896 2.09665,-2.25823 3.33415,-3.12295 2.75,-1.92161 -0.58416,1.20134 -1.06211,3.11384 -1.06211,4.25 0,1.84122 0.60739,2.06574 5.58826,2.06574 6.40137,0 16.21724,-3.99163 21.19281,-8.61807 2.55,-2.37107 2.82181,-3.07939 1.85357,-4.83023 -1.6265,-2.94111 -2.69385,-3.51514 -6.63464,-3.56819 -3.64021,-0.049 -7.5005,-2.14968 -6.2494,-3.40078 0.39574,-0.39573 -0.35098,-1.52699 -1.65936,-2.51391 -2.99944,-2.26248 -1.97268,-4.06882 2.31279,-4.06882 4.0499,0 7.93023,-3.53452 5.55621,-5.06105 -1.05466,-0.67815 -1.14,-1.14726 -0.30726,-1.68895 0.63414,-0.4125 1.30914,-2.29764 1.5,-4.1892 0.29782,-2.95162 -0.007,-3.54002 -2.15298,-4.15032 -1.375,-0.39112 -4.10906,-0.75598 -6.07569,-0.8108 -2.39775,-0.0668 -4.32293,-0.89509 -5.844,-2.51419 -2.25592,-2.40132 -2.25723,-2.42044 -0.24005,-3.5 2.79935,-1.49817 3.63066,-1.35784 2.19609,0.37071 -0.66469,0.8009 -0.9377,1.89441 -0.60668,2.43001 0.79232,1.282 10.76786,2.50326 13.46219,1.64811 2.64724,-0.8402 2.77466,-3.53432 0.16716,-3.53432 -1.06754,0 -2.2191,-0.45 -2.55902,-1 -0.63645,-1.02979 0.5159,-1.34118 4,-1.08089 1.36768,0.10218 0.97248,-0.37514 -1.25,-1.50975 -3.98485,-2.03432 -4.28588,-4.40936 -0.55887,-4.40936 2.31512,0 2.47398,-0.17465 1.13697,-1.25 -0.85478,-0.6875 -2.31903,-3.6709 -3.25389,-6.62977 l -1.69973,-5.37978 2.56276,-2.67494 c 1.40952,-1.47122 2.56276,-3.01079 2.56276,-3.42126 0,-0.93586 -6.37279,-3.64425 -8.57487,-3.64425 -1.1352,0 -1.4375,0.52537 -0.98334,1.7089 0.42953,1.11933 -0.089,2.27072 -1.50308,3.33733 -1.89763,1.43139 -1.99886,1.88459 -0.83663,3.74562 1.76608,2.82794 1.24086,3.12212 -4.42576,2.47894 -4.47183,-0.50757 -4.78045,-0.71977 -4.23095,-2.90915 0.77832,-3.10107 -0.24301,-2.94196 -4.19537,0.65358 -1.96905,1.79128 -3.25,3.91725 -3.25,5.39396 0,1.34055 -1.08285,3.72427 -2.40634,5.29715 -3.28277,3.90134 -3.67696,6.71037 -0.99541,7.09334 1.69731,0.2424 2.41219,1.60032 3.74113,7.10633 2.35396,9.75276 2.84537,14.88028 1.64165,17.12945 -0.79086,1.47773 -0.73293,1.97209 0.23379,1.99496 0.73482,0.0174 0.50977,0.48145 -0.52556,1.08368 -2.70902,1.57579 -4.17861,0.53366 -5.50892,-3.90651 -0.65924,-2.20034 -1.91723,-4.27638 -2.79555,-4.61342 -1.13426,-0.43525 -1.41582,-1.33441 -0.97181,-3.10348 0.85342,-3.40028 -1.15714,-3.2029 -2.64146,0.25932 l -1.17899,2.75 -0.35656,-3.20894 c -0.24225,-2.18021 0.36457,-4.18431 1.89287,-6.25146 2.21358,-2.99402 2.21852,-3.0659 0.3103,-4.50925 -1.06653,-0.80671 -2.50164,-1.48105 -3.18914,-1.49855 -0.6875,-0.0175 -1.25,-0.56968 -1.25,-1.22708 0,-0.65741 -1.18994,-2.43731 -2.64431,-3.95534 l -2.6443,-2.76006 1.6443,-5.86027 c 0.90437,-3.22314 1.64965,-8.08074 1.65618,-10.79465 0.0349,-14.52478 9.0523,-30.48645 19.85462,-35.14474 6.75242,-2.91185 7.62015,-3.13305 15.13351,-3.85786 12.75379,-1.23034 14.49443,-0.97535 19.72811,2.89013 10.37288,7.66116 17.24692,17.15445 20.68574,28.56774 3.41325,11.32839 3.33198,18.09658 -0.327,27.23446 -2.34369,5.85309 -2.87586,8.4084 -2.38556,11.45478 0.54975,3.4158 0.43673,3.76113 -0.87712,2.67977 -1.93495,-1.59257 -2.82417,-0.66133 -2.82417,2.95765 0,4.01033 -2.66862,8.78367 -4.91067,8.78367 -1.02262,0 -2.6553,1.21484 -3.62818,2.69964 l -1.76887,2.69964 4.22553,3.74983 c 7.0626,6.26751 13.32336,6.31683 22.29128,0.17558 2.03999,-1.39699 9.82393,-4.30844 17.29764,-6.46988 10.37666,-3.001 14.2273,-4.58242 16.29091,-6.69053 1.4863,-1.51834 1.86381,-1.7556 0.83891,-0.52724 -1.8023,2.16009 -1.80503,2.41913 -0.0831,7.89345 0.97917,3.11304 2.5812,6.62969 3.56006,7.81479 1.7335,2.09872 1.86121,2.10924 4.91418,0.40472 1.72394,-0.9625 3.99796,-1.75 5.05339,-1.75 1.05543,0 1.91896,-0.41786 1.91896,-0.92857 0,-0.51072 0.5625,-1.54375 1.25,-2.29563 2.31314,-2.52975 4.76428,-7.94367 4.09026,-9.03427 -0.44825,-0.72528 -0.038,-0.81681 1.2457,-0.27795 1.05272,0.4419 2.75189,0.76754 3.77594,0.72366 1.95221,-0.0837 5.6381,-2.90818 5.6381,-4.32049 0,-0.45281 2.2133,-3.19556 4.91844,-6.09502 2.70514,-2.89945 7.42376,-7.97173 10.48583,-11.27173 3.06206,-3.3 5.57376,-6.71776 5.58156,-7.59501 0.008,-0.87726 0.91417,-2.4095 2.01417,-3.40499 1.1,-0.99549 2,-2.23487 2,-2.75418 0,-0.51931 2.20498,-3.10325 4.89996,-5.7421 2.695,-2.63885 5.2003,-5.74421 5.5674,-6.90081 0.3671,-1.1566 1.1784,-2.10291 1.803,-2.10291 0.6245,0 -0.6221,-1.8 -2.7704,-4 -2.1482,-2.2 -4.3581,-4 -4.9108,-4 -0.5526,0 -2.82381,1.6871 -5.047,3.74912 l -4.04216,3.74911 4.18084,-4.49911 c 3.54117,-3.81076 8.57142,-13.43569 11.70832,-22.40262 0.6395,-1.82798 0.7184,-1.83172 1.9889,-0.0942 1.1757,1.60787 1.4033,1.2075 2.0452,-3.5965 0.6666,-4.98856 0.8325,-5.25597 2.1495,-3.46466 0.785,1.06762 1.4272,2.75512 1.4272,3.75 0,2.98467 1.7037,2.04058 2.375,-1.31613 1.4503,-7.25139 0.8083,-10.01036 -3.2215,-13.84384 -2.727,-2.59408 -3.77,-4.36822 -3.5834,-6.09517 0.1448,-1.3398 0.3363,-3.33599 0.4255,-4.43599 0.1201,-1.47975 0.3109,-1.60982 0.7333,-0.5 0.5964,1.56671 2.2383,2.95849 3.5211,2.98468 1.3494,0.0276 0.7909,-1.45995 -1.5,-3.9949 -3.1718,-3.50984 -5.75,-9.48392 -5.75,-13.32371 0,-1.79634 -0.4629,-3.72906 -1.0288,-4.29492 -1.1211,-1.12104 -0.2012,-12.37115 1.0115,-12.37115 1.2222,0 3.539,3.23515 8.238,11.50327 4.3082,7.58057 4.6682,8.82175 6.8159,23.5 1.2471,8.5232 2.19,16.88407 2.0953,18.57971 -0.095,1.69564 0.2975,6.39347 0.8713,10.43963 1.0016,7.06198 0.9334,7.57406 -1.7029,12.78462 -1.5105,2.98538 -4.3347,7.16558 -6.276,9.28933 -1.9413,2.12375 -5.2922,7.35833 -7.4465,11.6324 -3.5479,7.03882 -7.4869,12.8907 -18.69309,27.77104 -2.07099,2.75 -6.55096,7.7 -9.9555,11 -13.60266,13.18501 -18.11915,18.15337 -19.54457,21.5 -1.77175,4.15977 -5.82437,8.62474 -9.63464,10.61496 -1.5125,0.79002 -2.75,2.0517 -2.75,2.80373 0,0.75203 -0.70352,1.6373 -1.56338,1.96726 -0.85986,0.32996 -1.28905,1.0438 -0.95376,1.58632 0.87299,1.41252 -1.13429,4.79469 -6.21708,10.47549 -5.67555,6.34331 -7.36208,9.73794 -11.21052,22.56441 -1.73072,5.76831 -4.2228,14.05793 -5.53796,18.42139 -1.43606,4.76461 -2.07173,8.55925 -1.5914,9.5 1.45575,2.85117 2.13089,21.2674 0.90404,24.66019 -0.84071,2.32493 -0.85829,4.72405 -0.0662,9.03581 0.59311,3.22874 2.25745,12.17044 3.69853,19.87044 1.44109,7.7 2.88529,16.54533 3.20935,19.65628 l 0.5892,5.65629 -7.70881,1.24356 c -4.23985,0.68396 -8.34852,1.88328 -9.13039,2.66515 -0.80309,0.80309 -1.42158,3.35882 -1.42158,5.87426 0,3.43654 0.78357,5.59179 3.4336,9.44425 1.88848,2.74537 4.16052,7.57202 5.04898,10.7259 0.88846,3.15387 2.68164,8.45986 3.98484,11.7911 1.3032,3.33123 2.67788,7.83123 3.05483,10 0.37695,2.16876 1.31366,5.87144 2.08156,8.22816 0.7679,2.35672 1.39619,5.39422 1.39619,6.75 l 0,2.46505 -14.05902,0 c -9.11803,0 -13.84181,-0.35145 -13.44098,-1 z m 5,-7 c -0.33992,-0.55 -0.81648,-1 -1.05902,-1 -0.24254,0 -0.44098,0.45 -0.44098,1 0,0.55 0.47656,1 1.05902,1 0.58246,0 0.7809,-0.45 0.44098,-1 z m -107.5,-26.03374 c 0,-1.71658 -1.56155,-1.03334 -4.3931,1.92216 -1.83544,1.91579 -2.94966,4.35712 -3.3089,7.25 l -0.54162,4.36158 4.12181,-6.28374 c 2.267,-3.45606 4.12181,-6.71856 4.12181,-7.25 z m 31.83333,-19.98132 c 3.00929,-0.0272 9.10652,-2.5798 11.47339,-4.80336 1.2772,-1.19987 3.43055,-2.18158 4.78522,-2.18158 1.35468,0 3.43364,-0.67983 4.61991,-1.51072 1.18627,-0.8309 2.38408,-1.14307 2.6618,-0.69372 0.63823,1.03268 7.62635,0.27016 7.62635,-0.83216 0,-0.44979 -1.61484,-2.14888 -3.58853,-3.77576 -3.40197,-2.80419 -3.6559,-3.4448 -4.8847,-12.3228 -1.75396,-12.67225 -3.35351,-26.79288 -4.06816,-35.91332 -0.32532,-4.15166 -0.9601,-8.14491 -1.41062,-8.87388 -0.45245,-0.73208 -2.7729,-1.38653 -5.18357,-1.46195 -2.40043,-0.0751 -4.94532,-0.50729 -5.6553,-0.96041 -1.47641,-0.94225 -8.20912,-15.07206 -8.20912,-17.22831 0,-2.89873 -1.4499,-1.96198 -13.43649,8.68108 -2.23493,1.98443 -5.07601,4.13776 -6.31351,4.78519 -1.2375,0.64742 -2.25,2.07254 -2.25,3.16694 0,1.4017 -0.8686,2.16354 -2.93878,2.57758 -3.81072,0.76214 -11.61693,8.25776 -12.29523,11.80603 -0.49203,2.5739 -0.339,2.72081 2.28705,2.1956 2.3625,-0.4725 3.30335,0.0331 5.85998,3.14887 2.07361,2.52713 3.29625,3.33574 3.8309,2.53362 0.4319,-0.64797 1.4537,-1.13958 2.27067,-1.09247 6.03641,0.3481 8.33289,-0.41894 11.91421,-3.97941 2.07458,-2.0625 4.85179,-4.65068 6.17158,-5.75151 7.62506,-6.36004 11.6849,-9.49849 12.28705,-9.49849 1.19369,0 -1.71013,19.23117 -4.98285,33 -2.72152,11.44983 -3.54753,16.19038 -2.92888,16.80904 0.332,0.33199 0.86326,-0.38923 1.18059,-1.60271 0.31734,-1.21348 0.89917,-2.20633 1.29296,-2.20633 0.78193,0 -0.27882,8.14476 -1.88844,14.5 -1.00945,3.98562 -1.35771,15.12709 -0.39853,12.75 0.27741,-0.6875 1.25439,-1.25678 2.17105,-1.26506 z m 35.66667,-3.98494 c -0.33992,-0.55 -1.60398,-0.96837 -2.80902,-0.92971 -2.11236,0.0678 -2.11922,0.10112 -0.19098,0.92971 2.75248,1.18278 3.731,1.18278 3,0 z m -67.11745,-39.98255 c 0.68993,-0.68993 0.0518,-1.01745 -1.98255,-1.01745 -2.82189,0 -5.4,1.49444 -5.4,3.13019 0,0.94714 6.05569,-0.78588 7.38255,-2.11274 z m -5.96434,-24.62444 c 0.86999,-0.33384 1.58179,-1.00884 1.58179,-1.5 0,-1.36567 -2.39181,-1.0639 -4.55887,0.57519 -1.67447,1.2665 -1.71196,1.47256 -0.27292,1.5 0.91752,0.0175 2.38002,-0.24134 3.25,-0.57519 z m 9.9785,-7.47243 c 0.61828,-3.8665 0.86501,-17.50786 0.80344,-44.42058 -0.0151,-6.6 0.0462,-13.125 0.1362,-14.5 0.14507,-2.21614 -0.2289,-2.5 -3.29353,-2.5 -3.16191,0 -3.72966,0.48464 -6.64761,5.67452 -3.36967,5.99334 -6.45841,16.50383 -6.47318,22.02723 -0.005,1.81404 -0.25776,9.72476 -0.56202,17.57939 -0.61642,15.91298 -0.16161,17.45602 5.06361,17.1792 4.85628,-0.25727 5.57638,-0.0584 5.57638,1.53966 0,0.91178 0.93024,1.5 2.37219,1.5 2.00199,0 2.474,-0.63664 3.02452,-4.07942 z m 39.10122,-4.92011 c 2.88668,-0.65106 4.14327,-0.50212 5.27,0.6246 0.89832,0.89832 2.51115,1.27598 4.10578,0.96141 1.44446,-0.28494 4.29808,-0.8056 6.34138,-1.15702 2.04329,-0.35142 3.61829,-1.15431 3.5,-1.7842 -0.1183,-0.62989 0.63699,-0.9982 1.67843,-0.81847 1.04144,0.17974 2.27205,-0.27026 2.73469,-1 0.59984,-0.94614 0.84556,-0.68128 0.85648,0.92321 0.013,1.90743 0.58626,2.26963 3.76531,2.37895 2.0625,0.0709 5.1,0.31732 6.75,0.54754 5.63039,0.78563 12.65893,0.87537 13.09659,0.16722 0.64266,-1.03983 -3.62171,-3.7713 -5.0388,-3.22751 -0.66693,0.25592 -4.44601,-0.70103 -8.39795,-2.12658 -3.95194,-1.42554 -7.68798,-2.28124 -8.30232,-1.90156 -0.61945,0.38284 -0.94546,0.17577 -0.73191,-0.46488 0.2398,-0.7194 3.93584,-1.32554 9.79727,-1.60673 5.17671,-0.24835 9.82158,-0.86091 10.32193,-1.36126 0.50295,-0.50295 2.44253,-0.56401 4.33778,-0.13656 2.00996,0.45332 3.67412,0.37502 4.02287,-0.18927 0.74847,-1.21104 -0.16172,-2.15049 -2.3844,-2.46105 -0.94658,-0.13226 -3.52106,-0.48987 -5.72106,-0.79468 -2.2,-0.30481 -7.2625,-0.62179 -11.25,-0.70439 -6.90914,-0.14312 -7.25,-0.26112 -7.25,-2.50971 0,-2.61309 1.74164,-3.19638 2.63018,-0.88088 0.33583,0.87516 1.44538,1.31362 2.71862,1.07431 1.18316,-0.22239 3.8387,-0.43778 5.9012,-0.47865 2.75621,-0.0546 3.75,-0.50272 3.75,-1.69089 0,-1.18512 0.66723,-1.48902 2.5,-1.13867 1.375,0.26285 2.5,0.0903 2.5,-0.38342 0,-1.47362 2.20982,-0.94591 3.72139,0.88867 1.37322,1.66667 1.41568,1.66667 0.89163,0 -0.60126,-1.91222 0.8602,-2.41136 1.94083,-0.66287 0.48382,0.78285 0.97617,0.78285 1.75902,0 0.78284,-0.78284 0.73645,-1.43701 -0.16576,-2.33713 -0.87708,-0.87506 -4.98639,-1.22669 -13.7,-1.17227 -9.71868,0.0607 -12.44711,-0.21331 -12.44711,-1.25 0,-0.73025 0.4549,-1.32773 1.0109,-1.32773 0.55599,0 2.91849,-0.86892 5.25,-1.93093 2.3315,-1.06201 5.1391,-2.09082 6.2391,-2.28625 1.27943,-0.22731 1.88817,-0.99872 1.68962,-2.14113 -0.2471,-1.4217 0.26261,-1.72014 2.5,-1.46375 1.54571,0.17713 3.03538,-0.12794 3.31038,-0.67794 0.28481,-0.56963 -1.3731,-1.13449 -3.8523,-1.3125 -3.02711,-0.21734 -7.49332,0.77222 -14.66823,3.25 -12.88045,4.44813 -20.47947,4.73924 -20.47947,0.78454 0,-0.86019 1.37273,-4.38176 3.05051,-7.82571 2.56791,-5.27113 2.85709,-6.57142 1.82793,-8.21937 -1.03208,-1.65263 -0.50559,-3.88338 3.37911,-14.3173 6.86549,-18.44003 11.01527,-30.92017 10.46444,-31.471 -0.26945,-0.26945 -3.12962,1.82651 -6.35595,4.65769 -8.97706,7.87759 -11.8454,9.02174 -22.78495,9.08868 -8.55055,0.0523 -9.43458,0.24052 -10.38667,2.21108 -2.28046,4.71991 -2.14519,45.03646 0.15883,47.34048 1.39885,1.39885 3.58448,-3.38575 3.61495,-7.91354 0.0264,-3.9196 0.45879,-5.00672 2.5318,-6.36501 2.27273,-1.48915 2.71619,-1.49641 4.87817,-0.0798 2.09957,1.37569 4.16799,7.31822 2.99297,8.59878 -0.75068,0.8181 -3.14505,-3.3526 -2.65614,-4.62668 0.66994,-1.74584 -2.17935,-2.69947 -4.38221,-1.46668 -3.06002,1.71245 -2.40338,10.16634 0.78965,10.16634 0.48266,0 0.87756,-0.675 0.87756,-1.5 0,-0.825 0.45,-1.5 1,-1.5 1.15048,0 1.20955,0.6159 0.36238,3.77804 -0.43591,1.6271 -1.12208,2.11561 -2.4013,1.70961 -2.80901,-0.89155 -6.96632,0.53331 -6.91719,2.37076 0.0241,0.90287 0.67924,3.42544 1.45577,5.60569 1.38869,3.89901 1.36305,4.00575 -1.56095,6.5 -2.78326,2.3742 -2.90561,2.77271 -1.91874,6.24977 0.57975,2.04262 1.48742,3.98168 2.01706,4.30901 0.52963,0.32734 0.96297,1.32066 0.96297,2.2074 0,2.28821 3.17161,5.61009 4.03009,4.22104 0.37253,-0.60278 2.38306,-1.48066 4.46784,-1.95085 z m 6.50207,-40.03259 c 0,-0.56766 0.68533,-2.67234 1.52295,-4.67705 1.16062,-2.77775 1.8006,-3.36728 2.68999,-2.47789 0.88938,0.88938 0.76881,2.00211 -0.50677,4.67705 -1.5806,3.31453 -3.70617,4.73566 -3.70617,2.47789 z m 72.87936,5.56191 c 1.54732,-4.69139 2.41834,-8.52979 1.93559,-8.52979 -0.48275,0 -1.07524,0.5625 -1.31666,1.25 -1.93407,5.5077 -2.79552,7.09064 -3.2253,5.92656 -1.1786,-3.1923 10.9,-28.93508 14.13857,-30.1331 1.14277,-0.42274 2.08017,-1.61047 2.08311,-2.63941 0.003,-1.02893 1.18517,-2.43769 2.62721,-3.13058 4.99075,-2.39801 5.44603,-3.94054 2.08871,-7.07675 -3.01709,-2.81839 -3.08365,-3.05022 -4.79335,-16.69672 -0.13782,-1.1 -0.29496,-2.675 -0.34922,-3.5 -0.24342,-3.70141 -1.41113,-3.96954 -8.89917,-2.04343 -3.99688,1.02809 -9.56325,2.18507 -12.36971,2.57106 -4.49145,0.61773 -5.70984,1.34685 -10.17184,6.08708 -5.12093,5.44026 -7.6273,6.69289 -7.6273,3.81197 0,-2.81362 -3.47482,-1.12803 -3.81839,1.85224 -0.62882,5.45465 5.0319,33.48583 7.82824,38.76443 4.23183,7.98836 10.73498,17.96318 13.82892,21.2114 4.19053,4.3995 3.97261,4.60886 8.04059,-7.72496 z m -4.80041,5.05354 c -0.0434,-1.05416 0.19293,-1.64479 0.52522,-1.3125 0.33229,0.33229 0.36781,1.19479 0.0789,1.91667 -0.31922,0.79773 -0.55618,0.56078 -0.60416,-0.60417 z m -83.23345,-82.03136 c 0.221,-1.14002 -0.13937,-1.62085 -1,-1.33427 -0.74002,0.24642 -1.50098,1.25007 -1.691,2.23033 -0.221,1.14002 0.13937,1.62085 1,1.33427 0.74002,-0.24642 1.50098,-1.25007 1.691,-2.23033 z m 48.7545,-5.15197 c -0.48405,-1.26141 -0.96557,-1.43443 -1.76557,-0.63443 -0.605,0.605 -0.80049,1.88049 -0.43443,2.83443 0.48405,1.26141 0.96557,1.43443 1.76557,0.63443 0.605,-0.605 0.80049,-1.88049 0.43443,-2.83443 z m -53.28713,-0.48713 c -1.32782,-1.32782 -2.79931,0.49104 -1.75902,2.17426 0.48382,0.78285 0.97617,0.78285 1.75902,0 0.78284,-0.78284 0.78284,-1.39142 0,-2.17426 z m 40.47959,-8.42259 c 2.05031,-4.22016 2.09699,-4.78199 0.727,-8.75 -0.87976,-2.5481 -1.07599,-4.3733 -0.49173,-4.57361 0.53475,-0.18334 0.97227,-1.61915 0.97227,-3.1907 0,-2.65089 -0.16259,-2.77094 -2.25,-1.66139 -4.85223,2.57916 -4.83842,2.52557 -1.97529,7.66289 2.66973,4.79029 2.68961,4.95055 0.97529,7.86055 -1.8108,3.07377 -2.35266,7.16198 -0.94927,7.16198 0.44041,0 1.78669,-2.02938 2.99173,-4.50972 z m -2.29246,-20.49028 c 0.33992,-0.55 -0.057,-1 -0.88197,-1 -2.86074,0 -2.85856,-2.23338 0.004,-4.57482 l 2.87748,-2.35325 -3.71955,-0.036 c -3.65959,-0.0354 -3.71754,0.0245 -3.59503,3.71404 0.12226,3.68216 1.1416,5.20429 3.50556,5.23469 0.65504,0.008 1.4691,-0.43469 1.80902,-0.98469 z m 4.95888,271.93347 c -1.07627,-1.74144 0.14952,-2.11024 1.52106,-0.45764 0.78875,0.95039 0.86462,1.52417 0.20152,1.52417 -0.58488,0 -1.36004,-0.47994 -1.72258,-1.06653 z M 213.10454,549.72935 c -0.0183,-0.62656 0.85176,-2.20156 1.93346,-3.5 1.0817,-1.29843 1.9817,-1.84813 2,-1.22156 0.0183,0.62656 -0.85176,2.20156 -1.93346,3.5 -1.0817,1.29843 -1.9817,1.84813 -2,1.22156 z m 229.21673,-0.1034 c -2.66882,-0.90537 -1.07695,-2.17477 2,-1.59485 5.13209,0.96725 6.81136,2.27147 2.75,2.13581 -1.925,-0.0643 -4.0625,-0.30773 -4.75,-0.54096 z m -2.73992,-4.24107 c -0.73755,-1.19337 0.19857,-3.01631 1.54894,-3.01631 1.2168,0 1.22469,2.70662 0.0101,3.45729 -0.512,0.31644 -1.21356,0.11799 -1.55902,-0.44098 z m 23.48992,-18.51631 c 0,-0.825 0.43588,-1.5 0.96862,-1.5 0.53273,0 0.70959,0.675 0.39301,1.5 -0.31659,0.825 -0.75246,1.5 -0.96862,1.5 -0.21615,0 -0.39301,-0.675 -0.39301,-1.5 z m -152.84211,-82.5 c 0,-1.375 0.22698,-1.9375 0.50439,-1.25 0.27741,0.6875 0.27741,1.8125 0,2.5 -0.27741,0.6875 -0.50439,0.125 -0.50439,-1.25 z m -12.85823,-97 c 0,-3.025 0.18747,-4.2625 0.41659,-2.75 0.22913,1.5125 0.22913,3.9875 0,5.5 -0.22912,1.5125 -0.41659,0.275 -0.41659,-2.75 z m 146.77929,-3.41667 c -0.0434,-1.05416 0.19293,-1.64479 0.52522,-1.3125 0.33229,0.33229 0.36781,1.19479 0.0789,1.91667 -0.31922,0.79773 -0.55618,0.56078 -0.60416,-0.60417 z m -135.96295,-3.25154 c -0.0638,-1.19252 -0.37032,-2.83097 -0.68116,-3.64099 -0.60371,-1.57325 5.01105,-8.6908 6.85584,-8.6908 0.59593,0 -0.12569,1.26212 -1.60359,2.80472 -3.75479,3.91915 -3.54933,5.93518 0.56291,5.52367 1.7875,-0.17887 2.575,-0.035 1.75,0.31983 -0.825,0.35477 -1.8494,1.23537 -2.27645,1.95688 -0.42704,0.72151 -1.40018,1.07248 -2.16253,0.77994 -0.8007,-0.30726 -1.58521,0.2382 -1.85755,1.29153 -0.39112,1.51269 -0.49124,1.45393 -0.58747,-0.34478 z m -11.4601,-1.60579 c 0.46983,-2.27468 -0.0776,-3.3876 -3.04147,-6.18285 -1.98794,-1.87486 -3.61443,-3.68228 -3.61443,-4.01647 0,-0.33419 1.2329,0.53559 2.73978,1.93285 1.50688,1.39726 3.28032,2.54047 3.94098,2.54047 2.10611,0 2.41229,1.79556 0.8859,5.19528 -1.33672,2.97728 -1.42696,3.02986 -0.91076,0.53072 z m 147.50199,-4.726 c 0,-1.375 0.22698,-1.9375 0.50439,-1.25 0.27741,0.6875 0.27741,1.8125 0,2.5 -0.27741,0.6875 -0.50439,0.125 -0.50439,-1.25 z m -155.53435,-8.53866 c -0.34295,-0.8937 -0.59502,-2.15061 -0.56015,-2.79313 0.0349,-0.64251 0.49453,-0.0904 1.02148,1.22697 0.52695,1.31735 0.77902,2.57426 0.56015,2.79313 -0.21887,0.21887 -0.67854,-0.33327 -1.02148,-1.22697 z m 4.58013,-0.41586 c 0.67134,-1.07499 1.36075,-1.8144 1.53201,-1.64313 0.59277,0.59277 -0.95337,3.59765 -1.85114,3.59765 -0.49582,0 -0.35221,-0.87953 0.31913,-1.95452 z m 19.79633,-5.63342 c -1.375,-0.76551 -3.0625,-1.18551 -3.75,-0.93333 -0.6875,0.25217 -1.25,-0.20238 -1.25,-1.01011 0,-0.80774 0.87883,-1.46862 1.95295,-1.46862 1.07412,0 3.11574,-0.52981 4.53694,-1.17735 2.08798,-0.95135 2.86418,-0.89715 4.04366,0.28233 1.27957,1.27957 1.26801,1.73331 -0.0936,3.67735 -1.76269,2.5166 -2.00117,2.5442 -5.43991,0.62973 z m 237.5,-4.41206 c 0.99549,-1.1 2.03498,-2 2.30998,-2 0.275,0 -0.31449,0.9 -1.30998,2 -0.99549,1.1 -2.03498,2 -2.30998,2 -0.275,0 0.31449,-0.9 1.30998,-2 z m -235,-3.05747 -5,-1.78752 4.12756,-0.0775 c 2.55787,-0.048 4.6086,0.50213 5.3925,1.44667 1.90585,2.29641 0.97432,2.38263 -4.52006,0.41836 z m 240.25,0.39519 c 0.6875,-0.27741 1.8125,-0.27741 2.5,0 0.6875,0.27741 0.125,0.50439 -1.25,0.50439 -1.375,0 -1.9375,-0.22698 -1.25,-0.50439 z m 9.25,-3.83772 c 1.29175,-1.375 2.57363,-2.5 2.84863,-2.5 0.275,0 -0.55688,1.125 -1.84863,2.5 -1.29175,1.375 -2.57363,2.5 -2.84863,2.5 -0.275,0 0.55688,-1.125 1.84863,-2.5 z m -118,-7.37756 c 0,-0.48265 0.74867,-1.49515 1.66372,-2.25 1.5086,-1.24448 1.55194,-1.16266 0.46482,0.87756 -1.23991,2.32696 -2.12854,2.89993 -2.12854,1.37244 z m 126,-4.12244 c 1.1749,-1.65 2.36119,-3 2.63619,-3 0.275,0 -0.46129,1.35 -1.63619,3 -1.1749,1.65 -2.36119,3 -2.63619,3 -0.275,0 0.46129,-1.35 1.63619,-3 z m 6.93415,-8.75 c 2.40841,-2.8875 4.5713,-5.25 4.80642,-5.25 0.67879,0 -5.48006,7.5449 -7.42517,9.0962 -0.9681,0.77209 0.21034,-0.9587 2.61875,-3.8462 z m 6.06585,-5.92835 c 0,-0.55642 1.0125,-1.86892 2.25,-2.91666 l 2.25,-1.90499 -1.98934,2.5 c -1.09414,1.375 -2.10664,2.6875 -2.25,2.91667 -0.14336,0.22916 -0.26066,-0.0386 -0.26066,-0.59502 z m 6,-7.82165 c 0.68469,-0.825 1.46989,-1.5 1.74489,-1.5 0.275,0 -0.0602,0.675 -0.74489,1.5 -0.68469,0.825 -1.46989,1.5 -1.74489,1.5 -0.275,0 0.0602,-0.675 0.74489,-1.5 z m 16.0789,-38.91667 c -0.043,-1.05416 0.193,-1.64479 0.5253,-1.3125 0.3323,0.33229 0.3678,1.1948 0.079,1.91667 -0.3193,0.79773 -0.5562,0.56078 -0.6042,-0.60417 z m -429.52,-7.25044 c 1.06761,-0.78086 3.0661,-1.65282 4.4411,-1.93769 4.31394,-0.89375 7.50446,-3.1951 7.4206,-5.35254 -0.10069,-2.59043 2.18031,-2.65689 3.54692,-0.10335 0.75449,1.40978 0.69949,2.16067 -0.20143,2.75 -2.36624,1.54784 -17.14424,6.06037 -15.20719,4.64358 z m -2.82557,-6.45698 c 0.67834,-0.68342 1.48525,-0.99067 1.79313,-0.68278 0.30789,0.30788 -0.24711,0.86705 -1.23333,1.24258 -1.4252,0.54268 -1.54006,0.42782 -0.5598,-0.5598 z m 432.36547,-3.43307 c -1.1544,-1.95644 -2.0988,-4.69394 -2.0988,-6.08333 0,-1.57383 -0.4712,-2.37098 -1.25,-2.11451 -1.9478,0.64147 -2.0441,4.35176 -0.1931,7.44586 l 1.6804,2.80914 -2.0964,-2.5 c -2.41562,-2.88063 -2.74049,-6.79776 -0.7855,-9.47135 2.133,-2.91704 4.1123,-1.22946 6.0002,5.11579 0.9582,3.22056 1.9827,6.41806 2.2766,7.10556 1.2034,2.81448 -1.5863,0.99296 -3.5334,-2.30716 z m -448.9409,-16.44284 c 0,-1.375 0.22697,-1.9375 0.50438,-1.25 0.27741,0.6875 0.27741,1.8125 0,2.5 -0.27741,0.6875 -0.50438,0.125 -0.50438,-1.25 z m 0.92105,-4.41667 c -0.0434,-1.05416 0.19293,-1.64479 0.52522,-1.3125 0.33229,0.33229 0.36782,1.19479 0.0789,1.91667 -0.31923,0.79773 -0.55618,0.56078 -0.60417,-0.60417 z m 1.92105,-7.52431 c 0,-0.51754 0.44485,-1.21592 0.98855,-1.55194 0.56686,-0.35034 0.7345,0.0511 0.39301,0.94098 -0.66479,1.73242 -1.38156,2.04939 -1.38156,0.61096 z"
       style="fill:#000080"
       sodipodi:nodetypes="csscssssssssscsssssssscscssscsscsscsssscssssssscssssssssssscsssscssscsssssssssssssscsscssssssscssssssssssssscssscsssssssssscsssssssssssssssssssssssssscssssssscsssssssssscsssssssssssssssssssssssssssssssssssssssscssssssssscssssssssssssssssssssscsssssssssscccccscsssssssssccsssssccscscssssssssccsccsssscsssssscscsscsssssssssssssssscsssssssssssssscccscsssssssssssssssssssscscsssssssssssscssssssssssssssssssssssssssssssssssccsssssssssssscsssscssssssssscssssscsssssscsssssssssssscssssssssssssscssscsssssssscssssssssssscsssssscssssssssssssssssssscssssssssscsccsssssssscsssssssssssssssssssssssssssscsssssscsssssscssscssssscssssssssscssscssssssssssssssssssssssssssssssssssssssssssssssssssssssscssscssssssssssssscsssssssssssscscccssssssssssssssssssssssscsccsscccssssssssssssscssccssssssssssssscscccssssscsssssssssssssssscsssscssccsssscccssssscccsccsssssssssssssssssssssssscscsssssscscccssssssscsssssscssssssssscscccsscs" />
    <text
       xml:space="preserve"
       style="font-size:40px;font-style:normal;font-variant:normal;font-weight:normal;font-stretch:normal;line-height:100%;letter-spacing:0px;word-spacing:0px;fill:#000080;fill-opacity:1;stroke:none;font-family:Verdana;-inkscape-font-specification:Verdana"
       x="379.14453"
       y="628.36218"
       id="text3027"
       sodipodi:linespacing="100%"><tspan
         sodipodi:role="line"
         x="379.14453"
         y="628.36218"
         id="tspan3031"
         style="font-size:64px;font-style:normal;font-variant:normal;font-weight:normal;font-stretch:normal;text-align:center;line-height:100%;text-anchor:middle;font-family:Stencil;-inkscape-font-specification:Stencil;fill:#000080">BE EXCELLENT</tspan><tspan
         sodipodi:role="line"
         x="379.14453"
         y="692.36218"
         style="font-size:64px;font-style:normal;font-variant:normal;font-weight:normal;font-stretch:normal;text-align:center;line-height:100%;text-anchor:middle;font-family:Stencil;-inkscape-font-specification:Stencil;fill:#000080"
         id="tspan3037">TO EACH OTHER</tspan></text>
  </g>
</svg>
