<?xml version="1.0" encoding="UTF-8" standalone="no"?>
<!-- Created with Inkscape (http://www.inkscape.org/) -->

<svg
   xmlns:dc="http://purl.org/dc/elements/1.1/"
   xmlns:cc="http://creativecommons.org/ns#"
   xmlns:rdf="http://www.w3.org/1999/02/22-rdf-syntax-ns#"
   xmlns:svg="http://www.w3.org/2000/svg"
   xmlns="http://www.w3.org/2000/svg"
   xmlns:sodipodi="http://sodipodi.sourceforge.net/DTD/sodipodi-0.dtd"
   xmlns:inkscape="http://www.inkscape.org/namespaces/inkscape"
   width="744.09448819"
   height="1052.3622047"
   id="svg2"
   version="1.1"
   inkscape:version="0.48.2 r9819"
   sodipodi:docname="_4_UseLinux.svg">
  <defs
     id="defs4" />
  <sodipodi:namedview
     id="base"
     pagecolor="#ffffff"
     bordercolor="#666666"
     borderopacity="1.0"
     inkscape:pageopacity="0.0"
     inkscape:pageshadow="2"
     inkscape:zoom="0.5"
     inkscape:cx="1103.646"
     inkscape:cy="519.34166"
     inkscape:document-units="px"
     inkscape:current-layer="g3030"
     showgrid="false"
     inkscape:window-width="1366"
     inkscape:window-height="706"
     inkscape:window-x="-8"
     inkscape:window-y="-8"
     inkscape:window-maximized="1" />
  <metadata
     id="metadata7">
    <rdf:RDF>
      <cc:Work
         rdf:about="">
        <dc:format>image/svg+xml</dc:format>
        <dc:type
           rdf:resource="http://purl.org/dc/dcmitype/StillImage" />
        <dc:title />
      </cc:Work>
    </rdf:RDF>
  </metadata>
  <g
     inkscape:label="Layer 1"
     inkscape:groupmode="layer"
     id="layer1">
    <g
       id="g3030"
       transform="matrix(1.25,0,0,1.25,-1523.5714,-1334.0664)">
      <rect
         x="1218.8392"
         y="1067.6202"
         width="595.29822"
         height="841.65839"
         style="fill:#800080;fill-opacity:1;stroke:none"
         id="rect5" />
      <g
         id="g3073"
         transform="matrix(0.93273187,0,0,0.93273187,143.63703,148.30466)">
        <path
           inkscape:connector-curvature="0"
           id="path7"
           d="m 1475.6522,1501.5044 c 79.9314,-0.4115 134.6783,0.5298 200.325,-15.3032 43.3324,-10.4473 89.3449,-4.8147 89.3449,-4.8147 -0.2006,0.2315 11.6767,-2.3508 5.612,4.9125 -15.19,18.1837 -46.0587,45.9146 -100.5637,56.65 -132.2452,13.7806 -262.9266,13.9658 -392.6462,5.7921 -31.6762,-1.5432 -54.4484,-19.4029 -76.3563,-38.0085 -19.3515,-16.4348 -27.2526,-41.1103 11.5737,-29.7113 38.1217,11.188 182.774,20.8997 262.7106,20.4831 z m 0,0"
           style="fill:#191919;fill-opacity:1;fill-rule:nonzero;stroke:#191919;stroke-width:11.99979687;stroke-linecap:butt;stroke-linejoin:miter;stroke-miterlimit:4;stroke-opacity:1" />
        <path
           inkscape:connector-curvature="0"
           id="path9"
           d="m 1484.9782,1768.0214 c -110.327,0 -199.7901,53.6101 -201.0195,120.0027 l 402.1109,0 c -1.2242,-66.3926 -90.7697,-120.0027 -201.0914,-120.0027 z m 0,0"
           style="fill:#ffffff;fill-opacity:1;fill-rule:nonzero;stroke:none" />
        <path
           inkscape:connector-curvature="0"
           id="path11"
           d="m 1466.2491,1323.7972 c -42.1185,0.6841 -83.1361,13.297 -115.656,35.848 -46.5062,32.2473 -77.2823,81.8039 -90.2604,145.5577 -0.5968,2.932 -1.358,6.9649 -1.7696,8.9196 -0.4114,1.9546 -1.2551,6.9339 -1.7695,11.0903 -0.5144,4.1614 -1.394,11.0336 -2.0061,15.19 -1.4403,9.7631 -1.4506,45.3951 0,54.2529 4.4341,27.1034 9.2437,46.8921 19.4492,80.055 3.1018,10.0769 3.8219,12.4945 5.4629,18.6467 0.4577,1.7129 2.1193,7.7159 3.6213,13.3433 9.6603,36.2029 10.5038,61.1561 3.0503,84.7925 -5.4577,17.3042 -14.0841,30.5652 -31.1053,47.499 -12.1963,12.1705 -25.9717,30.5343 -34.9581,49.0319 l 82.1382,0 c 2.145,-4.9588 3.863,-10.1438 5.7869,-13.9863 12.33,-24.5983 24.8297,-41.8922 42.5197,-58.8363 23.2814,-22.304 49.5,-35.6834 80.7751,-41.3108 8.5903,-1.5483 35.4725,-1.821 43.9651,-0.4012 46.3005,7.7313 85.8727,32.4272 117.5078,73.3009 9.3311,12.0574 17.7311,26.2443 25.3133,41.2337 l 172.8873,0 c -5.8281,-12.6335 -15.7405,-28.4562 -27.7052,-45.4929 -6.5688,-9.3568 -15.2877,-23.4717 -20.0356,-29.0941 -15.082,-17.8751 -27.7823,-26.5117 -36.918,-38.6051 -18.9862,-17.5459 -16.728,-21.1878 -16.2907,-45.8684 7.901,-39.3201 10.1592,-112.6931 7.901,-171.7865 0.8333,-17.2527 -0.108,-26.2237 -0.9876,-35.3388 -3.1224,-32.2112 -9.2334,-51.5473 -21.8617,-76.7576 -10.0049,-19.9636 -22.5972,-37.1803 -39.1453,-53.6872 -18.5078,-18.4667 -36.4498,-31.2904 -60.5183,-43.1626 -29.3255,-14.4648 -57.2364,-21.8103 -91.3046,-24.0324 -6.0441,-0.391 -12.0677,-0.499 -18.0861,-0.4013 z m 0,0"
           style="fill:#000000;fill-opacity:1;fill-rule:nonzero;stroke:none" />
        <path
           inkscape:connector-curvature="0"
           id="path13"
           d="m 1549.195,1425.7086 c 3.1017,0.2675 6.1881,0.8694 9.403,1.6924 32.6125,8.3383 60.4772,44.3149 68.2393,88.0897 2.2788,12.8701 2.4742,32.4582 0.4012,44.0423 -5.2622,29.3975 -20.4831,50.9403 -41.712,59.1552 -8.6932,3.3641 -21.5222,4.2746 -30.7864,2.1707 -22.0983,-5.0205 -44.0371,-24.5366 -57.3857,-51.1203 -6.4916,-12.9215 -12.906,-34.0425 -12.8598,-42.2728 -0.967,-5.9361 -1.0751,-6.5997 -1.61,-15.19 -0.8179,-3.0504 0.4167,-19.2589 2.9731,-30.3029 5.5864,-24.0684 18.688,-42.4528 36.2493,-50.9557 8.899,-4.3106 17.7877,-6.0955 27.088,-5.3086 z m 0,0"
           style="fill:#000000;fill-opacity:1;fill-rule:nonzero;stroke:none" />
        <path
           inkscape:connector-curvature="0"
           id="path15"
           d="m 1409.9849,1425.7086 c 9.3002,-0.7869 18.1889,0.998 27.0879,5.3086 17.5408,8.4875 30.6063,26.8873 36.1669,50.8734 3.7757,18.8216 2.4691,45.4877 0.9671,49.9938 -2.0164,15.3444 -10.7508,37.3552 -20.4985,51.681 -13.292,19.5418 -31.9541,33.5436 -49.7469,37.2935 -15.8742,3.3487 -30.771,0.072 -43.564,-9.5626 -19.2588,-14.511 -29.8913,-40.4415 -29.9016,-72.7402 -0.01,-52.4475 30.6166,-101.0833 70.0088,-111.1551 3.215,-0.823 6.3836,-1.4249 9.4803,-1.6924 z m 0,0"
           style="fill:#ffffff;fill-opacity:1;fill-rule:nonzero;stroke:none" />
        <path
           inkscape:connector-curvature="0"
           id="path17"
           d="m 1485.0553,1353.2153 c 0,0 -11.2858,278.415 -4.1768,395.4393 39.2326,6.5482 57.1901,15.4369 96.284,47.3395 20.4625,16.6921 58.4247,59.8393 73.0642,92.03 l 110.2704,0 c -10.2827,-15.8639 -30.627,-46.532 -35.524,-52.324 -6.2498,-7.4021 -14.7065,-17.335 -18.729,-22.1034 -12.7775,-15.1438 -31.882,-36.6917 -39.6236,-46.9384 -8.1943,-8.0965 -7.3713,-13.796 -7.073,-24.6754 0.7356,-29.1146 3.5803,-143.0165 5.8692,-190.567 0.7048,-14.619 0.7459,-20.5654 0,-28.2916 -2.6439,-27.2936 -7.865,-46.1513 -18.5695,-67.514 -8.472,-16.9184 -19.0891,-31.5014 -33.1114,-45.4929 -15.6839,-15.6478 -30.8842,-26.5117 -51.2798,-36.5681 -24.8452,-12.2529 -77.4007,-20.334 -77.4007,-20.334 z m 0,0"
           style="fill:#333333;fill-opacity:1;fill-rule:nonzero;stroke:none" />
        <path
           inkscape:connector-curvature="0"
           id="path19"
           d="m 1563.459,1620.7612 c -17.8957,-3.7757 -36.6762,-17.8443 -50.0452,-37.4992 -9.8044,-14.4082 -18.5696,-36.5219 -20.5963,-51.9537 -1.5123,-4.5318 -2.8497,-31.3677 0.9413,-50.2973 5.5966,-24.125 18.7908,-42.6688 36.4293,-51.2077 11.9339,-5.7716 23.7855,-6.9495 36.7277,-3.6368 91.495,19.8607 94.6276,213.7609 -3.4568,194.5947 z m 0,0"
           style="fill:#ffffff;fill-opacity:1;fill-rule:nonzero;stroke:none" />
        <path
           inkscape:connector-curvature="0"
           id="path21"
           d="m 1464.3922,1615.9773 -3.0555,3.251 c -6.0801,6.4401 -19.1714,10.8331 -39.3099,13.1478 -22.1137,2.5463 -50.2356,1.1677 -63.7127,-3.112 -6.6614,-2.1142 -8.4669,-1.7541 -10.0614,2.0833 -5.0257,12.119 5.4833,35.0558 30.1897,65.9091 15.6684,19.5675 38.96,43.0907 53.5379,54.0678 5.6737,4.2746 12.5924,7.649 19.0428,9.2848 5.2468,1.3322 36.3264,1.0699 43.6668,-0.3601 2.4485,-0.4784 7.006,-1.3425 10.1181,-1.9496 16.9184,-3.2663 31.1774,-11.4607 56.1563,-32.2163 22.5612,-18.7497 50.2304,-49.6183 57.6221,-64.294 5.4064,-10.7302 7.6388,-26.9027 4.393,-31.8563 -1.8621,-2.8395 -2.644,-2.8857 -9.7837,-0.6121 -6.9238,2.2015 -30.5189,4.4443 -46.5063,4.4443 -6.6202,0 -17.3041,-0.6173 -23.7701,-1.3889 -18.8216,-2.2375 -29.6496,-6.0955 -35.9972,-12.8392 l -3.3332,-3.5596 z m 8.0913,7.114 c 4.9023,0 7.6491,6.3837 5.751,13.4257 -3.251,12.078 -11.1263,17.9215 -15.9256,11.8156 -5.2623,-6.6871 2.2119,-25.2413 10.1746,-25.2413 z m 18.621,0 c 5.4681,0 12.0368,10.4011 12.0368,19.0429 0,7.4484 -5.6582,10.8794 -11.0079,6.6716 -4.4084,-3.467 -8.2869,-13.7291 -7.2529,-19.2382 0.6995,-3.7448 3.3332,-6.4763 6.224,-6.4763 z m 0,0"
           style="fill:#eecc00;fill-opacity:1;fill-rule:nonzero;stroke:none" />
        <path
           inkscape:connector-curvature="0"
           id="path23"
           d="m 1434.4545,1543.2628 c 0,22.16 -16.5017,40.1226 -36.8511,40.1226 -20.3545,0 -36.851,-17.9626 -36.851,-40.1226 0,-22.1652 16.4965,-40.1278 36.851,-40.1278 20.3494,0 36.8511,17.9626 36.8511,40.1278 z m 0,0"
           style="fill:#000000;fill-opacity:1;fill-rule:nonzero;stroke:none" />
        <path
           inkscape:connector-curvature="0"
           id="path25"
           d="m 1425.8385,1527.5481 c 0,9.7117 -7.2324,17.5819 -16.1468,17.5819 -8.9196,0 -16.152,-7.8702 -16.152,-17.5819 0,-9.7117 7.2324,-17.5819 16.152,-17.5819 8.9144,0 16.1468,7.8702 16.1468,17.5819 z m 0,0"
           style="fill:#ffffff;fill-opacity:1;fill-rule:nonzero;stroke:none" />
        <path
           inkscape:connector-curvature="0"
           id="path27"
           d="m 1599.5077,1543.5303 c 0,22.1651 -16.4966,40.1277 -36.8511,40.1277 -20.3494,0 -36.8511,-17.9626 -36.8511,-40.1277 0,-22.1601 16.5017,-40.1227 36.8511,-40.1227 20.3545,0 36.8511,17.9626 36.8511,40.1227 z m 0,0"
           style="fill:#000000;fill-opacity:1;fill-rule:nonzero;stroke:none" />
        <path
           inkscape:connector-curvature="0"
           id="path29"
           d="m 1591.4986,1527.5481 c 0,9.7117 -7.2273,17.5819 -16.1468,17.5819 -8.9144,0 -16.1468,-7.8702 -16.1468,-17.5819 0,-9.7117 7.2324,-17.5819 16.1468,-17.5819 8.9195,0 16.1468,7.8702 16.1468,17.5819 z m 0,0"
           style="fill:#ffffff;fill-opacity:1;fill-rule:nonzero;stroke:none" />
        <path
           inkscape:connector-curvature="0"
           id="path31"
           d="m 1670.2212,1479.9822 c -1.538,-37.921 3.8837,-167.8874 -0.2829,-207.9998 -4.5884,-44.2017 -33.6104,-31.7226 -200.9012,-28.7545 -167.2907,2.9732 -190.6956,-19.5881 -190.8242,19.0634 l -0.751,223.447 c 136.0568,-22.088 264.5367,-19.1611 392.7593,-5.7561 z m 0,0"
           style="fill:#191919;fill-opacity:1;fill-rule:nonzero;stroke:#191919;stroke-width:11.49315739;stroke-linecap:butt;stroke-linejoin:miter;stroke-miterlimit:4;stroke-opacity:1" />
        <path
           inkscape:connector-curvature="0"
           id="path33"
           d="m 1272.6318,1489.3133 -0.535,-26.3986 c 129.987,-32.9006 259.6962,-34.2997 402.6716,-8.6727 l -6.7797,25.0921 c -136.9158,38.3994 -269.0118,33.8316 -395.3569,9.9792 z m 0,0"
           style="fill:#000000;fill-opacity:1;fill-rule:nonzero;stroke:#000000;stroke-width:11.89852715;stroke-linecap:butt;stroke-linejoin:miter;stroke-miterlimit:4;stroke-opacity:1" />
        <path
           inkscape:connector-curvature="0"
           id="path35"
           d="m 1478.8826,1487.158 c 94.0207,-2.0833 172.8771,-24.9378 233.668,-46.2336 20.1385,-7.0523 34.9272,2.0935 44.675,13.0656 15.1745,21.7691 17.515,27.844 10.2621,26.8924 -2.4279,-0.3189 -6.0338,-2.2119 -10.0873,-4.6295 -49.2428,-1.4301 -129.164,37.2008 -278.8316,37.6329 -76.4027,0.2212 -219.9594,-20.9152 -269.4234,-38.5486 -9.8917,-3.5235 -18.158,4.7324 -21.0489,12.5101 -2.3353,0.052 -6.5019,-45.5238 35.2565,-34.8656 41.7584,10.6583 161.5141,36.2647 255.5296,34.1763 z m 0,0"
           style="fill:#4c4c4c;fill-opacity:1;fill-rule:nonzero;stroke:#4c4c4c;stroke-width:14.46175766;stroke-linecap:round;stroke-linejoin:miter;stroke-miterlimit:4;stroke-opacity:1" />
        <path
           inkscape:connector-curvature="0"
           id="path37"
           d="m 1510.6515,1260.7533 c 0.8796,4.2951 1.2654,8.7652 1.1522,13.3021 l -3.575,143.6751 c 47.6842,1.219 94.6534,5.1696 141.5299,10.7713 -0.5298,-26.3215 4.3107,-119.0099 1.8056,-146.9054 -2.68,-29.809 -22.4687,-16.584 -140.9127,-20.8431 z m 0,0"
           style="fill:#4c4c4c;fill-opacity:1;fill-rule:nonzero;stroke:#4c4c4c;stroke-width:8.39102554;stroke-linecap:butt;stroke-linejoin:miter;stroke-miterlimit:4;stroke-opacity:1" />
        <g
           transform="matrix(0.21947415,0,0,0.21947415,1151.1837,1229.6017)"
           id="g3208">
          <path
             sodipodi:nodetypes="ccccc"
             inkscape:connector-curvature="0"
             id="path41"
             transform="scale(0.8,0.8)"
             d="m 1075.25,2598.125 -138,114.7812 862.7188,1037.0938 233.4374,0 z"
             style="fill:#78421e;fill-opacity:1;fill-rule:nonzero;stroke:none" />
          <path
             sodipodi:nodetypes="ccccccc"
             style="fill:#78421e;fill-opacity:1;fill-rule:nonzero;stroke:none"
             d="m 203.50781,1999.9921 c 190.64063,-161.1093 488.95313,-121.0078 666.53906,89.7188 l -108.205,92.5569 C 606.05281,2038.4084 405.1875,1998.2343 283.6875,2101.3359 c -120.70313,102.4453 -119.41406,308.4609 -6.28125,486.2578 -1.00781,53.7422 5.46094,113.5313 -99.58594,83.2266 C 2.203125,2460.0468 13.710938,2160.3984 203.50781,1999.9921 z"
             id="path39"
             inkscape:connector-curvature="0" />
          <path
             id="path43"
             transform="scale(0.8,0.8)"
             d="m 1002.3438,2660.375 -61.5313,49.5312 879.0313,1040.0938 103.4374,0 -920.9374,-1089.625 z"
             style="fill:#9e592b;fill-opacity:1;fill-rule:nonzero;stroke:none"
             inkscape:connector-curvature="0" />
          <path
             style="fill:#ffffff;fill-opacity:1;fill-rule:nonzero;stroke:none"
             d="m 956.36719,2185.2421 -117.09375,97.3829 12.98437,15.6093 117.09375,-97.3828 z m 0,0"
             id="path47"
             inkscape:connector-curvature="0" />
          <path
             style="fill:#ffffff;fill-opacity:1;fill-rule:nonzero;stroke:none"
             d="M 992.08594,2228.1796 875.01562,2325.5859 888,2341.1953 1005.0703,2243.789 z m 0,0"
             id="path49"
             inkscape:connector-curvature="0" />
          <path
             style="fill:#ffffff;fill-opacity:1;fill-rule:nonzero;stroke:none"
             d="m 1027.8281,2271.1406 -117.09373,97.3828 12.98438,15.6094 117.09375,-97.3828 z m 0,0"
             id="path51"
             inkscape:connector-curvature="0" />
          <path
             style="fill:#ffffff;fill-opacity:1;fill-rule:nonzero;stroke:none"
             d="m 1027.8281,2271.1406 -117.09373,97.3828 12.98438,15.6094 117.09375,-97.3828 z m 0,0"
             id="path53"
             inkscape:connector-curvature="0" />
          <path
             style="fill:#ffffff;fill-opacity:1;fill-rule:nonzero;stroke:none"
             d="m 1063.5469,2314.0781 -117.09378,97.4062 12.98438,15.6094 117.0938,-97.4062 z m 0,0"
             id="path55"
             inkscape:connector-curvature="0" />
          <path
             style="fill:#ffffff;fill-opacity:1;fill-rule:nonzero;stroke:none"
             d="m 1099.2656,2357.039 -117.07029,97.3828 12.98438,15.6094 117.07031,-97.3828 z m 0,0"
             id="path57"
             inkscape:connector-curvature="0" />
          <path
             style="fill:#ffffff;fill-opacity:1;fill-rule:nonzero;stroke:none"
             d="m 1099.2656,2357.039 -117.07029,97.3828 12.98438,15.6094 117.07031,-97.3828 z m 0,0"
             id="path59"
             inkscape:connector-curvature="0" />
          <path
             style="fill:#ffffff;fill-opacity:1;fill-rule:nonzero;stroke:none"
             d="m 1134.9844,2399.9765 -117.0703,97.4063 12.9843,15.6093 117.0938,-97.4062 z m 0,0"
             id="path61"
             inkscape:connector-curvature="0" />
          <path
             style="fill:#ffffff;fill-opacity:1;fill-rule:nonzero;stroke:none"
             d="m 1170.7266,2442.9375 -117.0938,97.3828 12.9844,15.6093 117.0937,-97.3828 z m 0,0"
             id="path63"
             inkscape:connector-curvature="0" />
          <path
             style="fill:#ffffff;fill-opacity:1;fill-rule:nonzero;stroke:none"
             d="m 1170.7266,2442.9375 -117.0938,97.3828 12.9844,15.6093 117.0937,-97.3828 z m 0,0"
             id="path65"
             inkscape:connector-curvature="0" />
          <path
             style="fill:#ffffff;fill-opacity:1;fill-rule:nonzero;stroke:none"
             d="m 1206.4453,2485.875 -117.0937,97.4062 13.0078,15.6094 117.0703,-97.4063 z m 0,0"
             id="path67"
             inkscape:connector-curvature="0" />
          <path
             style="fill:#ffffff;fill-opacity:1;fill-rule:nonzero;stroke:none"
             d="m 1242.1641,2528.8125 -117.0703,97.4062 12.9843,15.6094 117.0703,-97.4063 z m 0,0"
             id="path69"
             inkscape:connector-curvature="0" />
          <path
             sodipodi:nodetypes="ccccc"
             style="fill:#9e592b;fill-opacity:1;fill-rule:nonzero;stroke:none"
             d="m 93.847338,2171.4176 54.351562,63.375 c -31.10156,94.2422 -18.39843,211.3828 36.42188,321.9609 l -50.65241,37.9537 C 61.058276,2455.3939 36.316981,2344.4838 93.847338,2171.4176 z"
             id="path73"
             inkscape:connector-curvature="0" />
          <path
             sodipodi:nodetypes="ccccc"
             style="fill:#9e592b;fill-opacity:1;fill-rule:nonzero;stroke:none"
             d="m 396.63281,1967.3437 c 133.03125,-10.125 283.24925,51.7616 409.24925,164.6132 l -51.79207,37.725 C 660.73843,2084.135 554.83594,2034.375 453.375,2033.4843 z"
             id="path75"
             inkscape:connector-curvature="0" />
        </g>
        <path
           style="fill:#007f00;fill-opacity:1;fill-rule:nonzero;stroke:none"
           d="m 1646.2845,1829.8141 c -0.2385,0.012 -0.4646,0.056 -0.6859,0.1316 -0.8272,0.2827 -1.4738,1.0009 -1.9478,2.0851 -0.437,-0.2239 -0.8808,-0.3321 -1.3279,-0.3182 -4.9895,0.1491 -8.5653,15.5377 -7.9943,34.3695 0.2567,8.389 1.2914,16.0432 2.8038,21.942 l 13.7116,0 c 0.7029,-3.519 1.1961,-7.6527 1.4376,-12.1973 2.1879,4.8521 4.4984,9.0252 6.7214,12.1973 l 11.5114,0 c 0.4566,-6.5334 -1.395,-17.1984 -5.3332,-28.7237 -5.8098,-16.9931 -14.0487,-29.7282 -18.8967,-29.4863 z"
           id="path79"
           inkscape:connector-curvature="0" />
        <path
           inkscape:connector-curvature="0"
           id="path81"
           d="m 1660.3655,1864.6449 c -11.6871,5.3446 -28.4768,-6.3321 -37.5044,-26.0745 -9.0224,-19.7424 -6.8672,-40.0815 4.8198,-45.4209 11.687,-5.3445 28.4768,6.3271 37.5044,26.0746 9.0276,19.7424 6.8671,40.0763 -4.8198,45.4208 z m 0,0"
           style="fill:#d40000;fill-opacity:1;fill-rule:nonzero;stroke:none" />
        <path
           inkscape:connector-curvature="0"
           id="path83"
           d="m 1639.1159,1876.8412 c -11.687,5.3446 -28.4768,-6.3322 -37.5044,-26.0746 -9.0224,-19.7424 -6.8671,-40.0763 4.8199,-45.4208 11.687,-5.3446 28.4768,6.3322 37.5043,26.0746 9.0276,19.7423 6.8672,40.0814 -4.8198,45.4208 z m 0,0"
           style="fill:#d40000;fill-opacity:1;fill-rule:nonzero;stroke:none" />
        <path
           inkscape:connector-curvature="0"
           id="path85"
           d="m 1655.6124,1859.573 c -8.8372,4.0432 -21.5376,-4.7838 -28.3635,-19.7166 -6.826,-14.9328 -5.1903,-30.3132 3.647,-34.3512 8.8372,-4.0431 21.5376,4.789 28.3636,19.7167 6.826,14.9328 5.1902,30.3131 -3.6471,34.3511 z m 0,0"
           style="fill:#a80000;fill-opacity:1;fill-rule:nonzero;stroke:none" />
        <path
           inkscape:connector-curvature="0"
           id="path87"
           d="m 1635.3402,1868.4463 c -8.8424,4.038 -21.5376,-4.789 -28.3636,-19.7218 -6.8259,-14.9277 -5.1954,-30.308 3.642,-34.3512 8.8423,-4.0379 21.5376,4.7891 28.3636,19.7219 6.8259,14.9277 5.1953,30.308 -3.642,34.3511 z m 0,0"
           style="fill:#a80000;fill-opacity:1;fill-rule:nonzero;stroke:none" />
        <path
           inkscape:connector-curvature="0"
           id="path89"
           d="m 1637.7116,1841.7185 c -3.858,1.7592 -8.4155,0.062 -10.1747,-3.7962 -1.7643,-3.858 -0.067,-8.4104 3.791,-10.1747 3.858,-1.7644 8.4155,-0.067 10.1748,3.791 1.7643,3.858 0.067,8.4155 -3.7911,10.1799 z m 0,0"
           style="fill:#191919;fill-opacity:1;fill-rule:nonzero;stroke:none" />
      </g>
      <text
         xml:space="preserve"
         style="font-size:32px;font-style:normal;font-weight:normal;line-height:100%;letter-spacing:0px;word-spacing:0px;fill:#000000;fill-opacity:1;stroke:none;font-family:Sans"
         x="1526.8947"
         y="1169.9429"
         id="text3115"
         sodipodi:linespacing="100%"><tspan
           sodipodi:role="line"
           id="tspan3117"
           x="1526.8947"
           y="1169.9429"
           style="font-size:100px;font-style:normal;font-variant:normal;font-weight:normal;font-stretch:normal;text-align:center;line-height:100%;text-anchor:middle;fill:#ffffff;font-family:Georgia;-inkscape-font-specification:Georgia">PROUD TO</tspan><tspan
           sodipodi:role="line"
           x="1526.8947"
           y="1285.1428"
           style="font-size:100px;font-style:normal;font-variant:normal;font-weight:normal;font-stretch:normal;text-align:center;line-height:100%;text-anchor:middle;fill:#ffffff;font-family:Georgia;-inkscape-font-specification:Georgia"
           id="tspan3119">USE LINUX</tspan></text>
    </g>
  </g>
</svg>
